<svg xmlns="http://www.w3.org/2000/svg" width="356" height="307.771" viewBox="0 0 356 307.771">
    <g data-name="Group 23726" transform="translate(-30 -165.233)">
        <path data-name="Path 67345" d="M811.614 904.144c-2.5-6.635-12.948-12.12-17.637-13.4-25.024-6.855-51.331-6.435-76.765-6.807-27.7-.4-54.2 5.057-81.706 7.3-14.3 1.161-29.364-1.67-43.672-2.591q-35.345-2.275-70.667-5.121c-20.3-1.634-41.427.825-59.541 15.46a14.26 14.26 0 0 0-5.108 6.715c-6.068 19.06 66.525 17.962 75.976 18.463 47.659 2.518 95.372 4.24 143.089 3.379 35.476-.641 72.432.1 107.683-5.942 7.8-1.333 18.389-1.674 25.172-7.664 3.77-3.293 4.35-6.669 3.176-9.792z" transform="translate(-426.158 -454.76)" style="fill:#e8f6fe"/>
        <path data-name="Path 67346" d="M1355.31 400.64h.64" transform="translate(-1021.026 -126.765)" style="stroke-miterlimit:10;stroke:#d1e7f8;stroke-width:2px;fill:none"/>
        <path data-name="Path 67347" d="M617.484 504.311h-2.51v-1.255h2.509zm2.51 0v-1.255h2.509v1.255zm-7.53 0-2.51-.007v-1.255l2.509.007zm12.55-.006v-1.255l2.508-.01.006 1.255zm-17.569-.009-2.51-.012.006-1.255 2.509.011zm22.589-.013-.007-1.255 2.508-.015.008 1.255zm-27.609-.013-2.51-.016.009-1.255 2.509.016zm32.629-.021-.01-1.255 2.508-.021.012 1.255zm-37.648-.013-2.51-.021.011-1.255 2.509.021zm42.668-.033-.013-1.255 2.508-.028.015 1.255zm-47.687-.01-2.51-.025.013-1.255 2.509.025zm52.707-.049-.016-1.255 2.508-.034.018 1.255zm-57.727 0-2.51-.029.015-1.255 2.509.029zm-5.019-.059-2.51-.032.017-1.255 2.509.032zm67.765-.01-.02-1.255 2.508-.041.021 1.254zm-72.784-.056-2.509-.036.018-1.255 2.508.036zm77.8-.03-.023-1.254 2.508-.048.025 1.254zm-82.823-.044-2.506-.045.02-1.255 2.509.039zm87.842-.057-.027-1.254 2.508-.055.029 1.254zm-92.861-.023-2.509-.042.021-1.254 2.508.042zm-5.018-.086-2.509-.045.023-1.254 2.509.045zm102.9-.006-.031-1.254 1.182-.029c.39-.01.824-.019 1.328-.029l.024 1.254c-.5.01-.932.019-1.32.029zm-107.916-.085-2.509-.047.024-1.254 2.509.047zm112.927-.015-.019-1.254h.2l2.309-.037.021 1.254-2.311.037zm-117.945-.081-2.508-.049.025-1.254 2.508.049zm122.967-.006-.027-1.254c.878-.019 1.7-.038 2.5-.06l.034 1.254c-.803.013-1.625.033-2.509.052zm-127.984-.093-2.509-.049.025-1.255 2.509.049zm133.009-.045-.043-1.254c.849-.029 1.691-.062 2.5-.1l.054 1.253c-.811.031-1.657.063-2.509.093zm-138.027-.062-2.509-.05.025-1.254 2.509.05zm-5.018-.1-2.509-.051.026-1.254 2.508.051zm148.07-.063-.066-1.253c.844-.044 1.685-.093 2.5-.145l.08 1.252c-.819.052-1.666.101-2.512.146zm-153.088-.041-2.509-.053.027-1.254 2.508.053zm-5.018-.108-2.509-.056.028-1.254 2.508.056zm-5.018-.113-2.509-.059.03-1.254 2.508.059zm168.147-.058-.095-1.251c.843-.064 1.681-.133 2.493-.2l.111 1.25c-.815.067-1.66.136-2.508.198zm-173.165-.062-2.509-.063.032-1.254 2.508.064zm-5.018-.129-2.509-.068.035-1.254 2.508.068zm-5.018-.14-2.509-.074.038-1.254 2.507.074zm188.217-.117-.13-1.248c.841-.088 1.676-.182 2.483-.279l.151 1.246c-.812.097-1.654.192-2.502.28zm-193.235-.034-2.509-.08.041-1.254 2.507.08zm-5.018-.164-2.509-.087.045-1.254 2.507.087zm-5.017-.179-2.508-.1.049-1.254 2.506.1zm-5.017-.195-2.508-.1.053-1.253 2.506.1zm213.291-.037-.175-1.242c.838-.118 1.669-.243 2.468-.373l.2 1.238c-.805.131-1.644.258-2.488.377zm-218.305-.176-2.508-.113.058-1.253 2.505.113zm-5.016-.231-2.507-.123.063-1.253 2.5.123zm-5.015-.252-2.507-.134.068-1.253 2.5.134zm233.319-.154-.232-1.233a90.486 90.486 0 0 0 2.441-.494l.267 1.226c-.797.174-1.63.342-2.475.501zm-238.333-.12c-.836-.048-1.679-.1-2.507-.145l.074-1.252c.826.049 1.669.1 2.5.145zm-5.013-.3c-.835-.052-1.678-.1-2.506-.158l.08-1.252c.826.053 1.668.106 2.5.157zm-5.006-.311-1.434-.082-1.071-.061.072-1.253 1.07.061 1.435.082zm-5.013-.293c-.905-.057-1.727-.112-2.51-.169l.091-1.251c.779.057 1.6.112 2.5.169zm258.3-.059-.308-1.216c.824-.209 1.63-.43 2.4-.657l.357 1.2c-.781.237-1.603.463-2.443.676zm-263.325-.311c-.864-.075-1.708-.157-2.509-.241l.132-1.248c.793.084 1.63.164 2.486.239zm-5.015-.534c-.856-.11-1.7-.23-2.5-.355l.194-1.24c.792.124 1.622.242 2.468.35zm273.2-.605-.415-1.184c.8-.282 1.58-.58 2.306-.885l.486 1.157c-.743.318-1.542.625-2.37.912zm-278.2-.18a65.235 65.235 0 0 1-2.48-.519l.282-1.223c.779.18 1.6.351 2.432.509zm-4.94-1.145a45.32 45.32 0 0 1-2.43-.753l.406-1.187c.752.257 1.547.5 2.363.732zm287.833-.666-.566-1.109a24.375 24.375 0 0 0 2.118-1.222l.684 1.052a25.672 25.672 0 0 1-2.225 1.282zm-292.649-.991c-.81-.34-1.59-.7-2.32-1.085l.58-1.113c.7.364 1.448.714 2.226 1.041zm296.954-1.844-.818-.951a13.485 13.485 0 0 0 1.676-1.71l.974.791a14.746 14.746 0 0 1-1.82 1.874zm-301.494-.539a21.308 21.308 0 0 1-2.072-1.544l.811-.957a20.05 20.05 0 0 0 1.949 1.452zm-3.93-3.378a13.11 13.11 0 0 1-1.485-2.172l1.1-.6a11.856 11.856 0 0 0 1.342 1.964zm308.688-.176-1.126-.553a9.347 9.347 0 0 0 .761-2.218l1.229.254a10.6 10.6 0 0 1-.853 2.52zm-311.19-4.425a12.251 12.251 0 0 1-.491-2.594l1.251-.1a11 11 0 0 0 .441 2.328zm311.021-.694a10.656 10.656 0 0 0-.323-2.342l1.214-.315a11.907 11.907 0 0 1 .363 2.619zM417 480.111l-1.24-.193a10.9 10.9 0 0 1 .725-2.555l1.156.488a9.648 9.648 0 0 0-.641 2.26zm308.971-.149a8.944 8.944 0 0 0-1.432-1.848l.886-.888a10.2 10.2 0 0 1 1.631 2.109zm-3.286-3.336a17.346 17.346 0 0 0-2.118-1.172l.536-1.135a18.581 18.581 0 0 1 2.27 1.256zm-303.873-.817-1.006-.749a12.148 12.148 0 0 1 1.8-1.93l.82.949a10.9 10.9 0 0 0-1.612 1.731zm299.489-1.3c-.815-.3-1.644-.582-2.348-.814l.393-1.191c.715.236 1.559.519 2.393.83zm-4.713-1.544a66.475 66.475 0 0 0-2.4-.626l.294-1.22c.856.206 1.681.421 2.452.639zm-291.209-.27-.633-1.084.06-.035a10.915 10.915 0 0 1 2.4-.97l.347 1.206a9.68 9.68 0 0 0-2.121.851zm286.372-.9c-.781-.163-1.6-.324-2.447-.48l.227-1.234c.852.157 1.686.32 2.477.485zm-281.818-.5-.207-1.237c.768-.129 1.618-.24 2.528-.333l.127 1.248c-.881.085-1.705.193-2.446.318zm276.911-.4c-.8-.13-1.627-.259-2.471-.383l.182-1.241c.851.125 1.689.255 2.491.386zm-271.988-.116-.075-1.252a89.444 89.444 0 0 1 2.524-.113l.04 1.254c-.877.021-1.714.059-2.487.105zm4.986-.166-.016-1.255c.767-.01 1.59-.015 2.517-.017v1.255c-.918-.005-1.737.004-2.498.011zm7.52-.005c-.68 0-1.375 0-2.11-.005h-.4v-1.255h.4c.735 0 1.428.005 2.106.006zm2.521-.016-.021-1.254c1-.017 1.809-.047 2.475-.093l.087 1.252a63.5 63.5 0 0 1-2.539.088zm5.078-.366-.174-1.243a29.277 29.277 0 0 0 2.417-.436l.277 1.224c-.781.171-1.63.324-2.519.448zm246.937-.058c-.8-.106-1.638-.212-2.481-.313l.15-1.246c.848.1 1.688.208 2.5.315zm-4.971-.6c-.808-.088-1.645-.176-2.488-.26l.125-1.248c.846.085 1.687.173 2.5.262zm-4.979-.5c-.813-.075-1.653-.148-2.5-.219l.105-1.25c.846.071 1.689.145 2.506.22zm-231.982-.015-.427-1.18a11.576 11.576 0 0 0 2.149-1.011l.66 1.067a12.823 12.823 0 0 1-2.381 1.119zm226.986-.406c-.815-.063-1.655-.125-2.5-.185l.089-1.251c.844.06 1.687.123 2.5.186zm-5-.356c-.817-.054-1.659-.107-2.5-.158l.076-1.252c.844.051 1.688.1 2.507.158zm-5-.3c-.819-.046-1.661-.091-2.5-.135l.065-1.253c.844.044 1.688.089 2.509.135zm-5.008-.259a739 739 0 0 0-2.5-.115l.055-1.253c.843.037 1.687.076 2.508.115zm-5.009-.221-2.505-.1.047-1.254a537 537 0 0 1 2.509.1zm-5.012-.189c-.82-.029-1.664-.057-2.506-.084l.04-1.254c.844.027 1.688.055 2.51.084zm-5.013-.161-2.507-.071.034-1.254 2.51.072zm-5.014-.137-2.508-.061.029-1.254 2.51.061zm-5.016-.118-2.508-.052.025-1.254 2.51.052zm-5.016-.1-2.508-.045.022-1.255 2.51.046zm-5.016-.088-2.508-.04.02-1.254 2.509.04zm-5.018-.078-2.51-.037.018-1.254 2.51.037zm-5.019-.072-2.507-.035.018-1.254 2.507.035zm-5.018-.071-2.511-.036.019-1.254 2.511.036zm-5.019-.074-2.511-.041.021-1.254 2.51.041zm-5.022-.086c-.875-.016-1.719-.033-2.509-.05l.027-1.254c.789.017 1.632.034 2.506.05zm-5.021-.108c-.878-.022-1.724-.044-2.513-.068l.037-1.254c.788.023 1.631.046 2.507.067zm-142.348-.139-1.03-.717a2.894 2.894 0 0 0 .549-1.952l1.25-.113a4.116 4.116 0 0 1-.767 2.772zm137.326-.01c-.888-.032-1.733-.066-2.512-.1l.057-1.253c.775.035 1.616.069 2.5.1zm-5.03-.232a102.93 102.93 0 0 1-2.519-.179l.107-1.25c.736.063 1.573.122 2.487.177zm-5.029-.447c-.8-.1-1.617-.191-2.408-.284l-.082-.01.145-1.246.082.01a673.3 673.3 0 0 1 2.412.284zm-4.984-.588c-.931-.112-1.748-.215-2.5-.314l.164-1.244c.744.1 1.556.2 2.483.312zm-4.993-.665c-.882-.133-1.7-.266-2.492-.407l.219-1.235c.785.139 1.59.271 2.46.4zm-4.976-.89a59.892 59.892 0 0 1-2.469-.578l.312-1.215c.771.2 1.584.388 2.418.566zm-4.914-1.271a42.125 42.125 0 0 1-2.408-.83l.445-1.173a41.16 41.16 0 0 0 2.336.805zm-108.7-.552a8.213 8.213 0 0 0-1.641-1.644l.767-.993a9.46 9.46 0 0 1 1.889 1.9zm103.937-1.264a33.07 33.07 0 0 1-2.28-1.157l.611-1.1c.7.391 1.439.766 2.194 1.113zm-107.6-1.658a18.84 18.84 0 0 0-2.223-.973l.431-1.178a20.127 20.127 0 0 1 2.372 1.03zm103.139-.839c-.71-.479-1.4-.992-2.061-1.526l.791-.974c.629.51 1.292 1 1.972 1.46zm-107.7-.849a27.748 27.748 0 0 0-2.4-.489l.2-1.239c.859.136 1.7.308 2.513.511zm-4.845-.774c-.44-.034-.89-.059-1.337-.076l.046-1.254c.464.017.931.043 1.388.079zm108.564-1.625a17 17 0 0 1-1.681-1.988l1.019-.732a15.748 15.748 0 0 0 1.557 1.84zm-3.016-4.243a11.922 11.922 0 0 1-.861-2.5l1.225-.27a10.66 10.66 0 0 0 .771 2.235zm.139-5.116-1.254-.022a10.731 10.731 0 0 1 .369-2.632l1.21.33a9.48 9.48 0 0 0-.326 2.316zm1.232-4.481-1.085-.631a11.719 11.719 0 0 1 1.589-2.116l.915.859a10.46 10.46 0 0 0-1.416 1.88zm3.212-3.477-.745-1.009a19.937 19.937 0 0 1 2.175-1.4l.614 1.094a18.7 18.7 0 0 0-2.041 1.306zm4.231-2.4-.5-1.149a34.421 34.421 0 0 1 2.379-.935l.417 1.183c-.806.275-1.577.578-2.293.892zm4.647-1.65-.347-1.206c.777-.223 1.6-.44 2.455-.643l.291 1.22c-.83.19-1.637.402-2.396.62zm4.835-1.172-.264-1.226c.813-.175 1.641-.349 2.463-.516l.25 1.229c-.814.157-1.638.326-2.446.503zm4.9-1-.237-1.232c.816-.157 1.648-.312 2.473-.462l.224 1.235c-.818.14-1.642.295-2.453.451zm4.925-.893-.211-1.237c.818-.14 1.653-.278 2.482-.41l.2 1.239c-.819.124-1.654.261-2.464.4zm4.943-.792-.186-1.241c.82-.123 1.658-.245 2.489-.362l.175 1.242c-.821.109-1.655.23-2.471.353zm4.958-.7-.163-1.244c.822-.108 1.661-.215 2.495-.317l.153 1.245c-.824.097-1.66.203-2.478.314zm4.971-.609-.142-1.247c.823-.094 1.664-.186 2.5-.275l.132 1.248c-.827.081-1.664.175-2.484.268zm4.981-.527-.122-1.249c.824-.081 1.666-.16 2.5-.236l.113 1.25c-.827.069-1.664.149-2.485.229zm4.989-.452-.1-1.25c.824-.069 1.667-.136 2.505-.2l.1 1.251c-.838.058-1.678.125-2.499.193zm5-.382-.088-1.252c.824-.058 1.668-.114 2.507-.168l.08 1.252c-.835.048-1.676.104-2.498.162zm5-.32-.073-1.253a426.56 426.56 0 0 1 2.509-.139l.066 1.253c-.837.039-1.678.085-2.5.133zm5.005-.264-.06-1.253c.823-.039 1.668-.077 2.51-.113l.054 1.254c-.834.029-1.681.064-2.502.106zm77.733-.039c-.819 0-1.665 0-2.513-.009l.008-1.255c.846.005 1.689.008 2.505.009zm2.513-.007-.008-1.255c.845-.005 1.688-.013 2.5-.024l.017 1.255c-.812.005-1.658.013-2.507.022zm-7.539-.025c-.818-.01-1.663-.022-2.512-.036l.021-1.254c.847.014 1.69.026 2.506.036zm12.567-.044-.027-1.254c.846-.018 1.688-.04 2.5-.065l.038 1.254c-.815.02-1.659.042-2.508.06zm-17.591-.039a670.32 670.32 0 0 1-2.511-.057l.031-1.254c.851.021 1.694.04 2.506.057zm-62.676-.061-.048-1.254c.822-.031 1.666-.062 2.51-.091l.043 1.254c-.842.024-1.682.058-2.502.086zm85.295-.055-.051-1.254a242.33 242.33 0 0 0 2.5-.116l.066 1.253c-.815.039-1.661.078-2.512.112zm-27.641-.007c-.8-.022-1.647-.047-2.511-.073l.038-1.254c.862.026 1.706.051 2.507.073zm-52.643-.109-.038-1.254c.82-.025 1.665-.049 2.51-.072l.034 1.254c-.842.018-1.685.042-2.503.067zm47.622-.043-2.508-.083.042-1.254 2.506.083zm-42.61-.091-.03-1.254 2.51-.056.026 1.254c-.843.012-1.687.028-2.503.05zm80.3-.013-.082-1.252c.847-.055 1.686-.116 2.493-.181l.1 1.251c-.811.059-1.656.12-2.509.176zm-42.7-.065-2.508-.085.042-1.254 2.509.085zm-32.58-.027-.023-1.254 2.51-.043.02 1.255zm5.015-.081-.018-1.255 2.51-.034.016 1.255zm22.549-.057c-.945-.029-1.765-.051-2.5-.069l.03-1.254c.743.018 1.565.04 2.513.069zm-17.533-.006-.014-1.255 2.51-.027.013 1.255zm5.018-.053-.012-1.255 2.509-.024.012 1.255zm5.018-.049-.012-1.254.827-.008h1.692l-.013 1.255a70.997 70.997 0 0 0-1.667 0zm60.236-.077-.122-1.249a120.93 120.93 0 0 0 2.483-.268l.148 1.246c-.808.099-1.652.19-2.509.271zm5.013-.6-.178-1.242a80.457 80.457 0 0 0 2.458-.389l.215 1.236a66.19 66.19 0 0 1-2.491.401zm4.984-.874-.261-1.227a50.686 50.686 0 0 0 2.409-.572l.321 1.213c-.775.211-1.606.408-2.468.592zm4.912-1.317-.4-1.189a25.238 25.238 0 0 0 2.282-.888l.515 1.144c-.726.334-1.533.648-2.396.939zm4.689-2.167L739.8 419a8.818 8.818 0 0 0 1.788-1.5l.938.833a10.064 10.064 0 0 1-2.044 1.715zm3.408-4.12-1.2-.352a4.344 4.344 0 0 0 .116-.51 8 8 0 0 0 .1-1.765l1.253-.074a9.257 9.257 0 0 1-.113 2.043 5.63 5.63 0 0 1-.155.665zm-1.491-4.868a8.256 8.256 0 0 0-1.173-2.007l.988-.773a9.517 9.517 0 0 1 1.349 2.313zm-2.832-3.7a16.459 16.459 0 0 0-1.964-1.4l.657-1.069a17.714 17.714 0 0 1 2.114 1.513zm-4.112-2.563a29.44 29.44 0 0 0-2.263-.957l.442-1.174c.827.311 1.62.647 2.358 1zm-4.6-1.746a43.31 43.31 0 0 0-2.388-.646l.294-1.22c.84.2 1.667.426 2.456.665zm-4.81-1.165c-.8-.151-1.626-.286-2.447-.4l.174-1.243c.84.118 1.683.256 2.505.411zm-4.91-.688a51 51 0 0 0-2.472-.169l.054-1.253a52.2 52.2 0 0 1 2.534.173z" transform="translate(-382.489 -126.482)" style="fill:#d1e7f8"/>
        <path data-name="Path 67348" d="M505.22 572.33h-.64" transform="translate(-442.649 -243.49)" style="stroke-miterlimit:10;stroke:#d1e7f8;stroke-width:2px;fill:none"/>
        <path data-name="Path 67349" d="m1297.01 385.752-4.92-26.011a2.055 2.055 0 0 0-3.358-1.175l-20.063 17.265a2.055 2.055 0 0 0 .66 3.5l24.971 8.743a2.055 2.055 0 0 0 2.711-2.321z" transform="translate(-961.635 -97.823)" style="fill:#f1f9fe"/>
        <path data-name="Path 67350" d="M1300.542 392.457a1.279 1.279 0 0 1-.419-.07l-20.55-7.194a1.281 1.281 0 0 1-.413-2.171l16.5-14.2a1.281 1.281 0 0 1 2.087.73l4.046 21.392a1.281 1.281 0 0 1-1.255 1.514zm-19.868-8.6 19.417 6.793-3.823-20.214z" transform="translate(-968.958 -104.923)" style="fill:#b6ddf5"/>
        <path data-name="Path 67351" d="M1317.9 396.949a.772.772 0 0 1-.483-.96l2.036-7.149a1.21 1.21 0 0 1 1.559-.794 1.21 1.21 0 0 1 .724 1.6l-2.881 6.857a.769.769 0 0 1-.955.446z" transform="translate(-995.239 -118.157)" style="fill:#b6ddf5"/>
        <path data-name="Path 67352" d="M1316.241 419.9a.784.784 0 1 1-.474-1 .784.784 0 0 1 .474 1z" transform="translate(-993.429 -139.149)" style="fill:#b6ddf5"/>
        <path data-name="Path 67353" d="m461.047 527.587-16.177-8.051a1.4 1.4 0 0 0-2.026 1.341l1.114 18.037a1.405 1.405 0 0 0 2.177 1.086l15.047-9.985a1.4 1.4 0 0 0-.134-2.424z" transform="translate(-400.676 -207.496)" style="fill:#f1f9fe"/>
        <path data-name="Path 67354" d="M462.574 533.889a.833.833 0 0 1-.211.2l-12.39 8.211a.871.871 0 0 1-1.351-.672l-.916-14.835a.871.871 0 0 1 1.255-.832l13.308 6.624a.871.871 0 0 1 .3 1.306zm-12.874 7.26 11.707-7.76-12.572-6.255z" transform="translate(-403.982 -211.903)" style="fill:#b6ddf5"/>
        <path data-name="Path 67355" d="M459.486 543.154a.528.528 0 0 1-.717-.131l-3.048-4.056a.823.823 0 0 1 .211-1.175.826.826 0 0 1 1.162.266l2.561 4.386a.531.531 0 0 1-.169.71z" transform="translate(-409.324 -219.918)" style="fill:#b6ddf5"/>
        <path data-name="Path 67356" d="M469.237 556.57a.535.535 0 1 1-.34-.23.535.535 0 0 1 .34.23z" transform="translate(-417.954 -232.614)" style="fill:#b6ddf5"/>
        <circle data-name="Ellipse 1763" cx="1.348" cy="1.348" r="1.348" transform="translate(70.226 353.763)" style="stroke-miterlimit:10;stroke:#d1e7f8;stroke-width:2px;fill:none"/>
        <circle data-name="Ellipse 1764" cx="1.348" cy="1.348" r="1.348" transform="translate(270.188 328.834)" style="stroke-miterlimit:10;stroke:#d1e7f8;stroke-width:2px;fill:none"/>
        <circle data-name="Ellipse 1765" cx="1.348" cy="1.348" r="1.348" transform="translate(164.097 291.085)" style="stroke-miterlimit:10;stroke:#d1e7f8;stroke-width:2px;fill:none"/>
        <circle data-name="Ellipse 1766" cx="1.348" cy="1.348" r="1.348" transform="translate(162.48 393.534)" style="stroke-miterlimit:10;stroke:#d1e7f8;stroke-width:2px;fill:none"/>
        <path data-name="Line 8277" transform="translate(195.225 315.56)" style="stroke-linecap:round;stroke-linejoin:round;stroke:#d1e7f8;stroke-width:2px;fill:none" d="M0 0v3.048"/>
        <path data-name="Line 8278" transform="translate(193.7 317.084)" style="stroke-linecap:round;stroke-linejoin:round;stroke:#d1e7f8;stroke-width:2px;fill:none" d="M3.048 0H0"/>
        <path data-name="Line 8279" transform="translate(249.923 276.617)" style="stroke-linecap:round;stroke-linejoin:round;stroke:#d1e7f8;stroke-width:2px;fill:none" d="M0 0v3.051"/>
        <path data-name="Line 8280" transform="translate(248.399 278.145)" style="stroke-linecap:round;stroke-linejoin:round;stroke:#d1e7f8;stroke-width:2px;fill:none" d="M3.048 0H0"/>
        <path data-name="Line 8281" transform="translate(334.549 358.831)" style="stroke-linecap:round;stroke-linejoin:round;stroke:#d1e7f8;stroke-width:2px;fill:none" d="M0 0v3.048"/>
        <path data-name="Line 8282" transform="translate(333.025 360.354)" style="stroke-linecap:round;stroke-linejoin:round;stroke:#d1e7f8;stroke-width:2px;fill:none" d="M3.048 0H0"/>
        <path data-name="Path 67357" d="M958.787 917.51s-6 1-6.169 2.318c-.1.759 8.417 1.658 8.993 1.213.925-.714-.208-3.378-.208-3.378z" transform="translate(-747.252 -478.165)" style="fill:#26397a"/>
        <path data-name="Path 67358" d="m972.34 904.681-.49 3.794a1.165 1.165 0 0 0 .979.82 1.805 1.805 0 0 0 1.521-.5l.7-4.738" transform="translate(-760.327 -469.021)" style="fill:#fab189"/>
        <path data-name="Path 67359" d="M987.728 635.81c1.073 9.345 1.12 13.827-3.041 20.23-1.978 9.038-5.013 18.286-7.309 27.532.986 11.048-5.939 28.643-9.665 41.212l-2.692-.458c-3.621-22.621-4.959-57.305-1.71-87.677" transform="translate(-753.267 -286.649)" style="fill:#26397a"/>
        <path data-name="Path 67360" d="M998.711 675.33s-10.331 32.8-10.331 34.575-.282 7.9-.739 11.871c-.839 7.274-7.431 28.71-7.431 28.71" transform="translate(-766.011 -313.516)" style="stroke-width:.5px;stroke:#0362a6;stroke-miterlimit:10;fill:none"/>
        <path data-name="Path 67361" d="m629.382 897.157.416-1.639-3.47-.128-.048 1.514z" transform="translate(-414.854 -458.516)" style="fill:#0362a6"/>
        <path data-name="Path 67362" d="M1108.615 916.016s-4.7 3.394-4.28 4.591c.237.685 7.879-2.148 8.186-2.772.486-1-1.6-2.795-1.6-2.795z" transform="translate(-850.38 -476.485)" style="fill:#26397a"/>
        <path data-name="Path 67363" d="m1114.17 904.108 1.184 3.445a1.114 1.114 0 0 0 1.185.285 1.716 1.716 0 0 0 1.1-1.056l-1.4-4.341" transform="translate(-857.084 -467.92)" style="fill:#fab189"/>
        <path data-name="Path 67364" d="M1054.721 629.73c2.862 8.964 2.331 13.635-.522 20.719-.173 8.484-.259 17.067-.355 25.65 6.041 15.127 7 28.7 6.233 43.1l-2.913 1.082s-17.342-30.247-20.543-42.2a197.37 197.37 0 0 1-6.3-42.14" transform="translate(-800.079 -282.516)" style="fill:#26397a"/>
        <path data-name="Path 67365" d="M1100.114 635.81s3.157 9.239-.983 18.142c0 2.488-1.425 23.153-.861 26.344.269 1.53 3.105 8.836 5 15.946 2.1 7.866 2.539 26.418 2.539 26.418" transform="translate(-846.186 -286.649)" style="stroke-width:.5px;stroke:#0362a6;stroke-miterlimit:10;fill:none"/>
        <path data-name="Path 67366" d="m770.791 890.676-.461-1.946-3.73 1.735.736 1.665z" transform="translate(-510.252 -453.987)" style="fill:#0362a6"/>
        <path data-name="Path 67367" d="m954.93 389.784 2.34-2v-4.133c0-.64.868-4.482 1.652-4.482s.961-.96 1.354-.57-.32 4.741 0 5.061.736-2.065 1.034-1.767.32 2.046.32 2.939a5.968 5.968 0 0 1-1.425 3.256c-.707.711-3.842 4.1-3.842 4.1z" transform="translate(-748.825 -111.718)" style="fill:#ef9568"/>
        <path data-name="Path 67368" d="m911.626 409.59 1.956 2.241s-7.722 10.219-10.168 13.641a40.2 40.2 0 0 0 7.283-3.954c3.63-2.382 7.274-3.643 9.79-3.643 5.349 0 2.561 17.627-3.653 20.2-11.768 1.77-24.971.64-26.978-3.486-2.992-6.139 14.257-20.581 21.77-24.999z" transform="translate(-704.349 -132.85)" style="fill:#daf0fc"/>
        <path data-name="Path 67369" d="M924.258 459.15s-1.473 4.111-4.088 5.442" transform="translate(-725.192 -166.544)" style="stroke:#98c0e6;stroke-width:.5px;stroke-miterlimit:10;fill:none"/>
        <path data-name="Path 67370" d="M996.953 437.912c14.028 15.754 13.814 42.841 13.814 61.252 0 0-10.3 7.043-26.024 7.043-15.786 0-22.282-3.874-22.282-3.874-.474-18.654 2.856-26.7-.221-57.558 0 0 5.016-11.525 7.683-11.525s13.145-1.031 13.145-1.031z" transform="translate(-753.794 -148.236)" style="fill:#daf0fc"/>
        <path data-name="Path 67371" d="M961.206 485.607s-.32-5.391-1.626-6.7" transform="translate(-751.986 -179.978)" style="stroke:#98c0e6;stroke-width:.5px;stroke-miterlimit:10;fill:none"/>
        <path data-name="Path 67372" d="M983.68 379.911c-.522-3.179-2.785-7.722-6.944-7.206-2.612.32-4.632 2.126-6.083 4.239-1.255 1.809-.781 3.544 1.005 8.128a11.519 11.519 0 0 0 2.744 3.2c2.241 1.431 5.532.711 7.318-1.181a8.506 8.506 0 0 0 1.96-7.18z" transform="translate(-759.036 -107.745)" style="fill:#fab189"/>
        <path data-name="Path 67373" d="M974.616 371.818c-.6-.09 0-.48-.269.064-.17.349-.221.451-.56.563s-.339.416-.615.624c-.435.32-.8-.118-.983-.49a4.162 4.162 0 0 1-.25-2.263c.064-.586.259-1.514-.32-1.921-.468-.32-1.5.15-1.988.291-.746.215-1.486.458-2.241.682a13.216 13.216 0 0 1-5.567.772 5.386 5.386 0 0 1-4.136-2.606c-.96-1.828.96-4.22 2.881-4.223a7.409 7.409 0 0 1 1.479.32 1.144 1.144 0 0 0 .551 0c.423-.125.608-.6.845-.96a3.175 3.175 0 0 1 3.2-1.313 25.978 25.978 0 0 1 4 1.213 8.709 8.709 0 0 0 2.062.032 2.2 2.2 0 0 1 1.831 1.2c.579-.611 1.879.884 2.2 1.281a10.579 10.579 0 0 1 1.921 6.4c.035 1.921-.285 4.693-2.382 5.465-.887.32-1.447.5-1.482-.32a12.954 12.954 0 0 0 .56-3.221 1.7 1.7 0 0 0-.781-1.815" transform="translate(-750.525 -100.039)" style="fill:#26397a"/>
        <path data-name="Path 67374" d="m987.394 408.245.458 4.8-1.581.448a4.453 4.453 0 0 0 3.589 2.523c5.6.746 9.556-3.554 9.556-3.554l-1.87-.362-2.83-8.922" transform="translate(-770.131 -128.493)" style="fill:#fab189"/>
        <path data-name="Path 67375" d="M1007.932 392.436a.772.772 0 0 1 .778-.736 1.517 1.517 0 0 1 1.047.509c1.566 1.559-.4 5.359-1.947 3.4" transform="translate(-784.774 -120.688)" style="fill:#fab189"/>
        <path data-name="Path 67376" d="M974.981 409.291c.25.589 1.242.823 1.786.884 2.635.291 4.821-1.412 7.341-1.722a1.807 1.807 0 0 1 1.444.234 1.722 1.722 0 0 1 .394 1.332 16.289 16.289 0 0 1-.032 1.767 3.377 3.377 0 0 1-.406 1.46c-1.137 1.9-4.937 2.215-6.864 2.1a4.033 4.033 0 0 1-2.2-.663c-.868-.64-1.053-1.8-1.38-2.8a5.575 5.575 0 0 1-.086-2.59z" transform="translate(-762.38 -132.048)" style="fill:#26397a"/>
        <path data-name="Path 67377" d="M980.711 416.6a.515.515 0 0 1 .278-.1 25.367 25.367 0 0 0 2.881-.371 1.324 1.324 0 0 1 .49.026 1 1 0 0 1 .605.8.676.676 0 0 1-.416.768 4.461 4.461 0 0 1-1.844.4 2.593 2.593 0 0 1-1.729-.32c-.268-.203-.652-.929-.265-1.203z" transform="translate(-766.24 -137.284)" style="fill:#fab189"/>
        <path data-name="Path 67378" d="M1039.775 504.255s1.114 11.339-3.957 20.767a94.553 94.553 0 0 1-19.9 24.247l-1.674-.406c2.423-9.284 10.065-25.794 10.542-31.982s.362-13.353.477-16.8" transform="translate(-789.147 -194.37)" style="fill:#fab189"/>
        <path data-name="Path 67379" d="M1020.446 432.2s9.832.567 15.489 4.837c9.774 7.386 7.856 27.212 5.01 36.915s-16.538 24.244-20.96 27.382c-.724 0-2.852-.182-2.779-1.85 2.446-7.559 9.419-27.446 9.419-27.446l-1.1-26.828" transform="translate(-791.161 -148.22)" style="fill:#daf0fc"/>
        <path data-name="Path 67380" d="M1038 516.72c1.569-4.514 2.756-7.9 2.756-7.9l-2.065-22.519" transform="translate(-805.3 -185.001)" style="stroke:#98c0e6;stroke-width:.5px;stroke-miterlimit:10;fill:none"/>
        <path data-name="Path 67381" d="M1073.644 503.39a71.8 71.8 0 0 1-2.241 18.962c-1.37 4.668-5.25 10.459-9.4 15.559" transform="translate(-821.617 -196.621)" style="stroke:#98c0e6;stroke-width:.5px;stroke-miterlimit:10;fill:none"/>
        <path data-name="Path 67382" d="m345.99 877.962 18.072-3.81v-20.8l-18.072 3.272z" transform="translate(-224.296 -429.934)" style="fill:#e9bb7e"/>
        <path data-name="Path 67383" d="m338.173 844.947-7.495-2.43-5.561-1.527-17.208 2.932 12.191 4.3z" transform="translate(-198.406 -421.531)" style="fill:#fecd8d"/>
        <path data-name="Path 67384" d="m320.1 875.787-11.932-4.972-.259-20.665 12.191 4.3z" transform="translate(-198.406 -427.759)" style="fill:#c89c61"/>
        <path data-name="Path 67385" d="m334.371 857.763-2.971 2.28-4.373 3.006-.266 14.659-2.231-.97V855.82l6.87 2.481z" transform="translate(-209.706 -431.614)" style="fill:#010101;opacity:.2"/>
        <path data-name="Path 67386" d="M668.681 863.366a.035.035 0 0 1-.032-.029.032.032 0 0 1 .026-.038l17.787-3.25a.035.035 0 0 1 .038.029.032.032 0 0 1-.006.026.033.033 0 0 1-.023.013l-17.784 3.249z" transform="translate(-554.193 -439.1)" style="fill:#b38459"/>
        <path data-name="Path 67387" d="m665.338 869.091-12.06-4.232a.034.034 0 1 1 .022-.064l12.037 4.226a.032.032 0 0 1 .02.016.032.032 0 0 1 0 .026.039.039 0 0 1-.022.029z" transform="translate(-543.727 -442.324)" style="fill:#b38459"/>
        <path data-name="Path 67388" d="m340.375 845.411-17.6 3.3v4.671l-1.815-.855-.128-4.479 17.428-3.262z" transform="translate(-207.191 -424.115)" style="fill:#fff"/>
        <path data-name="Path 67389" d="m247.768 895.19-19.128-4.034V869.14l19.128 3.464z" transform="translate(-144.514 -440.669)" style="fill:#e9bb7e"/>
        <path data-name="Path 67390" d="m228.64 860.247 7.936-2.571 5.884-1.617 18.213 3.1-12.9 4.549z" transform="translate(-144.514 -431.779)" style="fill:#fecd8d"/>
        <path data-name="Path 67391" d="m288.39 892.885 12.63-5.263.275-21.872-12.9 4.549z" transform="translate(-185.136 -438.365)" style="fill:#deb275"/>
        <path data-name="Path 67392" d="m617.458 878.9-18.821-3.438a.036.036 0 0 1-.023-.015.036.036 0 0 1-.006-.027.036.036 0 0 1 .015-.023.035.035 0 0 1 .027-.006l18.821 3.438a.035.035 0 0 1 .023.015.036.036 0 0 1-.036.056z" transform="translate(-506.574 -449.527)" style="fill:#b38459"/>
        <path data-name="Path 67393" d="M633.921 884.955a.039.039 0 0 1-.035-.022.036.036 0 0 1 0-.027.036.036 0 0 1 .021-.018l12.742-4.482a.035.035 0 0 1 .027 0 .036.036 0 0 1 .018.021.038.038 0 0 1-.019.045l-12.742 4.482z" transform="translate(-530.558 -452.937)" style="fill:#b38459"/>
        <path data-name="Path 67394" d="m250.41 860.736 18.626 3.5v4.943l1.924-.906.134-4.738-18.446-3.454z" transform="translate(-159.314 -434.51)" style="fill:#fff"/>
        <path data-name="Path 67395" d="m274.255 857.75-1.085.3 10.008 5.042 7.706 7.885.064-10.664z" transform="translate(-174.788 -432.925)" style="fill:#010101;opacity:.2"/>
        <path data-name="Path 67396" d="m304.68 830.242 15.876-3.349V808.62l-15.876 2.875z" transform="translate(-196.211 -399.524)" style="fill:#e9bb7e"/>
        <path data-name="Path 67397" d="m297.808 801.237-6.585-2.135-4.885-1.341-15.117 2.577 10.712 3.774z" transform="translate(-173.463 -392.142)" style="fill:#fecd8d"/>
        <path data-name="Path 67398" d="m281.932 828.332-10.481-4.37-.23-18.152 10.712 3.774z" transform="translate(-173.463 -397.616)" style="fill:#deb275"/>
        <path data-name="Path 67399" d="M630.117 819.171a.031.031 0 0 1-.006-.061l15.623-2.852a.029.029 0 0 1 .022 0 .028.028 0 0 1 .013.019.029.029 0 0 1 0 .023.029.029 0 0 1-.021.012l-15.623 2.852z" transform="translate(-527.977 -409.327)" style="fill:#b38459"/>
        <path data-name="Path 67400" d="m627.211 824.194-10.565-3.72a.03.03 0 0 1 .019-.058l10.565 3.72a.029.029 0 0 1 .019.038.029.029 0 0 1-.015.018.03.03 0 0 1-.023.002z" transform="translate(-518.824 -412.154)" style="fill:#b38459"/>
        <path data-name="Path 67401" d="m299.742 801.644-15.463 2.9v4.1l-1.6-.752-.112-3.934 15.312-2.865z" transform="translate(-181.178 -394.412)" style="fill:#fff"/>
        <path data-name="Path 67402" d="m37.86 74.753-3.874-16.968-31.511 7.2L0 54.148l17.035-49.5L37.37 0l9.521 41.708 8.548-1.943 2.849 12.485-8.538 1.95 3.874 16.967zM31.137 45.3l-3.6-15.764c-.96-4.267-1.754-8.7-2.478-13.372l-.439.1c-1.249 5.122-2.158 9.71-3.544 14.749L15.1 48.729l.051.221z" transform="rotate(3 -3098.098 2372.247)" style="fill:#004f9e"/>
        <path data-name="Path 67403" d="M963.459 148.082c0 22.57-9.1 38.065-27.734 38.065-18.863 0-27.173-16.967-27.286-37.613 0-21.129 8.983-37.844 27.852-37.844 19.533 0 27.168 17.41 27.168 37.392zm-37.841.451c-.112 16.727 3.931 24.7 10.565 24.7s10.219-8.324 10.219-24.929c0-16.17-3.48-24.7-10.331-24.7-6.297-.009-10.564 7.972-10.452 24.93z" transform="translate(-722.374 58.315)" style="fill:#004f9e"/>
        <path data-name="Path 67404" d="m27.782 72.278 3.784-16.99L0 48.245 2.417 37.4 39.047 0l20.387 4.562-9.3 41.759 8.548 1.9L55.9 60.708l-8.548-1.9-3.768 16.99zM34.348 42.8l3.522-15.783c.96-4.274 2.148-8.612 3.5-13.126l-.435-.1c-3.329 4.091-6.121 7.84-9.534 11.8l-13 13.446-.048.221z" transform="rotate(-8 1364.13 -1679.544)" style="fill:#004f9e"/>
        <path data-name="Path 67405" d="M779.479 875.665a10.633 10.633 0 0 1-2.03-.2l-32.014-6.329a2.183 2.183 0 0 1-.384-4.178l36.781-14.39a5.888 5.888 0 0 0 3.63-6.637L783.6 834.6a.919.919 0 0 1 1.021-1.095l41.938 5.362a.925.925 0 0 1 .781.7l1.876 8a7.76 7.76 0 0 1-4.383 8.772l-41.116 18.411a10.323 10.323 0 0 1-4.238.915zm6.192-40.171 1.6 8.077a7.719 7.719 0 0 1-4.764 8.714l-36.771 14.39a.342.342 0 0 0 .058.64l32.014 6.329a8.5 8.5 0 0 0 5.158-.586l41.128-18.389a5.9 5.9 0 0 0 3.342-6.669l-1.732-7.382z" transform="translate(-605.192 -421.047)" style="fill:#8eb7e1"/>
        <rect data-name="Rectangle 41321" width="5.628" height="10.654" rx="2.814" transform="translate(139.036 444.074)" style="fill:#8eb7e1"/>
        <path data-name="Path 67406" d="M400.16 925.528v6.62l.445-.314v-6.844z" transform="translate(-261.123 -478.64)" style="fill:#81aed8"/>
        <path data-name="Path 67407" d="M745.792 942.2a3.666 3.666 0 0 1 4.024 1.876c1.277 2.516-2.513 6.829-3.451 7a3.276 3.276 0 0 1-3.522-1.687c-.81-1.655.836-6.294 2.949-7.189z" transform="translate(-604.492 -494.897)" style="fill:#0c2a3d"/>
        <ellipse data-name="Ellipse 1767" cx="4.274" cy="2.843" rx="4.274" ry="2.843" transform="rotate(-69.58 395.359 128.792)" style="fill:#0c2a3d"/>
        <ellipse data-name="Ellipse 1768" cx="4.274" cy="2.843" rx="4.274" ry="2.843" transform="rotate(-69.58 396.712 127.853)" style="fill:#0c2a3d"/>
        <ellipse data-name="Ellipse 1769" cx="3.57" cy="2.372" rx="3.57" ry="2.372" transform="rotate(-69.57 396.814 127.108)" style="fill:#1c4463"/>
        <path data-name="Path 67408" d="M741.929 940.363v-.093a.228.228 0 0 0 0 .093z" transform="translate(-604.009 -493.637)" style="fill:#5c5c5c"/>
        <path data-name="Path 67409" d="M748.244 932.28a2.8 2.8 0 0 0-2.814 2.769l.445.868a1.165 1.165 0 0 1 2.331 0l.038 5.458c0 1.54 2.683.455 2.817-1.21v-5.122a2.8 2.8 0 0 0-2.817-2.763z" transform="translate(-606.394 -488.205)" style="fill:#81aed8"/>
        <path data-name="Path 67410" d="M918.533 679.308h-.058l-44.445-2.945a.855.855 0 0 1-.64-.343.845.845 0 0 1-.147-.7c1.9-8.263 4.3-13.574 7.344-16.234a.861.861 0 0 1 .615-.208l44.634 2.6a.858.858 0 0 1 .618 1.4 33.217 33.217 0 0 0-7.075 15.722.858.858 0 0 1-.846.708zm-43.382-4.591 42.672 2.827a34.819 34.819 0 0 1 6.291-14.467l-42.64-2.471c-2.504 2.362-4.627 7.106-6.323 14.111z" transform="translate(-693.273 -302.328)" style="fill:#8eb7e1"/>
        <path data-name="Path 67411" d="M941.6 659.066c-.147-.429-.422-.864-.845-.909l-40.363-2.507c-1.7.32-1.7 3.714-.23 3.81l40.363 2.507a1.371 1.371 0 0 0 1-1.031c-.774-.029-.972-1.854.075-1.87z" transform="translate(-710.856 -300.138)" style="fill:#3f78a0"/>
        <rect data-name="Rectangle 41322" width="6.108" height="11.563" rx="3.054" transform="translate(178.395 450.883)" style="fill:#8eb7e1"/>
        <path data-name="Path 67412" d="M523.1 947.453v7.184l.483-.339v-7.428z" transform="translate(-344.705 -493.514)" style="fill:#81aed8"/>
        <path data-name="Path 67413" d="M868.72 964.308a3.962 3.962 0 0 1 4.367 2.036c1.386 2.74-2.727 7.414-3.742 7.59a3.6 3.6 0 0 1-3.842-1.828c-.903-1.79.921-6.822 3.217-7.798z" transform="translate(-687.867 -509.926)" style="fill:#0c2a3d"/>
        <ellipse data-name="Ellipse 1770" cx="4.636" cy="3.083" rx="4.636" ry="3.083" transform="rotate(-69.58 420.469 104.451)" style="fill:#0c2a3d"/>
        <ellipse data-name="Ellipse 1771" cx="4.636" cy="3.083" rx="4.636" ry="3.083" transform="rotate(-69.58 421.941 103.43)" style="fill:#0c2a3d"/>
        <ellipse data-name="Ellipse 1772" cx="3.874" cy="2.574" rx="3.874" ry="2.574" transform="rotate(-69.58 421.926 102.627)" style="fill:#1c4463"/>
        <path data-name="Path 67414" d="M864.585 962.312v-.1a.564.564 0 0 0 0 .1z" transform="translate(-687.401 -508.555)" style="fill:#5c5c5c"/>
        <path data-name="Path 67415" d="M871.427 953.55a3.041 3.041 0 0 0-3.057 3.006l.483.941a1.265 1.265 0 0 1 2.529 0l.045 5.922c0 1.671 2.907.493 3.054-1.312v-5.551a3.038 3.038 0 0 0-3.054-3.006z" transform="translate(-689.976 -502.667)" style="fill:#81aed8"/>
        <rect data-name="Rectangle 41323" width="5.023" height="9.508" rx="2.511" transform="translate(176.813 427.981)" style="fill:#8eb7e1"/>
        <path data-name="Path 67416" d="M518.16 874.44v5.907l.4-.282v-6.105z" transform="translate(-341.347 -443.947)" style="fill:#b3b3b3"/>
        <path data-name="Path 67417" d="M863.718 890.858a3.259 3.259 0 0 1 3.592 1.674c1.14 2.254-2.241 6.083-3.08 6.243a2.938 2.938 0 0 1-3.156-1.5c-.737-1.475.758-5.613 2.644-6.417z" transform="translate(-684.885 -459.998)" style="fill:#0c2a3d"/>
        <ellipse data-name="Ellipse 1773" cx="3.813" cy="2.536" rx="3.813" ry="2.536" transform="rotate(-69.58 401.99 92.826)" style="fill:#0c2a3d"/>
        <ellipse data-name="Ellipse 1774" cx="3.813" cy="2.536" rx="3.813" ry="2.536" transform="rotate(-69.58 403.195 91.986)" style="fill:#0c2a3d"/>
        <ellipse data-name="Ellipse 1775" cx="3.185" cy="2.116" rx="3.185" ry="2.116" transform="rotate(-69.57 403.3 91.313)" style="fill:#1c4463"/>
        <path data-name="Path 67418" d="M860.318 889.22v-.08a.674.674 0 0 0 0 .08z" transform="translate(-684.5 -458.877)" style="fill:#5c5c5c"/>
        <path data-name="Path 67419" d="M865.943 882a2.5 2.5 0 0 0-2.513 2.472l.4.775a1.039 1.039 0 1 1 2.078 0l.035 4.869c0 1.373 2.391.407 2.51-1.079v-4.562a2.5 2.5 0 0 0-2.51-2.475z" transform="translate(-686.617 -454.021)" style="fill:#81aed8"/>
        <rect data-name="Rectangle 41324" width="5.564" height="10.529" rx="2.782" transform="translate(219.378 433.982)" style="fill:#8eb7e1"/>
        <path data-name="Path 67420" d="M651.12 893.921v6.544l.439-.31v-6.765z" transform="translate(-431.742 -457.158)" style="fill:#81aed8"/>
        <path data-name="Path 67421" d="M996.7 910.564a3.609 3.609 0 0 1 3.976 1.854c1.261 2.494-2.484 6.745-3.409 6.912a3.273 3.273 0 0 1-3.5-1.665c-.82-1.63.842-6.212 2.933-7.101z" transform="translate(-775.083 -473.392)" style="fill:#0c2a3d"/>
        <ellipse data-name="Ellipse 1776" cx="4.223" cy="2.808" rx="4.223" ry="2.808" transform="rotate(-69.58 428.191 65.85)" style="fill:#0c2a3d"/>
        <ellipse data-name="Ellipse 1777" cx="4.223" cy="2.808" rx="4.223" ry="2.808" transform="rotate(-69.58 429.527 64.92)" style="fill:#0c2a3d"/>
        <ellipse data-name="Ellipse 1778" cx="3.525" cy="2.343" rx="3.525" ry="2.343" transform="rotate(-69.58 429.51 64.185)" style="fill:#1c4463"/>
        <path data-name="Path 67422" d="M992.937 908.743v-.093a.9.9 0 0 0 0 .093z" transform="translate(-774.663 -472.142)" style="fill:#5c5c5c"/>
        <path data-name="Path 67423" d="M999.172 900.76a2.769 2.769 0 0 0-2.782 2.737l.439.858a1.152 1.152 0 0 1 2.3 0l-.516 5.225c0 1.521 3.2.618 3.336-1.024V903.5a2.769 2.769 0 0 0-2.782-2.737z" transform="translate(-777.011 -466.778)" style="fill:#81aed8"/>
        <path data-name="Path 67424" d="M910.576 755.226h-.048l-45.761-5.65a.391.391 0 0 1-.339-.416l2.981-40.194a.384.384 0 0 1 .413-.359l45.77 2.942a.385.385 0 0 1 .269.131.405.405 0 0 1 .1.285l-2.98 42.9a.384.384 0 0 1-.387.362zm-45.345-6.377 44.983 5.551 2.926-42.1-44.986-2.881z" transform="translate(-687.294 -336.14)" style="fill:#8eb7e1"/>
        <path data-name="Rectangle 41325" transform="rotate(-85.31 299.26 95.583)" style="fill:#8eb7e1" d="M0 0h.467v45.918H0z"/>
        <path data-name="Rectangle 41326" transform="rotate(-84.56 309.311 101.96)" style="fill:#8eb7e1" d="M0 0h.467v45.995H0z"/>
        <path data-name="Path 67425" d="M879.564 750.957a.124.124 0 0 1-.086-.043.126.126 0 0 1-.03-.091l3.342-40.491a.125.125 0 0 1 .134-.112.122.122 0 0 1 .115.134l-3.352 40.488a.128.128 0 0 1-.123.115z" transform="translate(-697.508 -337.237)" style="fill:#8eb7e1"/>
        <path data-name="Path 67426" d="M897.994 752.51a.125.125 0 0 1-.115-.134l3.285-40.831a.125.125 0 0 1 .25.019l-3.294 40.831a.125.125 0 0 1-.125.115z" transform="translate(-710.038 -338.058)" style="fill:#8eb7e1"/>
        <path data-name="Path 67427" d="M916.761 754.075a.125.125 0 0 1-.112-.134l3.2-41.186a.125.125 0 1 1 .25.019l-3.227 41.186a.125.125 0 0 1-.115.115z" transform="translate(-722.798 -338.881)" style="fill:#8eb7e1"/>
        <path data-name="Path 67428" d="M935.754 755.695a.125.125 0 0 1-.115-.134l3.163-41.535a.131.131 0 0 1 .134-.115.124.124 0 0 1 .115.134l-3.163 41.535a.128.128 0 0 1-.134.115z" transform="translate(-735.709 -339.745)" style="fill:#8eb7e1"/>
        <path data-name="Path 67429" d="M955.164 757.332a.125.125 0 0 1-.115-.134l3.1-41.893a.125.125 0 0 1 .134-.115.128.128 0 0 1 .115.134l-3.109 41.893a.128.128 0 0 1-.125.115z" transform="translate(-748.904 -340.615)" style="fill:#8eb7e1"/>
        <path data-name="Path 67430" d="M974.875 759a.128.128 0 0 1-.115-.134l3.032-42.259a.125.125 0 0 1 .25.016l-3.032 42.258a.128.128 0 0 1-.135.119z" transform="translate(-762.305 -341.498)" style="fill:#8eb7e1"/>
        <path data-name="Path 67431" d="M994.918 760.647a.125.125 0 0 1-.118-.131l2.945-42.633a.125.125 0 1 1 .246.016l-2.961 42.633a.122.122 0 0 1-.112.115z" transform="translate(-775.93 -342.354)" style="fill:#8eb7e1"/>
        <path data-name="Path 67432" d="m926.61 749.524-21.59-1.873a1.447 1.447 0 0 1-1.32-1.551l.986-12.988 24.417 1.649-.925 13.423a1.447 1.447 0 0 1-1.569 1.341z" transform="translate(-713.992 -352.798)" style="fill:#8eb7e1"/>
        <path data-name="Path 67433" d="M737.8 800.073a.125.125 0 0 1-.125-.112l-4.021-36.675a.125.125 0 0 1 .109-.138.121.121 0 0 1 .138.109l4.024 36.678a.128.128 0 0 1-.112.138z" transform="translate(-598.39 -373.217)" style="fill:#8eb7e1"/>
        <path data-name="Path 67434" d="M749.944 795.486a.125.125 0 0 1-.125-.112l-3.406-36.989a.125.125 0 1 1 .246-.026l3.409 36.989a.125.125 0 0 1-.115.138z" transform="translate(-607.06 -369.879)" style="fill:#8eb7e1"/>
        <path data-name="Path 67435" d="M762.143 790.948a.125.125 0 0 1-.125-.115l-2.789-37.3a.125.125 0 0 1 .115-.131.122.122 0 0 1 .134.112l2.788 37.3a.125.125 0 0 1-.115.135z" transform="translate(-615.775 -366.591)" style="fill:#8eb7e1"/>
        <path data-name="Path 67436" d="M774.4 786.37a.125.125 0 0 1-.125-.118l-2.164-37.616a.125.125 0 0 1 .25 0l2.164 37.62a.128.128 0 0 1-.118.131z" transform="translate(-624.532 -363.268)" style="fill:#8eb7e1"/>
        <path data-name="Path 67437" d="M786.712 781.735a.125.125 0 0 1-.125-.118l-1.53-37.924a.125.125 0 1 1 .246 0l1.533 37.94a.125.125 0 0 1-.122.128z" transform="translate(-633.333 -359.895)" style="fill:#8eb7e1"/>
        <path data-name="Path 67438" d="M799.078 777.106a.122.122 0 0 1-.122-.122l-.9-38.257a.125.125 0 0 1 .122-.128.128.128 0 0 1 .128.122l.893 38.26a.125.125 0 0 1-.122.128z" transform="translate(-642.174 -356.532)" style="fill:#8eb7e1"/>
        <path data-name="Path 67439" d="M811.508 772.443a.125.125 0 0 1-.125-.125l-.253-38.583a.122.122 0 0 1 .122-.125.122.122 0 0 1 .125.125l.253 38.583a.121.121 0 0 1-.122.125z" transform="translate(-651.06 -353.138)" style="fill:#8eb7e1"/>
        <path data-name="Path 67440" d="M823.145 767.773a.125.125 0 0 1-.125-.125l.4-38.907a.122.122 0 0 1 .122-.122.122.122 0 0 1 .122.125l-.391 38.9a.125.125 0 0 1-.128.129z" transform="translate(-659.143 -349.747)" style="fill:#8eb7e1"/>
        <path data-name="Path 67441" d="M834.3 763.093a.128.128 0 0 1-.122-.128l1.047-39.224a.121.121 0 0 1 .128-.122.125.125 0 0 1 .122.128l-1.034 39.223a.125.125 0 0 1-.141.122z" transform="translate(-666.731 -346.347)" style="fill:#8eb7e1"/>
        <path data-name="Path 67442" d="M845.508 758.29a.125.125 0 0 1-.118-.131l1.709-39.566a.125.125 0 1 1 .246 0l-1.706 39.569a.125.125 0 0 1-.131.128z" transform="translate(-674.352 -342.829)" style="fill:#8eb7e1"/>
        <path data-name="Path 67443" d="M856.748 753.595a.128.128 0 0 1-.118-.131l2.359-39.9a.125.125 0 1 1 .25.016l-2.366 39.9a.125.125 0 0 1-.125.115z" transform="translate(-681.994 -339.429)" style="fill:#8eb7e1"/>
        <path data-name="Path 67444" d="M725.441 764.5a.39.39 0 0 1-.387-.343l-4.45-36.438a.387.387 0 0 1 .246-.41l49.023-18.69a.387.387 0 0 1 .528.394l-2.98 40.194a.39.39 0 0 1-.256.339l-41.593 14.934a.492.492 0 0 1-.131.02zm-4.027-36.57 4.354 35.651 40.9-14.682 2.913-39.329z" transform="translate(-589.513 -336.132)" style="fill:#8eb7e1"/>
        <path data-name="Rectangle 41327" transform="rotate(-20.45 1186.558 -168.773)" style="fill:#8eb7e1" d="M0 0h49.953v.469H0z"/>
        <path data-name="Rectangle 41328" transform="rotate(-20.28 1230.175 -167.911)" style="fill:#8eb7e1" d="M0 0h46.862v.467H0z"/>
        <path data-name="Path 67445" d="M787.854 885.133h-.022l-41.052-7.322a.128.128 0 0 1-.1-.144.125.125 0 0 1 .147-.1l41.068 7.322a.125.125 0 0 1-.022.247z" transform="translate(-607.24 -451.005)" style="fill:#8eb7e1"/>
        <path data-name="Path 67446" d="M799.549 880.944h-.019l-41.471-7.171a.125.125 0 1 1 .042-.247l41.487 7.168a.125.125 0 0 1-.022.25z" transform="translate(-614.909 -448.261)" style="fill:#8eb7e1"/>
        <path data-name="Path 67447" d="M811.233 876.73h-.019l-41.874-7.03a.125.125 0 1 1 .042-.243l41.874 7.024a.126.126 0 0 1-.022.25z" transform="translate(-622.565 -445.491)" style="fill:#8eb7e1"/>
        <path data-name="Path 67448" d="m822.984 872.541-42.284-6.883a.125.125 0 0 1-.1-.141.122.122 0 0 1 .144-.1l42.275 6.877a.125.125 0 0 1-.019.25z" transform="translate(-630.302 -442.745)" style="fill:#8eb7e1"/>
        <path data-name="Path 67449" d="M834.716 868.367h-.016l-42.678-6.723a.122.122 0 0 1-.1-.141.125.125 0 0 1 .141-.106l42.678 6.723a.124.124 0 0 1-.019.246z" transform="translate(-637.997 -440.016)" style="fill:#8eb7e1"/>
        <path data-name="Path 67450" d="m846.427 864.148-43.094-6.585a.128.128 0 0 1-.106-.144.121.121 0 0 1 .141-.1l43.078 6.585a.125.125 0 0 1 .106.141.128.128 0 0 1-.125.103z" transform="translate(-645.687 -437.24)" style="fill:#8eb7e1"/>
        <path data-name="Path 67451" d="M858.14 859.925h-.019l-43.478-6.451a.124.124 0 1 1 .035-.246l43.478 6.438a.125.125 0 0 1 0 .247z" transform="translate(-653.377 -434.461)" style="fill:#8eb7e1"/>
        <path data-name="Path 67452" d="M869.85 855.765h-.019l-43.878-6.291a.122.122 0 0 1-.106-.141.125.125 0 0 1 .141-.106l43.878 6.291a.124.124 0 0 1-.016.246z" transform="translate(-661.065 -431.741)" style="fill:#8eb7e1"/>
        <path data-name="Path 67453" d="M881.569 851.607h-.016l-44.282-6.131a.125.125 0 0 1 .035-.246l44.279 6.127a.125.125 0 0 1 .109.141.131.131 0 0 1-.125.109z" transform="translate(-668.766 -429.024)" style="fill:#8eb7e1"/>
        <path data-name="Path 67454" d="m893.251 847.374-44.695-6a.122.122 0 0 1-.109-.138.125.125 0 0 1 .141-.109l44.679 6a.125.125 0 0 1-.016.247z" transform="translate(-676.43 -426.235)" style="fill:#8eb7e1"/>
        <path data-name="Path 67455" d="M904.988 843.188h-.016l-45.1-5.852a.125.125 0 0 1 .032-.247l45.082 5.852a.125.125 0 0 1 0 .247z" transform="translate(-684.133 -423.489)" style="fill:#8eb7e1"/>
        <path data-name="Rectangle 41329" transform="rotate(-19.83 1303.943 -209.862)" style="fill:#8eb7e1" d="M0 0h45.377v.467H0z"/>
        <path data-name="Rectangle 41330" transform="rotate(-20.36 1285.651 -238.186)" style="fill:#8eb7e1" d="M0 0h46.039v.467H0z"/>
        <path data-name="Path 67456" d="M776.231 856.793a.454.454 0 0 1-.093 0l-41.676-7.11a.544.544 0 0 1-.093-1.05l41.6-14.931a.546.546 0 0 1 .25-.029l45.761 5.65a.544.544 0 0 1 .115 1.053l-45.674 16.385a.613.613 0 0 1-.19.032zm-39.537-7.837 39.489 6.723 43.382-15.562-43.353-5.346z" transform="translate(-598.627 -421.163)" style="fill:#8eb7e1"/>
        <path data-name="Path 67457" d="m444.1 790.3-21.4-4.511V761.16l21.4 3.874z" transform="translate(-276.447 -367.26)" style="fill:#deb275"/>
        <path data-name="Path 67458" d="m422.7 751.207 8.878-2.878 6.585-1.809 20.374 3.474-14.437 5.087z" transform="translate(-276.447 -357.305)" style="fill:#fecd8d"/>
        <path data-name="Path 67459" d="m489.55 787.726 14.128-5.887.307-24.468-14.435 5.087z" transform="translate(-321.896 -364.682)" style="fill:#deb275"/>
        <path data-name="Path 67460" d="m816.688 770.37-21.059-3.842a.039.039 0 0 1-.027-.017.044.044 0 0 1 .01-.057.039.039 0 0 1 .029-.007l21.059 3.843a.039.039 0 0 1 .025.016.044.044 0 0 1-.008.057.039.039 0 0 1-.029.007z" transform="translate(-640.499 -375.463)" style="fill:#b38459"/>
        <path data-name="Path 67461" d="M835.106 777.17a.042.042 0 0 1 0-.08l14.256-5.013a.041.041 0 0 1 .047 0 .042.042 0 0 1-.021.075l-14.269 5.017z" transform="translate(-667.34 -379.285)" style="fill:#b38459"/>
        <path data-name="Path 67462" d="m447.05 751.753 20.841 3.915v5.532l2.151-1.012.154-5.3-20.639-3.864z" transform="translate(-293.002 -360.365)" style="fill:#fff"/>
        <path data-name="Path 67463" d="m538.921 792.4-21.4-4.511V763.26l21.4 3.874z" transform="translate(-340.912 -368.686)" style="fill:#deb275"/>
        <path data-name="Path 67464" d="m517.52 753.307 8.874-2.878 6.585-1.809 20.377 3.473-14.435 5.087z" transform="translate(-340.912 -358.733)" style="fill:#fecd8d"/>
        <path data-name="Path 67465" d="m584.37 789.826 14.128-5.887.307-24.468-14.435 5.087z" transform="translate(-386.361 -366.109)" style="fill:#e9bb7e"/>
        <path data-name="Path 67466" d="m911.5 772.471-21.059-3.842a.041.041 0 0 1 .016-.08l21.059 3.842a.039.039 0 0 1 .026.016.038.038 0 0 1 .006.029.041.041 0 0 1-.016.028.042.042 0 0 1-.032.007z" transform="translate(-704.959 -376.892)" style="fill:#b38459"/>
        <path data-name="Path 67467" d="M929.915 779.238a.045.045 0 0 1-.038-.029.042.042 0 0 1 .026-.051l14.253-5.013a.038.038 0 0 1 .031 0 .039.039 0 0 1 .02.024.038.038 0 0 1 0 .03.038.038 0 0 1-.022.021l-14.269 5.013z" transform="translate(-731.79 -380.693)" style="fill:#b38459"/>
        <path data-name="Path 67468" d="m541.87 753.853 20.841 3.915v5.532l2.151-1.012.15-5.3-20.639-3.864z" transform="translate(-357.467 -361.792)" style="fill:#fff"/>
        <path data-name="Path 67469" d="m533.914 764.195 12.185-3.1-24.488-.829v3.275l-4.091-.9v23.21l14.426 2.625z" transform="translate(-340.912 -366.653)" style="fill:#010101;opacity:.2"/>
        <path data-name="Path 67470" d="m472.038 812.8-21.4-4.511V783.66l21.4 3.874z" transform="translate(-295.443 -382.555)" style="fill:#e9bb7e"/>
        <path data-name="Path 67471" d="m450.64 773.707 8.874-2.878 6.585-1.809 20.377 3.474-14.438 5.087z" transform="translate(-295.443 -372.6)" style="fill:#fecd8d"/>
        <path data-name="Path 67472" d="m517.48 810.226 14.131-5.887.307-24.468-14.438 5.087z" transform="translate(-340.885 -379.978)" style="fill:#deb275"/>
        <path data-name="Path 67473" d="m844.62 792.871-21.059-3.842a.042.042 0 0 1-.032-.048.045.045 0 0 1 .048-.032l21.056 3.842a.035.035 0 0 1 .032.045.039.039 0 0 1-.045.035z" transform="translate(-659.49 -390.762)" style="fill:#b38459"/>
        <path data-name="Path 67474" d="M863.025 799.638a.045.045 0 0 1-.038-.029.042.042 0 0 1 .026-.051l14.253-5.013a.038.038 0 0 1 .051.026.038.038 0 0 1 0 .03.038.038 0 0 1-.022.021l-14.256 5.013z" transform="translate(-686.314 -394.564)" style="fill:#b38459"/>
        <path data-name="Path 67475" d="m474.98 774.253 20.844 3.915v5.532l2.151-1.012.151-5.3-20.639-3.864z" transform="translate(-311.992 -375.662)" style="fill:#fff"/>
        <path data-name="Path 67476" d="M450.64 778.256h13.86l1.866-1.7 12.265-5.273-12.531-2.263-15.46 4.687z" transform="translate(-295.443 -372.6)" style="fill:#010101;opacity:.2"/>
        <path data-name="Path 67477" d="M738.948 806.258a.125.125 0 0 1-.122-.112l-4.37-36.63a.118.118 0 0 1 .109-.138.122.122 0 0 1 .138.109l4.37 36.63a.125.125 0 0 1-.109.141z" transform="translate(-598.932 -377.455)" style="fill:#8eb7e1"/>
        <path data-name="Path 67478" d="M756.155 808.6a.121.121 0 0 1-.125-.109l-4.162-36.874a.126.126 0 0 1 .25-.029l4.159 36.874a.122.122 0 0 1-.109.138z" transform="translate(-610.77 -378.878)" style="fill:#8eb7e1"/>
        <path data-name="Path 67479" d="M773.7 810.949a.125.125 0 0 1-.125-.112l-3.912-37.13a.125.125 0 0 1 .112-.138.128.128 0 0 1 .138.112l3.912 37.13a.125.125 0 0 1-.112.138z" transform="translate(-622.865 -380.304)" style="fill:#8eb7e1"/>
        <path data-name="Path 67480" d="M791.476 813.392a.128.128 0 0 1-.125-.115l-3.672-37.367a.125.125 0 0 1 .25-.022l3.672 37.367a.125.125 0 0 1-.112.135z" transform="translate(-635.117 -381.803)" style="fill:#8eb7e1"/>
        <path data-name="Path 67481" d="M809.543 815.842a.125.125 0 0 1-.125-.112L806 778.11a.125.125 0 1 1 .25-.022l3.422 37.62a.125.125 0 0 1-.112.134z" transform="translate(-647.572 -383.298)" style="fill:#8eb7e1"/>
        <path data-name="Path 67482" d="M827.886 818.341a.122.122 0 0 1-.122-.115l-3.164-37.873a.123.123 0 0 1 .028-.091.124.124 0 0 1 .219.068l3.166 37.873a.122.122 0 0 1-.112.134z" transform="translate(-660.216 -384.825)" style="fill:#8eb7e1"/>
        <path data-name="Path 67483" d="M846.61 820.835a.128.128 0 0 1-.125-.115l-2.885-38.133a.125.125 0 1 1 .247-.019l2.868 38.145a.122.122 0 0 1-.115.131z" transform="translate(-673.136 -386.334)" style="fill:#8eb7e1"/>
        <path data-name="Path 67484" d="M767.117 811.3h-.064l-41.679-7.107a.387.387 0 0 1-.32-.336l-4.45-36.438a.384.384 0 0 1 .112-.32.374.374 0 0 1 .32-.112l43.606 5.244a.39.39 0 0 1 .343.362l2.52 38.292a.394.394 0 0 1-.125.32.4.4 0 0 1-.263.095zm-41.327-7.815 40.908 6.969-2.468-37.476-42.793-5.161z" transform="translate(-589.514 -375.826)" style="fill:#8eb7e1"/>
        <path data-name="Rectangle 41331" transform="rotate(-81.36 301.208 124.213)" style="fill:#8eb7e1" d="M0 0h.467v43.398H0z"/>
        <path data-name="Rectangle 41332" transform="rotate(-81.36 309.526 129.984)" style="fill:#8eb7e1" d="M0 0h.467v42.732H0z"/>
        <path data-name="Path 67485" d="M859.724 777.861a.4.4 0 0 1-.214-.064.384.384 0 0 1-.173-.3l-2.52-38.292a.381.381 0 0 1 .24-.384l51.174-20.992a.391.391 0 0 1 .538.387l-2.981 42.9a.387.387 0 0 1-.256.339l-45.677 16.385a.364.364 0 0 1-.131.021zm-2.113-38.417 2.465 37.485 44.951-16.122 2.92-42.022z" transform="translate(-682.12 -342.39)" style="fill:#8eb7e1"/>
        <path data-name="Rectangle 41333" transform="rotate(-21.93 1144.448 -249.077)" style="fill:#8eb7e1" d="M0 0h53.217v.467H0z"/>
        <path data-name="Rectangle 41334" transform="rotate(-21.1 1222.43 -263.3)" style="fill:#8eb7e1" d="M0 0h50.902v.467H0z"/>
        <path data-name="Path 67486" d="M872.3 818.007a.122.122 0 0 1-.122-.115l-2.6-38.462a.125.125 0 0 1 .25-.016l2.6 38.458a.125.125 0 0 1-.115.134z" transform="translate(-690.798 -384.2)" style="fill:#8eb7e1"/>
        <path data-name="Path 67487" d="M884.694 813.123a.128.128 0 0 1-.125-.115l-2.129-38.843a.125.125 0 1 1 .25 0L884.819 813a.122.122 0 0 1-.118.131z" transform="translate(-699.541 -380.624)" style="fill:#8eb7e1"/>
        <path data-name="Path 67488" d="M897.234 808.173a.125.125 0 0 1-.125-.118l-1.649-39.23a.125.125 0 1 1 .25 0l1.649 39.227a.125.125 0 0 1-.118.131z" transform="translate(-708.393 -376.995)" style="fill:#8eb7e1"/>
        <path data-name="Path 67489" d="M909.864 803.177a.128.128 0 0 1-.125-.122l-1.159-39.62a.125.125 0 0 1 .25 0l1.165 39.611a.125.125 0 0 1-.122.131z" transform="translate(-717.313 -373.33)" style="fill:#8eb7e1"/>
        <path data-name="Path 67490" d="M922.644 798.117a.128.128 0 0 1-.125-.122l-.66-40.017a.125.125 0 0 1 .122-.128.121.121 0 0 1 .128.122l.659 40.018a.125.125 0 0 1-.122.125z" transform="translate(-726.341 -369.618)" style="fill:#8eb7e1"/>
        <path data-name="Path 67491" d="M935.565 793.014a.125.125 0 0 1-.125-.125l-.15-40.424a.125.125 0 0 1 .125-.125.125.125 0 0 1 .125.125l.15 40.424a.128.128 0 0 1-.125.125z" transform="translate(-735.472 -365.873)" style="fill:#8eb7e1"/>
        <path data-name="Path 67492" d="M947.842 787.854a.122.122 0 0 1-.121-.125l.371-40.834a.128.128 0 0 1 .125-.125.128.128 0 0 1 .125.128l-.375 40.831a.122.122 0 0 1-.125.125z" transform="translate(-743.922 -362.084)" style="fill:#8eb7e1"/>
        <path data-name="Path 67493" d="M959.9 782.639a.125.125 0 0 1-.122-.125l.906-41.253a.122.122 0 0 1 .128-.122.128.128 0 0 1 .122.128l-.906 41.25a.125.125 0 0 1-.128.122z" transform="translate(-752.121 -358.257)" style="fill:#8eb7e1"/>
        <path data-name="Path 67494" d="M972.1 777.372a.125.125 0 0 1-.119-.128l1.447-41.676a.128.128 0 0 1 .128-.118.125.125 0 0 1 .122.128l-1.453 41.666a.125.125 0 0 1-.125.128z" transform="translate(-760.416 -354.39)" style="fill:#8eb7e1"/>
        <path data-name="Path 67495" d="M984.4 772.041a.125.125 0 0 1-.118-.131l2-42.1a.125.125 0 0 1 .25 0l-2.023 42.114a.125.125 0 0 1-.112.122z" transform="translate(-768.777 -350.466)" style="fill:#8eb7e1"/>
        <path data-name="Path 67496" d="M996.828 766.64a.125.125 0 0 1-.118-.131l2.561-42.543a.125.125 0 1 1 .25 0l-2.561 42.543a.126.126 0 0 1-.036.095.125.125 0 0 1-.096.036z" transform="translate(-777.227 -346.496)" style="fill:#8eb7e1"/>
        <path data-name="Path 67497" d="M1005.776 648.15a5.931 5.931 0 0 0-2.984 1.316c-.816.64-1.822 1.71-1.716 2.2s1.45-.474 1.6-.272-2.3 3.909-1.831 4.187 2.561-3.086 2.561-3.086-2.03 3.592-1.242 3.672c.64.064 2.455-3.333 2.455-3.333s-1.524 3.038-1 3.15 1.921-2.91 1.921-2.91-1.149 2.587-.707 2.632a5.434 5.434 0 0 0 1.831-2.824c.474-1.543 1.011-2.862.592-4.059" transform="translate(-780.001 -295.038)" style="fill:#fab189"/>
    </g>
</svg>
