<svg xmlns="http://www.w3.org/2000/svg" width="356" height="304.321" viewBox="0 0 356 304.321">
    <g data-name="Group 23725" transform="translate(-685.004 -364.178)">
        <g data-name="Group 23715">
            <path data-name="Ellipse 1763" d="M1.038-1A2.038 2.038 0 1 1-1 1.038 2.04 2.04 0 0 1 1.038-1zm0 2.781a.743.743 0 1 0-.743-.743.744.744 0 0 0 .743.743z" transform="translate(712.548 584.625)" style="fill:#d1e7f8"/>
            <path data-name="Ellipse 1764" d="M1.038-1A2.038 2.038 0 1 1-1 1.038 2.04 2.04 0 0 1 1.038-1zm0 2.781a.743.743 0 1 0-.743-.743.744.744 0 0 0 .743.743z" transform="translate(918.876 558.902)" style="fill:#d1e7f8"/>
            <path data-name="Ellipse 1765" d="M1.038-1A2.038 2.038 0 1 1-1 1.038 2.04 2.04 0 0 1 1.038-1zm0 2.781a.743.743 0 1 0-.743-.743.744.744 0 0 0 .743.743z" transform="translate(809.407 519.951)" style="fill:#d1e7f8"/>
            <path data-name="Line 8277" d="M-.353 3.439A.647.647 0 0 1-1 2.792V-.353A.647.647 0 0 1-.353-1a.647.647 0 0 1 .647.647v3.145a.647.647 0 0 1-.647.647z" transform="translate(841.526 545.205)" style="fill:#d1e7f8"/>
            <path data-name="Line 8278" d="M2.792.295H-.353A.647.647 0 0 1-1-.353.647.647 0 0 1-.353-1h3.145a.647.647 0 0 1 .647.647.647.647 0 0 1-.647.648z" transform="translate(839.953 546.778)" style="fill:#d1e7f8"/>
            <path data-name="Line 8279" d="M-.353 3.443A.647.647 0 0 1-1 2.8V-.353A.647.647 0 0 1-.353-1a.647.647 0 0 1 .647.647V2.8a.647.647 0 0 1-.647.643z" transform="translate(897.966 505.023)" style="fill:#d1e7f8"/>
            <path data-name="Line 8280" d="M2.792.295H-.353A.647.647 0 0 1-1-.353.647.647 0 0 1-.353-1h3.145a.647.647 0 0 1 .647.647.647.647 0 0 1-.647.648z" transform="translate(896.393 506.599)" style="fill:#d1e7f8"/>
            <path data-name="Line 8281" d="M-.353 3.439A.647.647 0 0 1-1 2.792V-.353A.647.647 0 0 1-.353-1a.647.647 0 0 1 .647.647v3.145a.647.647 0 0 1-.647.647z" transform="translate(985.286 589.854)" style="fill:#d1e7f8"/>
            <path data-name="Line 8282" d="M2.792.295H-.353A.647.647 0 0 1-1-.353.647.647 0 0 1-.353-1h3.145a.647.647 0 0 1 .647.647.647.647 0 0 1-.647.648z" transform="translate(983.713 591.425)" style="fill:#d1e7f8"/>
        </g>
        <path data-name="Path 67542" d="M775.015 878.317c-2.47-6.9-12.89-12.559-17.572-13.874-24.992-7.018-51.3-6.441-76.734-6.682-27.7-.26-54.222 5.544-81.738 8.022-14.307 1.281-29.358-1.593-43.661-2.481q-35.335-2.194-70.64-4.973c-20.3-1.6-41.433 1.068-59.612 16.4a15 15 0 0 0-5.141 7.018c-6.155 19.888 66.448 18.378 75.888 18.851 47.655 2.383 95.353 3.936 143.071 2.795 35.479-.845 72.432-.256 107.726-6.731 7.8-1.431 18.394-1.831 25.217-8.113 3.763-3.467 4.357-6.985 3.196-10.232z" transform="translate(265.456 -235.278)" style="fill:#e8f6fe"/>
        <rect data-name="Rectangle 41338" width="49.546" height=".305" rx=".153" transform="translate(819.312 665.219)" style="opacity:.38;fill:#8eb7e1"/>
        <rect data-name="Rectangle 41339" width="41.558" height=".305" rx=".153" transform="translate(824.624 660.315)" style="opacity:.38;fill:#8eb7e1"/>
        <rect data-name="Rectangle 41340" width="21.273" height=".305" rx=".153" transform="translate(865.276 656.101)" style="opacity:.38;fill:#8eb7e1"/>
        <rect data-name="Rectangle 41341" width="21.273" height=".305" rx=".153" transform="translate(836.817 662.011)" style="opacity:.38;fill:#8eb7e1"/>
        <path data-name="Path 67543" d="M1385.61 367.5h-.61v-1.29h.61z" transform="translate(-411.688 109.603)" style="fill:#d0e5f7"/>
        <path data-name="Path 67544" d="M639.086 466.077v-1.295h2.588v1.295zm-2.59 0h-2.59v-1.295h2.589zm-5.18-.009-2.59-.009.005-1.295 2.589.009zm12.95 0v-1.295l2.588-.009.005 1.295zm-18.129-.02-2.59-.014.008-1.295 2.588.014zm23.309 0-.007-1.295 2.588-.016.009 1.295zm-28.488-.029-2.59-.019.01-1.295 2.588.019zm33.668-.006-.01-1.295 2.588-.023.012 1.294zm-38.847-.035-2.59-.024.013-1.294 2.589.024zm44.027-.014-.014-1.294 2.588-.03.016 1.294zm-49.206-.036-2.59-.028.015-1.294 2.589.028zm54.386-.026-.018-1.294 2.588-.037.02 1.294zm-59.565-.032-2.59-.033.017-1.295 2.588.033zm64.745-.046-.021-1.294 2.588-.045.023 1.294zm-69.924-.022-2.589-.037.019-1.294 2.588.036zm75.1-.072-.025-1.294 2.588-.053.027 1.294zm-80.282 0-2.589-.04.021-1.294 2.588.04zm-5.178-.082-2.589-.044.022-1.294 2.588.043zm90.639-.024-.03-1.294 2.587-.061.031 1.294zm-95.818-.064-2.589-.047.024-1.294 2.588.047zm100.997-.06-.024-1.294c.757-.014 1.588-.027 2.469-.04h.122l.02 1.294h-.122c-.884.012-1.715.025-2.465.04zm-106.168-.039-2.589-.049.025-1.294 2.588.049zm111.345-.046-.023-1.294c.932-.016 1.778-.033 2.586-.052l.03 1.294c-.815.018-1.663.037-2.597.051zm-116.527-.055-2.588-.051.025-1.294 2.588.051zm121.708-.065-.039-1.295c.88-.026 1.749-.056 2.582-.088l.05 1.294c-.837.033-1.709.062-2.593.089zm-126.885-.037-2.589-.051.026-1.294 2.589.051zm-5.177-.1-2.589-.052.026-1.294 2.589.052zm137.249-.061-.062-1.293c.873-.042 1.741-.089 2.578-.138l.077 1.292c-.844.048-1.716.094-2.594.137zm-142.427-.044-2.589-.053.027-1.294 2.588.054zm-5.178-.109-2.589-.057.029-1.294 2.588.056zm-5.178-.115-2.589-.06.031-1.294 2.588.06zm157.967-.041-.093-1.291a255.1 255.1 0 0 0 2.572-.2l.111 1.29c-.842.067-1.713.136-2.59.199zm-163.145-.081-2.589-.064.033-1.294 2.588.065zm-5.178-.132-2.589-.07.036-1.294 2.587.07zm-5.178-.143-2.589-.076.039-1.294 2.587.076zm178.679-.093-.132-1.288c.869-.089 1.731-.185 2.562-.285l.155 1.285c-.838.101-1.708.197-2.584.287zm-183.857-.063-2.589-.083.043-1.294 2.587.083zm-5.177-.17-2.589-.091.047-1.294 2.586.091zm-5.177-.187-2.588-.1.051-1.294 2.586.1zm-5.177-.2-2.588-.11.056-1.293 2.586.11zm204.553 0-.181-1.282c.866-.122 1.722-.253 2.544-.389l.211 1.277c-.831.132-1.697.265-2.573.389zm-209.729-.224-2.588-.12.061-1.293 2.585.12zm-5.175-.246c-.864-.043-1.734-.087-2.587-.132l.067-1.293c.852.044 1.721.089 2.584.132zm-5.174-.27c-.863-.047-1.733-.1-2.587-.144l.074-1.292c.852.049 1.721.1 2.583.144zm225.22-.114-.246-1.271a79.224 79.224 0 0 0 2.513-.528l.287 1.262a96.38 96.38 0 0 1-2.554.532zm-230.393-.181c-.863-.051-1.733-.1-2.586-.158l.08-1.292c.852.053 1.721.106 2.583.157zm-5.169-.322a426.86 426.86 0 0 0-2.581-.153l.074-1.292c.841.048 1.734.1 2.589.153zm-5.168-.3c-.977-.058-1.8-.11-2.59-.164l.088-1.292c.786.053 1.605.105 2.579.163zM476 461.7c-.9-.073-1.768-.152-2.59-.235l.129-1.288c.814.082 1.678.16 2.567.233zm251 0-.336-1.25c.849-.228 1.675-.47 2.455-.719l.394 1.233c-.793.252-1.639.499-2.508.736zm-256.181-.521c-.887-.11-1.756-.23-2.583-.356l.2-1.28c.815.125 1.672.243 2.546.351zm-5.158-.795a61.282 61.282 0 0 1-2.56-.538l.294-1.261c.8.187 1.644.364 2.507.527zM732 460.09l-.466-1.208a33.268 33.268 0 0 0 2.334-1l.555 1.169c-.757.362-1.572.711-2.423 1.039zm-271.431-.906c-.867-.25-1.71-.52-2.5-.8l.436-1.219a40.5 40.5 0 0 0 2.426.779zm276.194-1.384-.669-1.108a18.638 18.638 0 0 0 2.054-1.426l.812 1.008a19.947 19.947 0 0 1-2.197 1.526zm-281.148-.4a27.486 27.486 0 0 1-2.366-1.194l.64-1.125c.7.4 1.461.782 2.255 1.137zm-4.6-2.642a18.748 18.748 0 0 1-2.023-1.722l-.016-.016.91-.921.015.015a17.431 17.431 0 0 0 1.884 1.6zm289.9-.355-.983-.843a10.164 10.164 0 0 0 1.358-2.013l1.155.585a11.461 11.461 0 0 1-1.536 2.268zm-293.654-3.5a12.462 12.462 0 0 1-1.217-2.439l1.215-.447a11.156 11.156 0 0 0 1.091 2.185zm296.086-1.375-1.27-.253a9.532 9.532 0 0 0 .173-2.137c0-.094-.007-.188-.012-.28l1.293-.069c.006.1.01.207.013.311a10.826 10.826 0 0 1-.203 2.428zm-297.955-3.718a11.065 11.065 0 0 1 0-2.743l1.284.163a9.771 9.771 0 0 0 0 2.422zm296.425-1.335a8.09 8.09 0 0 0-1.043-2.149l1.068-.732a9.378 9.378 0 0 1 1.21 2.492zM447.292 440.9l-1.2-.493a10.583 10.583 0 0 1 1.371-2.384l1.03.785a9.293 9.293 0 0 0-1.201 2.092zm291.857-.351a12.753 12.753 0 0 0-2.031-1.39l.633-1.129a14.04 14.04 0 0 1 2.235 1.531zm-4.3-2.471a40.2 40.2 0 0 0-2.389-.885l.417-1.225c.969.33 1.752.62 2.465.914zm-284.662-1.015-.821-1a13.885 13.885 0 0 1 1.848-1.273c.136-.079.281-.156.432-.231l.573 1.161a6.225 6.225 0 0 0-.357.191 12.6 12.6 0 0 0-1.671 1.15zm279.833-.659c-.769-.229-1.6-.455-2.468-.672l.313-1.256a57.81 57.81 0 0 1 2.526.687zm-4.969-1.247a93.77 93.77 0 0 0-2.519-.5l.236-1.273c.882.163 1.741.334 2.553.507zm-270.521-.233-.307-1.258a26.827 26.827 0 0 1 2.608-.486l.179 1.282c-.915.127-1.75.282-2.476.46zm265.47-.71c-.82-.134-1.678-.266-2.552-.393l.186-1.281c.881.128 1.747.261 2.575.4zm-260.448-.026-.1-1.29c.8-.065 1.681-.119 2.608-.159l.057 1.293c-.917.039-1.778.092-2.567.155zm5.133-.236-.025-1.294c.8-.016 1.648-.025 2.6-.029l.006 1.295c-.948.003-1.792.012-2.583.028zm7.754-.022h-2.591v-1.295h2.588zm2.6-.014-.02-1.294a42.372 42.372 0 0 0 2.549-.1l.094 1.291c-.697.054-1.554.087-2.624.103zm5.244-.393-.191-1.28a26.406 26.406 0 0 0 2.479-.484l.313 1.256c-.801.199-1.677.37-2.602.508zm234.612-.053c-.83-.108-1.693-.214-2.566-.317l.151-1.286c.878.1 1.747.21 2.582.319zm-5.128-.6c-.835-.088-1.7-.176-2.571-.26l.124-1.289c.876.084 1.745.172 2.584.261zm-5.145-.5c-.838-.073-1.7-.146-2.574-.216l.1-1.29c.873.07 1.743.143 2.584.216zm-219.184-.184-.5-1.2a8.8 8.8 0 0 0 2.089-1.185l.806 1.013a10.08 10.08 0 0 1-2.396 1.374zm214.032-.229c-.841-.062-1.709-.122-2.58-.181l.087-1.292c.873.058 1.744.119 2.588.181zm-5.159-.346c-.843-.052-1.712-.1-2.582-.152l.073-1.293c.872.049 1.743.1 2.588.152zm-5.165-.291c-.844-.044-1.714-.087-2.583-.128l.061-1.293c.871.041 1.742.084 2.589.128zm-5.167-.245c-.845-.037-1.715-.073-2.585-.108l.052-1.294c.871.035 1.743.071 2.589.108zm-5.17-.206c-.846-.031-1.716-.061-2.586-.091l.043-1.294c.872.029 1.743.06 2.59.091zm-5.172-.174a816.85 816.85 0 0 0-2.587-.076l.036-1.294c.872.025 1.743.05 2.59.076zm-5.174-.146-2.587-.064.031-1.294 2.59.064zm-5.174-.124-2.588-.055.026-1.294 2.591.055zm-5.177-.1-2.587-.047.023-1.294 2.589.047zm-5.175-.09-2.59-.041.02-1.294 2.591.041zm-5.179-.08-2.586-.037.018-1.294 2.587.037zm-5.177-.074-2.59-.036.018-1.294 2.589.036zM637.4 430l-2.593-.039.02-1.294 2.592.039zm-5.178-.08-2.6-.046.024-1.294 2.593.046zm-5.184-.1c-.907-.019-1.778-.039-2.59-.06l.032-1.294c.81.02 1.68.04 2.585.06zm-5.185-.131c-.915-.028-1.788-.057-2.593-.088l.049-1.294c.8.03 1.672.06 2.584.087zm-5.186-.2c-.943-.046-1.817-.1-2.6-.15l.088-1.292c.772.053 1.638.1 2.573.149zm-5.2-.371a41.475 41.475 0 0 1-.622-.071c-.714-.087-1.418-.17-1.951-.233l.151-1.286c.535.063 1.241.146 1.958.234.19.023.392.046.6.069zm-5.145-.605c-1.007-.119-1.826-.22-2.576-.316l.165-1.284c.746.1 1.561.2 2.564.315zm-116.753-.052-1.232-.4a2.814 2.814 0 0 0-.161-2.06l1.183-.527a4.124 4.124 0 0 1 .214 2.995zm111.6-.617a96.916 96.916 0 0 1-2.574-.411l.222-1.275c.8.14 1.636.273 2.539.406zm-5.139-.905a57.668 57.668 0 0 1-2.549-.6l.326-1.253c.792.206 1.63.4 2.491.586zm-5.071-1.331a39.213 39.213 0 0 1-2.478-.887l.478-1.2c.764.3 1.57.592 2.4.858zm-104.176-1.453a11.08 11.08 0 0 0-1.974-1.435l.651-1.119a12.378 12.378 0 0 1 2.2 1.606zm99.284-.5c-.8-.392-1.583-.817-2.323-1.263l.668-1.109c.709.427 1.457.834 2.225 1.21zm-103.5-2.013a21.632 21.632 0 0 0-2.388-.78l.332-1.251a22.928 22.928 0 0 1 2.531.828zm98.976-.72a27.85 27.85 0 0 1-2.055-1.676l.866-.962c.621.559 1.28 1.1 1.957 1.6zm-103.833-.585a30.93 30.93 0 0 0-2.515-.3l.1-1.291a30.6 30.6 0 0 1 2.626.31zm99.924-3.038a14.51 14.51 0 0 1-1.505-2.249l1.14-.613a13.2 13.2 0 0 0 1.371 2.048zm-2.522-4.786a10.294 10.294 0 0 1-.314-1.785 11.486 11.486 0 0 1-.043-.939l1.294-.007c0 .274.015.555.039.837a8.979 8.979 0 0 0 .275 1.56zm1.234-5.122-1.251-.334a9.857 9.857 0 0 1 1.082-2.541l1.109.668a8.562 8.562 0 0 0-.938 2.216zm2.443-4.114-.919-.912a15.085 15.085 0 0 1 2.077-1.729l.74 1.062a13.79 13.79 0 0 0-1.896 1.586zm4.045-2.865-.6-1.15a27.962 27.962 0 0 1 2.412-1.1l.482 1.2c-.811.338-1.584.691-2.292 1.057zm4.692-1.9-.394-1.233c.8-.254 1.644-.5 2.523-.725l.324 1.253c-.854.225-1.679.462-2.451.709zm4.95-1.293-.278-1.264c.838-.184 1.692-.366 2.54-.542l.262 1.268c-.84.177-1.69.358-2.522.541zm5.055-1.046-.247-1.271c.841-.164 1.7-.325 2.552-.481l.232 1.274c-.845.158-1.698.319-2.535.481zm5.079-.927-.218-1.276c.844-.144 1.706-.286 2.561-.423l.2 1.278c-.843.14-1.701.281-2.54.424zm5.1-.814-.191-1.28c.846-.126 1.711-.25 2.569-.369l.178 1.282c-.851.121-1.711.245-2.554.37zm5.116-.709-.165-1.284c.848-.109 1.715-.216 2.575-.319l.153 1.285c-.854.105-1.716.212-2.56.321zm5.13-.612-.142-1.287c.849-.093 1.717-.185 2.58-.273l.131 1.288c-.856.091-1.725.182-2.566.275zm5.141-.522-.12-1.289c.85-.079 1.719-.157 2.584-.23l.11 1.29c-.859.076-1.725.154-2.571.232zm5.15-.44-.1-1.291c.85-.066 1.72-.131 2.587-.192l.091 1.291c-.861.065-1.725.13-2.576.196zm5.157-.365-.083-1.292c.85-.054 1.721-.108 2.588-.158l.075 1.292c-.863.054-1.731.107-2.578.161zm5.162-.3-.066-1.284c.849-.044 1.72-.087 2.59-.127l.06 1.293c-.867.034-1.736.078-2.582.123zm77.618-.144v-1.295c.874 0 1.743-.009 2.584-.019l.014 1.294c-.847.015-1.72.022-2.597.025zm-2.594 0c-.844 0-1.717-.008-2.593-.017l.012-1.294c.874.008 1.744.014 2.585.017zm-5.186-.049a663.78 663.78 0 0 1-2.592-.045l.026-1.294c.876.017 1.746.032 2.586.045zm12.968-.01-.025-1.294c.874-.017 1.743-.038 2.582-.063l.038 1.294c-.842.03-1.715.051-2.593.069zm-77.64-.038-.054-1.293c.848-.035 1.719-.069 2.59-.1l.047 1.294-2.581.104zm59.488-.054c-.834-.02-1.706-.042-2.59-.067l.036-1.294c.883.024 1.753.047 2.585.067zm23.342-.061-.052-1.294c.875-.035 1.742-.075 2.578-.119l.068 1.293c-.839.05-1.712.092-2.592.126zm-77.661-.075-.042-1.294c.846-.027 1.717-.054 2.59-.078l.037 1.294c-.87.025-1.74.056-2.586.083zm49.139-.006-2.59-.082.042-1.294 2.587.082zm-43.968-.141-.032-1.294c.842-.021 1.714-.041 2.591-.06l.028 1.294c-.874.024-1.744.044-2.585.065zm38.79-.027-1.619-.055-.97-.033.044-1.294.97.033 1.618.055zm38.887-.025-.086-1.292c.876-.058 1.742-.123 2.573-.193l.107 1.29c-.836.076-1.709.141-2.592.201zm-72.5-.06-.024-1.294a809.08 809.08 0 0 1 2.59-.045l.021 1.294c-.882.019-1.753.034-2.589.051zm5.175-.085-.018-1.294 2.59-.035.016 1.294zm23.266-.005c-.992-.032-1.838-.058-2.585-.079l.037-1.294c.749.021 1.6.047 2.591.08zm-18.09-.061-.015-1.294 2.59-.028.013 1.294zm5.177-.054-.013-1.294 2.415-.023h.174l.013 1.294h-.174zm7.745-.027a113.308 113.308 0 0 0-2.575-.023l-.007-1.295c.73 0 1.582 0 2.606.023zm54.415-.143-.133-1.288c.876-.09 1.736-.189 2.556-.292l.162 1.284a85.7 85.7 0 0 1-2.586.302zm5.17-.659-.2-1.279a71.757 71.757 0 0 0 2.527-.438l.245 1.271a61.53 61.53 0 0 1-2.573.452zm5.132-1-.3-1.258c.87-.21 1.7-.437 2.456-.673l.385 1.236c-.793.251-1.646.485-2.542.701zm5.032-1.594-.5-1.194a16.576 16.576 0 0 0 2.224-1.115l.674 1.105a17.855 17.855 0 0 1-2.399 1.211zm4.559-2.918-.946-.883a4.82 4.82 0 0 0 1.151-1.947l1.244.358a6.1 6.1 0 0 1-1.451 2.479zm.387-5.164a6.787 6.787 0 0 0-.611-2.271l1.174-.546a8.075 8.075 0 0 1 .727 2.7zm-1.938-4.264a12.153 12.153 0 0 0-1.814-1.651l.776-1.036a13.439 13.439 0 0 1 2.008 1.829zm-3.918-2.994a24.654 24.654 0 0 0-2.273-1.092l.5-1.193a25.975 25.975 0 0 1 2.393 1.15zm-4.649-1.98c-.779-.258-1.6-.5-2.443-.719l.326-1.253a40.4 40.4 0 0 1 2.524.743zm-4.931-1.29a49.12 49.12 0 0 0-2.518-.438l.19-1.281c.869.129 1.738.28 2.583.45zm-5.055-.749a47.293 47.293 0 0 0-2.548-.179l.056-1.293c.854.037 1.735.1 2.617.184z" transform="translate(240.938 109.513)" style="fill:#d0e5f7"/>
        <path data-name="Path 67545" d="M534.86 539.195h-.61V537.9h.61z" transform="translate(179.477 -9.699)" style="fill:#d0e5f7"/>
        <path data-name="Path 67546" d="m621.906 807.341 1.6 9.746-12.281 1.849 1.5-13.935z" transform="translate(254.001 -173.172)" style="fill:#f89f74"/>
        <path data-name="Path 67547" d="m746.954 808.4-12.324.04.839-8.489 9.145-3.237z" transform="translate(168.253 -167.411)" style="fill:#f89f74"/>
        <path data-name="Path 67548" d="M1019.62 557.884c.4-2.609 2.538-4.238 5-3.292l15.43 5.929a4.131 4.131 0 0 1 2.651 4c-.418 12.3-2.236 60.439-6.063 91.931a4.132 4.132 0 0 1-4.1 3.649c-2.316 0-1.162-.87-4.882-.87-5.517 0-3.833-2.52-3.863-4.324l-4.684-94.284c0-.232.873-1.846.915-2.078z" transform="translate(-157.44 -20.767)" style="fill:#26397a"/>
        <path data-name="Path 67549" d="M1098.407 610.269c1.916 14.97 7.393 30.513 8.278 43.557a3.5 3.5 0 0 1-2.746 3.662c-2.392.531-2.136 1.242-6.438.735-.976-.116-1.2-.818-1.339-1.7a11.888 11.888 0 0 0-.8-2.746l-16.33-38.476a11.578 11.578 0 0 1-.748-2.53l-6.9-39.5a11.618 11.618 0 0 0-.461-1.776l-.406-1.184a11.577 11.577 0 0 1 13.959-14.951 11.594 11.594 0 0 1 8.488 9.862c1.11 9.678 3.148 27.13 5.443 45.047z" transform="translate(-192.71 -21.202)" style="fill:#283f7f"/>
        <path data-name="Path 67550" d="M994.548 919.333h1.571l7.3-4.333 3.991 4.345h9.837a.449.449 0 0 1 .446.445v1.492a.305.305 0 0 1-.305.305H994.5a1.12 1.12 0 0 1-1.1-1.339 1.144 1.144 0 0 1 1.148-.915z" transform="translate(-139.561 -271.395)" style="fill:#f6ab49"/>
        <path data-name="Path 67551" d="m1000.071 914.274 8.354-3.7c3.356 3.274 7.18.567 7.18.567a3.5 3.5 0 0 1 4.177 1.093v4.04H997.16c.623-1.234 2.911-2 2.911-2z" transform="translate(-142.188 -268.315)" style="fill:#331a2c"/>
        <path data-name="Rectangle 41342" transform="translate(877.512 643.914)" style="fill:#010101" d="M0 0h.168v4.019H0z"/>
        <path data-name="Path 67552" d="m1048.591 912.21.095.137a6.172 6.172 0 0 1-3.466 1.065 4.306 4.306 0 0 1-.519-.028l.024-.165a5.94 5.94 0 0 0 3.866-1.009z" transform="translate(-175.223 -269.456)" style="fill:#010101"/>
        <path data-name="Path 67553" d="M999.025 914.345c1.678-.714 9.068-3.994 9.154-4.025l.067.153c-.076.034-7.466 3.311-9.154 4.028a3.889 3.889 0 0 0-2.1 1.626l-.153-.073a4.13 4.13 0 0 1 2.186-1.709z" transform="translate(-141.965 -268.142)" style="fill:#010101"/>
        <path data-name="Path 67554" d="m1122.971 914.218 1.526-.433 5.8-6.194 5.034 3.073 9.459-2.722a.445.445 0 0 1 .552.3l.412 1.431a.305.305 0 0 1-.21.375l-21.969 6.328a1.119 1.119 0 0 1-1.428-.985 1.147 1.147 0 0 1 .824-1.173z" transform="translate(-229.035 -266.245)" style="fill:#f6ab49"/>
        <path data-name="Path 67555" d="m1127.1 901.923 7.018-5.871c4.137 2.215 7.057-1.44 7.057-1.44a3.5 3.5 0 0 1 4.318-.107l1.117 3.881-21.74 6.258c.241-1.354 2.23-2.721 2.23-2.721z" transform="translate(-230.93 -256.654)" style="fill:#331a2c"/>
        <path data-name="Rectangle 41343" transform="rotate(-16.06 2718.002 -2922.134)" style="fill:#010101" d="M0 0h.168v4.019H0z"/>
        <path data-name="Path 67556" d="m1170.148 896.32.131.1a6.2 6.2 0 0 1-3.051 1.986 3.694 3.694 0 0 1-.5.116l-.024-.168a5.918 5.918 0 0 0 3.444-2.034z" transform="translate(-259.997 -258.414)" style="fill:#010101"/>
        <path data-name="Rectangle 41344" transform="rotate(-50.05 1143.703 -657.53)" style="fill:#010101" d="M0 0h1.288v.168H0z"/>
        <path data-name="Rectangle 41345" transform="rotate(-50.05 1143.348 -656.664)" style="fill:#010101" d="M0 0h1.288v.168H0z"/>
        <path data-name="Path 67557" d="m1122.688 914.806 21.737-6.255a.641.641 0 0 1 .8.439l.305 1.074-.159.046-.305-1.074a.473.473 0 0 0-.589-.326l-21.737 6.258a1.036 1.036 0 0 0-.137 1.94l-.07.153a1.205 1.205 0 0 1 .162-2.255z" transform="translate(-228.812 -266.895)" style="fill:#010101"/>
        <path data-name="Path 67558" d="M1126.089 907.408c1.416-1.153 7.628-6.346 7.674-6.408l.107.128c-.061.052-6.258 5.245-7.674 6.408a4 4 0 0 0-1.568 2.136l-.168-.027a4.14 4.14 0 0 1 1.629-2.237z" transform="translate(-230.645 -261.665)" style="fill:#010101"/>
        <path data-name="Path 67559" d="M979.448 337.3c.043 0-.751-.558-.711-.568.87-1.91 1.883-4.131 2.136-4.681a15.012 15.012 0 0 1 4.418-4.5c2.426-1.141 2 .058 2 .058 2.627-.952 1.7.915 1.7.915 2.279-1.059 1.739.864 1.739.864 1.282-.442 1.623-.058 1.681.336a.915.915 0 0 1-.272.79c-.381.384-1.22 1.22-2.136 2.087s-3.188.2-5.166 8.824l-3.268.516z" transform="translate(-129.385 137.153)" style="fill:#fab187"/>
        <path data-name="Path 67560" d="M1010.677 335.32a.14.14 0 0 0 .021.156.137.137 0 0 0 .189 0 16.127 16.127 0 0 1 2.136-1.574.138.138 0 0 0 .043-.183.134.134 0 0 0-.183-.043 16.3 16.3 0 0 0-2.169 1.608.136.136 0 0 0-.037.036z" transform="translate(-151.57 132.566)" style="fill:#fab187"/>
        <path data-name="Path 67561" d="M1005.835 332.565a.137.137 0 0 0 .034.168.134.134 0 0 0 .186-.021 8.147 8.147 0 0 1 1.849-1.632.134.134 0 0 0 .043-.183.128.128 0 0 0-.18-.043 8.333 8.333 0 0 0-1.919 1.693z" transform="translate(-148.205 134.528)" style="fill:#fab187"/>
        <path data-name="Path 67562" d="M1015.623 340.705c0 .037.726.519.732.555.284 1.507.439 2.194-.082 3.03a5.269 5.269 0 0 1-2.2 1.913l-.113.055a57.128 57.128 0 0 1-10.679 4.177c-1.831.43-.735 0-1.041-.406-.149-.2-.949.211-1.025-.024-.156-.482 0-1.181 2.157-1.889a17.454 17.454 0 0 1-5.019.458 2.246 2.246 0 0 1-2.16-1.419v-.024a4.136 4.136 0 0 1 .384-4 16.44 16.44 0 0 0 1.4-2.227 2.166 2.166 0 0 0-.372-2.325 2.263 2.263 0 0 1-.305-.528 5.737 5.737 0 0 1 .491-5c1.721-3.158 3.686-.092 4.845-.266s2.829-1.4 4.4.18 2.255 1.779 3.469 1.577c.29-.049.366 1.358.964 1.477 1.868.381 3.531 1.718 4.154 4.686z" transform="translate(-141.272 133.984)" style="fill:#273a7a"/>
        <path data-name="Path 67563" d="M1005.41 351.556s1.831 8.949 3.942 10.31a3.146 3.146 0 0 0 2.746.168l1.934 5.312 7.5-2.731-6.35-17.426z" transform="translate(-147.92 123.162)" style="fill:#fab187"/>
        <path data-name="Path 67564" d="M917.4 371.6c1.8-4.464 16.806-21.359 16.806-21.359a13.756 13.756 0 0 1 7.588 5.492 8.888 8.888 0 0 1 1.083 2.475l-5.635 7.235-4.534 5.837s1.071-.067 6.655-.894l.064.11 5.41-.915 3.86-.635h.058c-.064.256-.125.513-.183.766l.2-.067-.2.067-.064.281-.589 3.247c-1.831 13.05 3.515 21.664 2.813 33.24 0 0-6.841-19.128-8.638-19.528-5.865-1.346-21.231-1.486-23.678-4.1-3.122-3.352-2.816-6.786-1.016-11.252z" transform="translate(-85.83 121.043)" style="fill:#d9edfa"/>
        <path data-name="Path 67565" d="M1039.566 362.239a2.27 2.27 0 1 0 1.358-2.911 2.27 2.27 0 0 0-1.358 2.911z" transform="translate(-171.559 114.824)" style="fill:#fab187"/>
        <path data-name="Path 67566" d="M1005.358 347.495s-.546-3.521 3.714-5.492 6.054 1.117 6.054 1.117l-4.644 2.844-4.806 1.379z" transform="translate(-147.869 127.223)" style="fill:#fab187"/>
        <path data-name="Path 67567" d="M1001.847 342.8s3.707 1.681 7.018-.217c0 0 2.746 3.9 5.254 2.764s-1.089-6.627-1.089-6.627-5.492-.2-5.8-.095-5.492 1.663-5.492 1.663z" transform="translate(-145.37 129.136)" style="fill:#273a7a"/>
        <path data-name="Path 67568" d="M1076.167 329.249a16.007 16.007 0 0 1-.812-2.832c-.25-1.443-1.162-.778-1.364-.327a17.977 17.977 0 0 0-.461 2.475z" transform="translate(-195.255 138.208)" style="fill:#fab187"/>
        <path data-name="Path 67569" d="M1050.7 323.54c-.046 0-.076.845-.116.851-1.526-1.434-3.246-4.552-3.683-4.967a14.956 14.956 0 0 0-5.8-2.484c-2.676-.134-1.831.812-1.831.812-2.792.122-1.22 1.489-1.22 1.489-2.511-.113-1.281 1.458-1.281 1.458-1.355.079-1.526.565-1.428.952a.936.936 0 0 0 .552.61c.5.211 1.6.665 2.746 1.123s2.081 1.355 5.6 4.134c1.62 1.282 4.043-.076 5.745 1.132z" transform="translate(-168.701 144.191)" style="fill:#fab187"/>
        <path data-name="Path 67570" d="M1042.464 329.549a.131.131 0 0 1 .04.149.134.134 0 0 1-.171.076 16.163 16.163 0 0 0-2.563-.65.131.131 0 1 1 .043-.259 15.763 15.763 0 0 1 2.618.662.124.124 0 0 1 .033.022z" transform="translate(-171.719 135.896)" style="fill:#fab187"/>
        <path data-name="Path 67571" d="M1046.443 324.924a.132.132 0 1 1-.146.22 8.236 8.236 0 0 0-2.331-.809.128.128 0 0 1-.11-.15.131.131 0 0 1 .153-.11 8.26 8.26 0 0 1 2.417.836z" transform="translate(-174.634 139.226)" style="fill:#fab187"/>
        <path data-name="Path 67572" d="M1050.213 319.872a.133.133 0 0 1-.146.22 7.191 7.191 0 0 0-2.093-.632.128.128 0 0 1-.116-.146.131.131 0 0 1 .146-.116 7.218 7.218 0 0 1 2.185.659z" transform="translate(-177.415 142.614)" style="fill:#fab187"/>
        <path data-name="Path 67573" d="M1032.76 405.3s.806 2.356 4.461 1.642a3.559 3.559 0 0 0 3.195-3.936s-3.616-.856-7.656 2.294z" transform="translate(-166.926 84.451)" style="fill:#fab187"/>
        <path data-name="Path 67574" d="M1004.471 404.128c5.831-1.571 14.341-3.567 19.833-3.549 0 0 6.771 12.721 6.777 12.751-.033-.04 12.693 43.346 12.693 43.346a62.606 62.606 0 0 1-40.481 3.167l.2-14.359-.915-13.761a20.787 20.787 0 0 1-3.027-5.816 50.194 50.194 0 0 1-2.377-12.916c-.215-4.182 3.226-7.764 7.297-8.863z" transform="translate(-142.188 86.063)" style="fill:#d9edfa"/>
        <path data-name="Path 67575" d="m1083.3 367.612-11.726-16.6c1.629-.189 18.109-4.449 18.109-4.449l-17.121-7.164c-.049-1.9.351-1.471.659-2.981a18.573 18.573 0 0 1 3.277-7.613s17.52 7.146 22.738 9.831c4.272 2.206 6.938 3.414 6.865 8.089s-22.801 20.887-22.801 20.887z" transform="translate(-193.893 135.94)" style="fill:#d9edfa"/>
        <path data-name="Path 67576" d="m682.329 383.125 4.278-3.259-.049-.076-4.278 3.259z" transform="translate(204.63 122.295)" style="fill:#99bfe4"/>
        <path data-name="Path 67577" d="M1028.8 400.58s-2.639 5.837-10.817 6.893-10.143-2.783-10.143-2.783 12.654-3.24 20.96-4.11z" transform="translate(-149.609 86.063)" style="fill:#fab187"/>
        <path data-name="Path 67578" d="M46.6 32.945q7.7 5.346 8.609 15.393a22.4 22.4 0 0 1-2.18 12.123 22.75 22.75 0 0 1-9.129 9.422q-6.36 3.795-16.1 4.684a56.127 56.127 0 0 1-14.951-.645A38.148 38.148 0 0 1 0 69.409l5.359-13.178a31.207 31.207 0 0 0 9.766 3.869 35.856 35.856 0 0 0 11.014.693q6.2-.561 9.528-3.321a7.821 7.821 0 0 0 2.933-7.115 7.673 7.673 0 0 0-4.33-6.568q-3.914-2-13.055-1.17L3.047 44.263l.032-40.336L46.432 0l1.193 13.2-29.643 2.683.1 13.6 5.788-.522q15.03-1.355 22.73 3.984z" transform="rotate(-4.01 5682.942 -10744.7)" style="fill:#004f9e"/>
        <path data-name="Path 67579" d="M863.583 152.2a29.374 29.374 0 0 1-10.85-12.694q-3.914-8.306-3.933-19.826 0-11.52 3.927-19.829a29.428 29.428 0 0 1 10.856-12.691 30.653 30.653 0 0 1 31.6 0 29.447 29.447 0 0 1 10.856 12.691q3.924 8.3 3.924 19.829t-3.924 19.826a29.452 29.452 0 0 1-10.855 12.694 30.678 30.678 0 0 1-31.6 0zm26.045-15.186q3.731-5.607 3.731-17.334t-3.721-17.33a12.072 12.072 0 0 0-20.39 0q-3.721 5.607-3.721 17.33t3.721 17.33a12.065 12.065 0 0 0 20.38 0z" transform="translate(-15.336 281.398)" style="fill:#004f9e"/>
        <path data-name="Path 67580" d="m55.034 62.064-1.4 13.384L0 69.834l1.112-10.64 30.083-22.989a29.274 29.274 0 0 0 6.629-6.532 13.066 13.066 0 0 0 2.14-5.773 7.89 7.89 0 0 0-2.205-6.842q-2.65-2.586-8.225-3.166a19.578 19.578 0 0 0-8.6.893 16.19 16.19 0 0 0-6.842 4.666L2.931 10.492A28.282 28.282 0 0 1 15.4 2.009 38.353 38.353 0 0 1 32.491.264 34.589 34.589 0 0 1 46.058 4.3a21.461 21.461 0 0 1 8.464 8.267 19.007 19.007 0 0 1 2.131 11.446A24.854 24.854 0 0 1 53.084 34.6q-2.966 4.817-10.64 10.572l-17.927 13.7z" transform="rotate(1 -20591.611 51868.56)" style="fill:#004f9e"/>
        <path data-name="Path 67581" d="m947.33 724.656-.046-.036-34.266-30.287a.873.873 0 0 1 .024-1.336c6.713-5.526 12.01-8.333 16.153-8.58a.874.874 0 0 1 .632.214l34.629 30.116a.879.879 0 0 1-.375 1.526 34.144 34.144 0 0 0-15.616 8.339.882.882 0 0 1-1.135.044zM914.962 693.7l32.9 29.072a35.808 35.808 0 0 1 14.185-7.8L928.952 686.2c-3.518.352-8.214 2.872-13.99 7.5z" transform="translate(-83.512 -111.165)" style="fill:#8eb7e1"/>
        <path data-name="Path 67582" d="M999.9 713.954a1.217 1.217 0 0 0-.116-1.263l-31.22-27.37c-1.578-.818-3.717 1.95-2.578 2.951l31.211 27.361a1.41 1.41 0 0 0 1.456-.217c-.598-.495.385-2.103 1.247-1.462z" transform="translate(-120.299 -111.691)" style="fill:#3f78a0"/>
        <rect data-name="Rectangle 41346" width="6.273" height="11.872" rx="3.137" transform="rotate(37.68 -554.215 1464.14)" style="fill:#8eb7e1"/>
        <path data-name="Path 67583" d="m313.25 853.061-4.51 5.837.607.027 4.662-6.035z" transform="translate(464.193 -206.449)" style="fill:#81aed8"/>
        <path data-name="Path 67584" d="M732.211 931.666a4.043 4.043 0 0 1 2.255 4.366c-.589 3.076-6.82 4.272-7.753 3.793a3.663 3.663 0 0 1-1.962-3.869c.387-2.002 5.001-4.931 7.46-4.29z" transform="translate(47.147 -282.911)" style="fill:#0c2a3d"/>
        <ellipse data-name="Ellipse 1790" cx="4.729" cy="3.143" rx="4.729" ry="3.143" transform="rotate(-31.9 1527.133 -1022.623)" style="fill:#0c2a3d"/>
        <ellipse data-name="Ellipse 1791" cx="4.729" cy="3.143" rx="4.729" ry="3.143" transform="rotate(-31.9 1530.78 -1023.669)" style="fill:#0c2a3d"/>
        <ellipse data-name="Ellipse 1792" cx="3.948" cy="2.627" rx="3.948" ry="2.627" transform="rotate(-31.9 1531.292 -1025.293)" style="fill:#1c4463"/>
        <path data-name="Path 67585" d="m740.21 921.693.061-.082a.541.541 0 0 0-.061.082z" transform="translate(36.36 -275.988)" style="fill:#5c5c5c"/>
        <path data-name="Path 67586" d="M742.9 921.495a3.122 3.122 0 0 0-4.369.525l-.2 1.068a1.3 1.3 0 0 1 2.054 1.587l-3.68 4.839c-1.05 1.358 2.053 2.227 3.3.851l3.484-4.513a3.118 3.118 0 0 0-.595-4.357z" transform="translate(38.944 -275.447)" style="fill:#81aed8"/>
        <rect data-name="Rectangle 41347" width="5.779" height="10.939" rx="2.89" transform="rotate(37.68 -523.77 1408.417)" style="fill:#5d5d5d"/>
        <path data-name="Path 67587" d="m223.746 753.376-4.156 5.379.558.024 4.3-5.559z" transform="translate(526.141 -137.191)" style="fill:#81aed8"/>
        <path data-name="Path 67588" d="M642.022 830.69a3.744 3.744 0 0 1 2.09 4.049c-.549 2.853-6.325 3.966-7.192 3.518a3.42 3.42 0 0 1-1.831-3.588c.348-1.859 4.651-4.574 6.933-3.979z" transform="translate(109.445 -212.751)" style="fill:#0c2a3d"/>
        <ellipse data-name="Ellipse 1793" cx="4.388" cy="2.917" rx="4.388" ry="2.917" transform="rotate(-31.9 1459.135 -990.452)" style="fill:#0c2a3d"/>
        <ellipse data-name="Ellipse 1794" cx="4.388" cy="2.917" rx="4.388" ry="2.917" transform="rotate(-31.9 1462.516 -991.419)" style="fill:#0c2a3d"/>
        <ellipse data-name="Ellipse 1795" cx="3.665" cy="2.435" rx="3.665" ry="2.435" transform="rotate(-31.9 1462.996 -992.925)" style="fill:#1c4463"/>
        <path data-name="Path 67589" d="m650.12 822.223.058-.073a.449.449 0 0 0-.058.073z" transform="translate(98.961 -206.876)" style="fill:#5c5c5c"/>
        <path data-name="Path 67590" d="M652.586 822.045a2.874 2.874 0 0 0-4.012.482l-.183.986a1.2 1.2 0 1 1 1.892 1.462l-3.39 4.458c-.967 1.251 1.892 2.054 3.051.784l3.21-4.156a2.88 2.88 0 0 0-.568-4.016z" transform="translate(101.34 -206.382)" style="fill:#81aed8"/>
        <rect data-name="Rectangle 41348" width="5.157" height="9.761" rx="2.578" transform="rotate(37.68 -518.953 1473.514)" style="fill:#5d5d5d"/>
        <path data-name="Path 67591" d="m359.087 787.451-3.707 4.8.5.021 3.832-4.961z" transform="translate(431.784 -160.879)" style="fill:#81aed8"/>
        <path data-name="Path 67592" d="M777.549 864.12a3.344 3.344 0 0 1 1.864 3.613c-.488 2.545-5.645 3.543-6.408 3.143a3.045 3.045 0 0 1-1.62-3.2c.324-1.661 4.115-4.086 6.164-3.556z" transform="translate(14.735 -235.988)" style="fill:#0c2a3d"/>
        <ellipse data-name="Ellipse 1796" cx="3.921" cy="2.607" rx="3.921" ry="2.607" transform="rotate(-31.93 1494.597 -1057.64)" style="fill:#0c2a3d"/>
        <ellipse data-name="Ellipse 1797" cx="3.921" cy="2.607" rx="3.921" ry="2.607" transform="rotate(-31.93 1497.603 -1058.505)" style="fill:#0c2a3d"/>
        <ellipse data-name="Ellipse 1798" cx="3.268" cy="2.172" rx="3.268" ry="2.172" transform="rotate(-31.9 1500.761 -1060.708)" style="fill:#1c4463"/>
        <path data-name="Path 67593" d="m784.73 856.567.052-.067a.35.35 0 0 0-.052.067z" transform="translate(5.424 -230.744)" style="fill:#5c5c5c"/>
        <path data-name="Path 67594" d="M786.934 856.4a2.566 2.566 0 0 0-3.591.433l-.165.879a1.067 1.067 0 1 1 1.69 1.3l-3.027 3.967c-.863 1.117 1.69 1.831 2.719.7l2.865-3.707a2.569 2.569 0 0 0-.491-3.572z" transform="translate(7.554 -230.3)" style="fill:#81aed8"/>
        <rect data-name="Rectangle 41349" width="5.157" height="9.761" rx="2.578" transform="rotate(37.68 -548.45 1533.294)" style="fill:#8eb7e1"/>
        <path data-name="Path 67595" d="m458.677 887.4-3.707 4.8.5.021 3.835-4.964z" transform="translate(362.581 -230.333)" style="fill:#81aed8"/>
        <path data-name="Path 67596" d="M876.909 964.641a3.322 3.322 0 0 1 1.852 3.588c-.485 2.526-5.605 3.518-6.374 3.118a3 3 0 0 1-1.611-3.182c.324-1.657 4.104-4.052 6.133-3.524z" transform="translate(-54.329 -305.837)" style="fill:#0c2a3d"/>
        <ellipse data-name="Ellipse 1799" cx="3.887" cy="2.584" rx="3.887" ry="2.584" transform="rotate(-31.9 1566.178 -1096.273)" style="fill:#0c2a3d"/>
        <ellipse data-name="Ellipse 1800" cx="3.887" cy="2.584" rx="3.887" ry="2.584" transform="rotate(-31.9 1569.174 -1097.13)" style="fill:#0c2a3d"/>
        <ellipse data-name="Ellipse 1801" cx="3.247" cy="2.157" rx="3.247" ry="2.157" transform="rotate(-31.9 1569.598 -1098.467)" style="fill:#1c4463"/>
        <path data-name="Path 67597" d="m884.32 956.527.052-.067a.365.365 0 0 0-.052.067z" transform="translate(-63.778 -300.204)" style="fill:#5c5c5c"/>
        <path data-name="Path 67598" d="M885.856 956.36a2.566 2.566 0 0 0-3.591.427l-.162.879a1.067 1.067 0 1 1 1.687 1.306l-3.335 3.542c-.864 1.117 2 2.267 3.027 1.135l2.865-3.71a2.566 2.566 0 0 0-.491-3.579z" transform="translate(-60.982 -299.755)" style="fill:#81aed8"/>
        <path data-name="Path 67599" d="M675.8 846.891a10.6 10.6 0 0 1-1.526-1.437l-22.039-25.231a2.243 2.243 0 0 1 2.319-3.628l38.916 11.387a6.035 6.035 0 0 0 7.128-3.127l4.345-8.754a.946.946 0 0 1 1.525-.247l30.69 30.69a.943.943 0 0 1 .192 1.062l-3.494 7.689a7.967 7.967 0 0 1-9.068 4.379l-44.96-10.864a10.6 10.6 0 0 1-4.028-1.919zm30.238-28.749-3.759 7.567a7.933 7.933 0 0 1-9.343 4.089l-38.913-11.387a.348.348 0 0 0-.36.564l22.037 25.234a8.726 8.726 0 0 0 4.559 2.761l44.966 10.86a6.063 6.063 0 0 0 6.9-3.329l3.228-7.067z" transform="translate(97.874 -202.303)" style="fill:#8eb7e1"/>
        <path data-name="Path 67600" d="M857.332 776.765a.122.122 0 0 1-.037-.03l-33.637-33.308a.4.4 0 0 1 0-.552l27.642-30.788a.4.4 0 0 1 .561-.033l35.339 31.123a.4.4 0 0 1 .034.568l-29.356 32.972a.4.4 0 0 1-.287.134.387.387 0 0 1-.256-.086zm-32.841-33.637 33.064 32.74 28.794-32.368-34.732-30.583z" transform="translate(-21.549 -130.303)" style="fill:#8eb7e1"/>
        <path data-name="Rectangle 41350" transform="rotate(-47.63 1081.3 -633.979)" style="fill:#8eb7e1" d="M0 0h.479v47.142H0z"/>
        <path data-name="Rectangle 41351" transform="rotate(-46.88 1101.02 -634.022)" style="fill:#8eb7e1" d="M0 0h.479v47.221H0z"/>
        <path data-name="Path 67601" d="M835.443 754.652a.125.125 0 0 1 0-.18l28.127-30.8a.127.127 0 1 1 .18.18l-28.123 30.818a.131.131 0 0 1-.184-.018z" transform="translate(-29.788 -138.419)" style="fill:#8eb7e1"/>
        <path data-name="Path 67602" d="M849.656 767.988a.128.128 0 0 1 0-.18l28.294-31.123a.131.131 0 0 1 .183 0 .125.125 0 0 1 0 .18l-28.294 31.123a.122.122 0 0 1-.183 0z" transform="translate(-39.665 -147.461)" style="fill:#8eb7e1"/>
        <path data-name="Path 67603" d="M864.093 781.611a.125.125 0 0 1 0-.18L892.558 750a.125.125 0 0 1 .18 0 .134.134 0 0 1 0 .183l-28.465 31.428a.131.131 0 0 1-.18 0z" transform="translate(-49.697 -156.716)" style="fill:#8eb7e1"/>
        <path data-name="Path 67604" d="M878.785 795.419a.131.131 0 0 1 0-.183l28.636-31.761a.128.128 0 0 1 .189.171l-28.635 31.764a.131.131 0 0 1-.189.009z" transform="translate(-59.907 -166.08)" style="fill:#8eb7e1"/>
        <path data-name="Path 67605" d="M893.723 809.416a.125.125 0 0 1 0-.18l28.81-32.093a.125.125 0 0 1 .18 0 .131.131 0 0 1 0 .183l-28.813 32.09a.131.131 0 0 1-.177 0z" transform="translate(-70.285 -175.574)" style="fill:#8eb7e1"/>
        <path data-name="Path 67606" d="M908.913 823.705a.125.125 0 0 1 0-.18L937.9 791.09a.128.128 0 1 1 .189.171L909.1 823.7a.131.131 0 0 1-.189.009z" transform="translate(-80.841 -185.256)" style="fill:#8eb7e1"/>
        <path data-name="Path 67607" d="M924.383 838.259a.125.125 0 0 1 0-.18l29.149-32.786a.125.125 0 0 1 .18 0 .128.128 0 0 1 0 .18l-29.167 32.771a.128.128 0 0 1-.162.015z" transform="translate(-91.59 -195.135)" style="fill:#8eb7e1"/>
        <path data-name="Path 67608" d="m913.5 781.175-16.37-15.07a1.486 1.486 0 0 1-.1-2.087l8.955-9.938 18.8 16.663-9.172 10.326a1.483 1.483 0 0 1-2.118.107z" transform="translate(-72.346 -159.574)" style="fill:#8eb7e1"/>
        <path data-name="Path 67609" d="M694.885 698.412a.125.125 0 0 1-.031-.168l19.746-32.325a.128.128 0 0 1 .177-.043.131.131 0 0 1 .043.177l-19.76 32.325a.128.128 0 0 1-.177.043z" transform="translate(67.89 -98.271)" style="fill:#8eb7e1"/>
        <path data-name="Path 67610" d="M706.656 702.536a.125.125 0 0 1-.03-.168l20.443-32.194a.128.128 0 0 1 .177-.04.131.131 0 0 1 .04.177l-20.443 32.194a.131.131 0 0 1-.177.04z" transform="translate(59.711 -101.229)" style="fill:#8eb7e1"/>
        <path data-name="Path 67611" d="M718.5 706.66a.128.128 0 0 1-.031-.171l21.145-32.06a.128.128 0 1 1 .214.14l-21.145 32.06a.131.131 0 0 1-.177.037z" transform="translate(51.478 -104.183)" style="fill:#8eb7e1"/>
        <path data-name="Path 67612" d="M730.4 710.811a.125.125 0 0 1-.027-.174l21.838-31.922a.128.128 0 1 1 .211.143l-21.838 31.935a.125.125 0 0 1-.177.034z" transform="translate(43.21 -107.157)" style="fill:#8eb7e1"/>
        <path data-name="Path 67613" d="M742.348 715.017a.128.128 0 0 1-.024-.177l22.561-31.785a.128.128 0 0 1 .211.147l-22.58 31.788a.131.131 0 0 1-.177.031z" transform="translate(34.909 -110.184)" style="fill:#8eb7e1"/>
        <path data-name="Path 67614" d="M754.345 719.177a.125.125 0 0 1-.024-.177l23.279-31.648a.128.128 0 1 1 .2.15l-23.275 31.648a.128.128 0 0 1-.18.028z" transform="translate(26.573 -113.159)" style="fill:#8eb7e1"/>
        <path data-name="Path 67615" d="M766.387 723.432a.131.131 0 0 1-.024-.18l24.007-31.507a.128.128 0 0 1 .18-.024.131.131 0 0 1 .024.18l-24.007 31.507a.132.132 0 0 1-.18.024z" transform="translate(18.205 -116.225)" style="fill:#8eb7e1"/>
        <path data-name="Path 67616" d="M778.481 727.666a.131.131 0 0 1-.021-.18l24.74-31.367a.125.125 0 0 1 .177-.021.125.125 0 0 1 .021.18l-24.737 31.367a.128.128 0 0 1-.18.021z" transform="translate(9.799 -119.266)" style="fill:#8eb7e1"/>
        <path data-name="Path 67617" d="M790.633 731.929a.128.128 0 0 1-.018-.18l25.475-31.223a.131.131 0 0 1 .18-.018.128.128 0 0 1 .018.18l-25.478 31.22a.125.125 0 0 1-.177.021z" transform="translate(1.355 -122.33)" style="fill:#8eb7e1"/>
        <path data-name="Path 67618" d="M802.846 736.189a.128.128 0 0 1 0-.18l26.2-31.1a.128.128 0 0 1 .2.165l-26.216 31.089a.128.128 0 0 1-.177.021z" transform="translate(-7.138 -125.385)" style="fill:#8eb7e1"/>
        <path data-name="Path 67619" d="M815.086 740.51a.128.128 0 0 1 0-.18l26.952-30.937a.125.125 0 0 1 .18 0 .128.128 0 0 1 0 .18l-26.958 30.919a.128.128 0 0 1-.174.018z" transform="translate(-15.644 -128.496)" style="fill:#8eb7e1"/>
        <path data-name="Path 67620" d="M682.206 694.008a.381.381 0 0 1-.128-.174.4.4 0 0 1 .027-.348l19.253-32.4a.4.4 0 0 1 .458-.177l51.566 15.58a.4.4 0 0 1 .183.65l-27.644 30.79a.4.4 0 0 1-.421.113l-43.16-13.972a.42.42 0 0 1-.134-.062zm19.681-32.243-18.835 31.7 42.442 13.735 27.05-30.128z" transform="translate(76.774 -94.822)" style="fill:#8eb7e1"/>
        <path data-name="Rectangle 41352" transform="rotate(-72.78 777.683 -235.408)" style="fill:#8eb7e1" d="M0 0h.479v51.13H0z"/>
        <path data-name="Rectangle 41353" transform="rotate(-72.6 783.375 -226.66)" style="fill:#8eb7e1" d="M0 0h.479v48.112H0z"/>
        <path data-name="Path 67621" d="M724.065 803.9h-.018l-28.773-31.733a.127.127 0 1 1 .18-.18l28.776 31.733a.134.134 0 0 1 0 .183.128.128 0 0 1-.165-.003z" transform="translate(67.612 -171.988)" style="fill:#8eb7e1"/>
        <path data-name="Path 67622" d="m736.809 808.023-.018-.015-29.191-31.855a.128.128 0 0 1 0-.18.125.125 0 0 1 .18 0l29.21 31.861a.125.125 0 0 1 0 .18.128.128 0 0 1-.181.009z" transform="translate(59.048 -174.761)" style="fill:#8eb7e1"/>
        <path data-name="Path 67623" d="M749.547 812.155h-.015l-29.616-32a.128.128 0 0 1 0-.18.125.125 0 0 1 .18 0l29.6 31.986a.128.128 0 0 1-.171.189z" transform="translate(50.488 -177.54)" style="fill:#8eb7e1"/>
        <path data-name="Path 67624" d="M762.267 816.282v-.015l-30.049-32.13a.128.128 0 1 1 .186-.174l30.034 32.121a.125.125 0 0 1 0 .18.128.128 0 0 1-.171.018z" transform="translate(41.945 -180.304)" style="fill:#8eb7e1"/>
        <path data-name="Path 67625" d="M775.047 820.457 744.6 788.208a.129.129 0 1 1 .183-.183l30.452 32.252a.128.128 0 0 1-.174.189z" transform="translate(33.339 -183.137)" style="fill:#8eb7e1"/>
        <path data-name="Path 67626" d="m787.768 824.535-30.87-32.4a.128.128 0 1 1 .186-.174l30.851 32.383a.125.125 0 0 1 0 .18.122.122 0 0 1-.167.011z" transform="translate(24.795 -185.863)" style="fill:#8eb7e1"/>
        <path data-name="Path 67627" d="m800.453 828.662-31.3-32.529a.128.128 0 1 1 .183-.177l31.288 32.517a.128.128 0 0 1-.171.189z" transform="translate(16.28 -188.638)" style="fill:#8eb7e1"/>
        <path data-name="Path 67628" d="m813.245 832.869-31.705-32.648a.128.128 0 0 1 .183-.177l31.706 32.649a.128.128 0 0 1-.171.189z" transform="translate(7.659 -191.494)" style="fill:#8eb7e1"/>
        <path data-name="Path 67629" d="m825.912 836.945-32.136-32.792a.128.128 0 1 1 .183-.18l32.124 32.78a.132.132 0 0 1 0 .183.134.134 0 0 1-.171.009z" transform="translate(-.836 -194.218)" style="fill:#8eb7e1"/>
        <path data-name="Path 67630" d="m838.63 841.066-32.554-32.923a.128.128 0 0 1 .183-.18l32.541 32.914a.128.128 0 0 1 0 .18.125.125 0 0 1-.168.009z" transform="translate(-9.383 -196.99)" style="fill:#8eb7e1"/>
        <path data-name="Path 67631" d="m851.377 845.251-32.954-33.045a.125.125 0 0 1 0-.18.128.128 0 0 1 .18 0l32.954 33.045a.128.128 0 0 1 0 .18.125.125 0 0 1-.18 0z" transform="translate(-17.962 -199.814)" style="fill:#8eb7e1"/>
        <path data-name="Rectangle 41354" transform="rotate(-72.13 801.835 -222.899)" style="fill:#8eb7e1" d="M0 0h.479v46.587H0z"/>
        <path data-name="Rectangle 41355" transform="rotate(-72.67 810.387 -219.076)" style="fill:#8eb7e1" d="M0 0h.479v47.267H0z"/>
        <path data-name="Path 67632" d="M711.147 799.475a.474.474 0 0 1-.07-.064l-29.411-31.922a.565.565 0 0 1-.058-.683.558.558 0 0 1 .644-.229l43.169 13.969a.536.536 0 0 1 .22.137l33.637 33.3a.561.561 0 0 1-.568.931l-47.4-15.345a.562.562 0 0 1-.163-.094zM683.939 768.3l27.861 30.245 45.018 14.585-31.87-31.559z" transform="translate(77.143 -168.239)" style="fill:#8eb7e1"/>
        <path data-name="Path 67633" d="m325.3 664.589-14.555-17.1L326.2 627.48l14.96 16.578z" transform="translate(462.796 -49.818)" style="fill:#deb275"/>
        <path data-name="Path 67634" d="m361.4 627.48 9.019 3.231 6.487 2.661 14.374 15.61-14.921-4.925z" transform="translate(427.601 -49.818)" style="fill:#fecd8d"/>
        <path data-name="Path 67635" d="m358.45 702.342 15.177 4.08 15.6-19.687-14.917-4.925z" transform="translate(429.651 -87.57)" style="fill:#deb275"/>
        <path data-name="Path 67636" d="m825.1 725.754-14.7-16.339a.041.041 0 0 1 .061-.055l14.7 16.34a.043.043 0 0 1 0 .058.036.036 0 0 1-.031.015.037.037 0 0 1-.03-.019z" transform="translate(-12.41 -128.49)" style="fill:#b38459"/>
        <path data-name="Path 67637" d="M830.04 753.52a.04.04 0 0 1-.015-.046.043.043 0 0 1 .052-.027l14.728 4.882a.04.04 0 1 1-.024.076l-14.729-4.882z" transform="translate(-26.048 -159.134)" style="fill:#b38459"/>
        <path data-name="Path 67638" d="m387.33 636.82 14.478 16.26-3.472 4.491 2.383.531 3.451-4.217-14.344-16.085z" transform="translate(409.582 -56.308)" style="fill:#fff"/>
        <path data-name="Path 67639" d="m404.748 728.81-14.558-17.1 15.458-20.01 14.96 16.577z" transform="translate(407.595 -94.443)" style="fill:#deb275"/>
        <path data-name="Path 67640" d="m440.85 691.7 9.019 3.231 6.487 2.661 14.374 15.61-14.921-4.925z" transform="translate(372.393 -94.443)" style="fill:#fecd8d"/>
        <path data-name="Path 67641" d="m437.9 766.562 15.177 4.08 15.6-19.687-14.921-4.925z" transform="translate(374.443 -132.195)" style="fill:#e9bb7e"/>
        <path data-name="Path 67642" d="m904.5 789.972-14.7-16.34a.04.04 0 0 1 0-.058.043.043 0 0 1 .058 0l14.7 16.339a.041.041 0 0 1-.058.058z" transform="translate(-67.579 -173.114)" style="fill:#b38459"/>
        <path data-name="Path 67643" d="M909.514 817.74a.039.039 0 0 1 0-.046.043.043 0 0 1 .052-.027l14.729 4.882a.042.042 0 1 1-.025.079l-14.728-4.882z" transform="translate(-81.279 -203.758)" style="fill:#b38459"/>
        <path data-name="Path 67644" d="m466.78 701.04 14.478 16.26-3.472 4.491 2.383.531 3.451-4.214-14.344-16.092z" transform="translate(354.375 -100.933)" style="fill:#fff"/>
        <path data-name="Path 67645" d="m417.108 707.026 11.845 5.132-19.382-16.041-2.053 2.661-2.761-3.3-14.567 18.862 10.075 11.186z" transform="translate(407.595 -97.069)" style="opacity:.2;fill:#010101"/>
        <path data-name="Path 67646" d="m334.3 702.16-14.555-17.1 15.455-20.01 14.96 16.577z" transform="translate(456.542 -75.924)" style="fill:#e9bb7e"/>
        <path data-name="Path 67647" d="m370.4 665.05 9.02 3.231 6.487 2.664 14.374 15.61-14.921-4.928z" transform="translate(421.347 -75.924)" style="fill:#fecd8d"/>
        <path data-name="Path 67648" d="m367.45 739.912 15.177 4.083 15.6-19.687-14.921-4.928z" transform="translate(423.397 -113.678)" style="fill:#deb275"/>
        <path data-name="Path 67649" d="m834.092 763.319-14.7-16.339a.043.043 0 0 1 0-.058.04.04 0 0 1 .058 0l14.7 16.34a.043.043 0 0 1 0 .058.046.046 0 0 1-.058-.001z" transform="translate(-18.655 -154.592)" style="fill:#b38459"/>
        <path data-name="Path 67650" d="M839.039 791.094a.036.036 0 0 1-.015-.046.04.04 0 0 1 .021-.023.039.039 0 0 1 .031 0l14.728 4.882a.041.041 0 1 1-.024.079l-14.729-4.886z" transform="translate(-32.301 -185.244)" style="fill:#b38459"/>
        <path data-name="Path 67651" d="m396.33 674.39 14.478 16.26-3.472 4.495 2.383.528 3.451-4.214-14.344-16.092z" transform="translate(403.329 -82.415)" style="fill:#fff"/>
        <path data-name="Path 67652" d="m361.05 668.745 11.259 8.7 2.584-.211 13.276 3.411-8.76-9.7-15.506-5.9z" transform="translate(427.844 -75.924)" style="opacity:.2;fill:#010101"/>
        <path data-name="Path 67653" d="m571.567 799.872-12.227-15.116 13.816-16.986 12.586 14.677z" transform="translate(290.057 -147.302)" style="fill:#e9bb7e"/>
        <path data-name="Path 67654" d="m604.62 767.77 7.735 3 5.556 2.447 12.1 13.825-12.809-4.592z" transform="translate(258.594 -147.302)" style="fill:#fecd8d"/>
        <path data-name="Path 67655" d="m599.41 833.3 13.044 3.866 13.941-16.7-12.809-4.592z" transform="translate(262.214 -180.725)" style="fill:#deb275"/>
        <path data-name="Path 67656" d="m1061.815 863.394-12.367-14.466a.04.04 0 0 1 0-.052.034.034 0 0 1 .049 0l12.364 14.463a.037.037 0 0 1 0 .052.043.043 0 0 1-.046 0z" transform="translate(-178.514 -225.439)" style="fill:#b38459"/>
        <path data-name="Path 67657" d="M1065.477 887.545a.037.037 0 0 1 0-.04.033.033 0 0 1 .018-.021.033.033 0 0 1 .028 0l12.62 4.54a.037.037 0 1 1-.024.067l-12.641-4.54z" transform="translate(-189.656 -252.272)" style="fill:#b38459"/>
        <path data-name="Path 67658" d="m626.86 776.43 12.174 14.39-3.1 3.814 2.053.509 3.079-3.573L629 777.33z" transform="translate(243.14 -153.32)" style="fill:#fff"/>
        <path data-name="Path 67659" d="m648.575 789.072-1.025-.452 4.555 10.173 1 10.921 6.743-8.187z" transform="translate(228.762 -161.789)" style="opacity:.2;fill:#010101"/>
        <path data-name="Path 67660" d="m585.34 708.511 14.872 7.183 11.366-14.719L597 693.41z" transform="translate(271.99 -95.631)" style="fill:#e9bb7e"/>
        <path data-name="Path 67661" d="m623.835 678.877-3.976-5.819-3.1-4.119-13.78-7.329 6.279 9.7z" transform="translate(259.733 -73.534)" style="fill:#fecd8d"/>
        <path data-name="Path 67662" d="m572.3 686.414-5.724-10.039 11.107-14.765 6.28 9.7z" transform="translate(285.027 -73.534)" style="fill:#deb275"/>
        <path data-name="Path 67663" d="M1030.714 746.185a.03.03 0 0 1 0-.04.034.034 0 0 1 .04 0l14.359 7.421a.031.031 0 0 1 0 .043.034.034 0 0 1-.04 0l-14.359-7.421z" transform="translate(-165.498 -154.057)" style="fill:#b38459"/>
        <path data-name="Path 67664" d="m1028.6 742.91-6.2-9.575a.03.03 0 0 1 0-.043.033.033 0 0 1 .043 0l6.2 9.575a.03.03 0 0 1 0 .043.034.034 0 0 1-.043 0z" transform="translate(-159.72 -145.126)" style="fill:#b38459"/>
        <path data-name="Path 67665" d="m619.713 681.422-14.262-7.28-2.554 3.3-.818-1.6 2.356-3.237 14.118 7.216z" transform="translate(260.359 -81.177)" style="fill:#fff"/>
        <path data-name="Path 67666" d="M692.451 704.451a.128.128 0 0 1-.03-.165l19.44-32.514a.128.128 0 0 1 .22.131l-19.44 32.508a.125.125 0 0 1-.174.043z" transform="translate(69.58 -102.342)" style="fill:#8eb7e1"/>
        <path data-name="Path 67667" d="M704.89 717.78a.131.131 0 0 1-.031-.168l19.772-32.563a.128.128 0 0 1 .177-.043.125.125 0 0 1 .043.174l-19.772 32.563a.128.128 0 0 1-.177.043z" transform="translate(60.937 -111.565)" style="fill:#8eb7e1"/>
        <path data-name="Path 67668" d="M717.456 731.333a.125.125 0 0 1-.03-.168l20.117-32.615a.124.124 0 0 1 .078-.058.126.126 0 0 1 .1.015.128.128 0 0 1 .043.177l-20.117 32.609a.125.125 0 0 1-.174.04z" transform="translate(52.207 -120.946)" style="fill:#8eb7e1"/>
        <path data-name="Path 67669" d="M730.242 745.093a.131.131 0 0 1-.028-.171l20.465-32.661a.125.125 0 0 1 .177-.04.122.122 0 0 1 .04.174l-20.456 32.668a.125.125 0 0 1-.177.04z" transform="translate(43.32 -130.473)" style="fill:#8eb7e1"/>
        <path data-name="Path 67670" d="M743.222 759.08a.131.131 0 0 1-.027-.171l20.824-32.709a.131.131 0 0 1 .177-.04.125.125 0 0 1 .04.177l-20.81 32.716a.125.125 0 0 1-.177.04z" transform="translate(34.3 -140.159)" style="fill:#8eb7e1"/>
        <path data-name="Path 67671" d="M756.4 773.283a.128.128 0 0 1-.027-.171l21.194-32.758a.128.128 0 1 1 .217.137l-21.2 32.758a.128.128 0 0 1-.177.04z" transform="translate(25.144 -149.997)" style="fill:#8eb7e1"/>
        <path data-name="Path 67672" d="M769.784 787.714a.131.131 0 0 1-.031-.174l21.572-32.8a.128.128 0 0 1 .177-.037.125.125 0 0 1 .037.177l-21.572 32.8a.125.125 0 0 1-.177.037z" transform="translate(15.845 -159.993)" style="fill:#8eb7e1"/>
        <path data-name="Path 67673" d="m711.616 725.931-.049-.046-29.408-31.925a.406.406 0 0 1-.052-.476l19.253-32.4a.409.409 0 0 1 .305-.192.4.4 0 0 1 .329.113l32.127 31.626a.4.4 0 0 1 .052.51L712.2 725.836a.412.412 0 0 1-.589.095zm-28.664-32.294 28.859 31.333 21.514-32.008-31.538-31.028z" transform="translate(76.772 -94.82)" style="fill:#8eb7e1"/>
        <path data-name="Rectangle 41356" transform="rotate(-43.7 1105.618 -674.65)" style="fill:#8eb7e1" d="M0 0h.479v44.558H0z"/>
        <path data-name="Rectangle 41357" transform="rotate(-43.7 1116.414 -660)" style="fill:#8eb7e1" d="M0 0h.479v43.874H0z"/>
        <path data-name="Path 67674" d="M778.585 797.963a.43.43 0 0 1-.134-.186.4.4 0 0 1 .046-.354l21.984-32.694a.4.4 0 0 1 .436-.162l54.755 15.073a.4.4 0 0 1 .192.653l-29.341 32.972a.4.4 0 0 1-.424.113l-47.392-15.351a.42.42 0 0 1-.122-.064zm22.4-32.551-21.527 32.017 46.642 15.11 28.74-32.313z" transform="translate(9.803 -166.851)" style="fill:#8eb7e1"/>
        <path data-name="Rectangle 41358" transform="rotate(-74.25 804.037 -225.893)" style="fill:#8eb7e1" d="M0 0h.479v54.636H0z"/>
        <path data-name="Rectangle 41359" transform="rotate(-73.191 816.782 -226.373)" style="fill:#8eb7e1" d="M0 0h.48v52.408H0z"/>
        <path data-name="Path 67675" d="M792.645 802.235a.122.122 0 0 1-.028-.171l22.021-32.883a.129.129 0 0 1 .214.143L792.828 802.2a.125.125 0 0 1-.177.037z" transform="translate(-.04 -170.028)" style="fill:#8eb7e1"/>
        <path data-name="Path 67676" d="M805.044 806.194a.125.125 0 0 1-.027-.174l22.643-32.9a.128.128 0 1 1 .211.143l-22.643 32.9a.128.128 0 0 1-.177.031z" transform="translate(-8.656 -172.761)" style="fill:#8eb7e1"/>
        <path data-name="Path 67677" d="M817.564 810.247a.125.125 0 0 1-.027-.174l23.275-32.908a.128.128 0 0 1 .21.147l-23.278 32.908a.128.128 0 0 1-.177.033z" transform="translate(-17.356 -175.578)" style="fill:#8eb7e1"/>
        <path data-name="Path 67678" d="M830.2 814.317a.128.128 0 0 1-.024-.177l23.924-32.92a.125.125 0 0 1 .177-.027.128.128 0 0 1 .031.177l-23.922 32.92a.131.131 0 0 1-.18.03z" transform="translate(-26.136 -178.398)" style="fill:#8eb7e1"/>
        <path data-name="Path 67679" d="M842.958 818.405a.128.128 0 0 1-.024-.177l24.577-32.928a.128.128 0 1 1 .2.153l-24.575 32.929a.131.131 0 0 1-.18.027z" transform="translate(-35.002 -181.225)" style="fill:#8eb7e1"/>
        <path data-name="Path 67680" d="M855.884 822.586a.128.128 0 0 1-.024-.18l25.246-32.938a.131.131 0 0 1 .18-.024.131.131 0 0 1 .025.18l-25.258 32.926a.131.131 0 0 1-.18.024z" transform="translate(-43.984 -184.13)" style="fill:#8eb7e1"/>
        <path data-name="Path 67681" d="M868.891 826.763a.131.131 0 0 1-.021-.18l25.936-32.954a.125.125 0 0 1 .177-.021.131.131 0 0 1 .021.18l-25.936 32.954a.125.125 0 0 1-.177.021z" transform="translate(-53.024 -187.023)" style="fill:#8eb7e1"/>
        <path data-name="Path 67682" d="M881.978 831.027a.131.131 0 0 1-.031-.18l26.622-32.954a.128.128 0 0 1 .18-.018.131.131 0 0 1 .021.18l-26.625 32.954a.131.131 0 0 1-.168.018z" transform="translate(-62.113 -189.986)" style="fill:#8eb7e1"/>
        <path data-name="Path 67683" d="M895.263 835.317a.128.128 0 0 1-.018-.18l27.33-32.954a.128.128 0 0 1 .18-.018.131.131 0 0 1 .018.18L895.455 835.3a.128.128 0 0 1-.192.018z" transform="translate(-71.349 -192.968)" style="fill:#8eb7e1"/>
        <path data-name="Path 67684" d="M908.676 839.642a.128.128 0 0 1 0-.18l28.05-32.953a.128.128 0 1 1 .2.165l-28.05 32.954a.128.128 0 0 1-.2.015z" transform="translate(-80.677 -195.968)" style="fill:#8eb7e1"/>
        <path data-name="Path 67685" d="M922.206 844.057a.128.128 0 0 1 0-.18l28.789-32.954a.125.125 0 0 1 .18 0 .128.128 0 0 1 0 .18l-28.786 32.954a.128.128 0 0 1-.183 0z" transform="translate(-90.079 -199.048)" style="fill:#8eb7e1"/>
        <g data-name="Group 23713">
            <path data-name="Path 67686" d="M1331.22 317.362c.148-.4.312-.8.49-1.187a.372.372 0 0 0 .037-.163.393.393 0 0 0-.742-.171 12.988 12.988 0 0 0-.516 1.25.395.395 0 1 0 .742.271z" transform="translate(-376.523 143.972)" style="fill:#d0e5f6"/>
            <path data-name="Path 67687" d="M1332.517 351.643a.393.393 0 0 0-.178.53c.2.4.419.8.653 1.179a.4.4 0 0 0 .545.134.412.412 0 0 0 .189-.338.392.392 0 0 0-.06-.208c-.223-.371-.43-.742-.619-1.113a.4.4 0 0 0-.53-.185z" transform="translate(-377.675 121.342)" style="fill:#d0e5f6"/>
            <path data-name="Path 67688" d="M1351.938 370.971a.4.4 0 0 0 .193.527 12.576 12.576 0 0 0 1.246.516.393.393 0 0 0 .508-.234.417.417 0 0 0 .022-.134.371.371 0 0 0-.26-.371c-.4-.145-.8-.312-1.183-.49a.4.4 0 0 0-.527.185z" transform="translate(-390.009 109.299)" style="fill:#d0e5f6"/>
            <path data-name="Path 67689" d="M1337.493 359.482a.393.393 0 0 0-.055.556c.285.349.586.686.9 1.005a.393.393 0 0 0 .56 0 .394.394 0 0 0 .007-.556c-.3-.308-.582-.627-.853-.957a.393.393 0 0 0-.556-.048z" transform="translate(-380.852 116.443)" style="fill:#d0e5f6"/>
            <path data-name="Path 67690" d="M1329.033 326.146c.052-.423.122-.849.211-1.265a.277.277 0 0 0 0-.078.39.39 0 0 0-.312-.389.393.393 0 0 0-.471.3c-.093.438-.167.886-.223 1.331a.4.4 0 1 0 .786.1z" transform="translate(-375.118 138.451)" style="fill:#d0e5f6"/>
            <path data-name="Path 67691" d="M1344.088 366.031a.394.394 0 0 0 .067.553c.371.278.723.541 1.113.783a.4.4 0 1 0 .43-.664 11.744 11.744 0 0 1-1.046-.742.393.393 0 0 0-.564.07z" transform="translate(-385.04 112.365)" style="fill:#d0e5f6"/>
            <path data-name="Path 67692" d="M1360.755 374a.4.4 0 0 0 .3.471c.437.093.883.171 1.328.226a.393.393 0 0 0 .441-.345.181.181 0 0 0 0-.044.393.393 0 0 0-.345-.4 14.584 14.584 0 0 1-1.265-.215.4.4 0 0 0-.459.307z" transform="translate(-395.573 107.445)" style="fill:#d0e5f6"/>
            <path data-name="Path 67693" d="M1330.268 344.553a.481.481 0 0 0 0-.13c-.137-.4-.256-.816-.371-1.231a.4.4 0 0 0-.771.185c.107.438.234.872.371 1.3a.4.4 0 0 0 .772-.122z" transform="translate(-375.675 126.817)" style="fill:#d0e5f6"/>
            <path data-name="Path 67694" d="M1328.8 335.357a.152.152 0 0 0 0-.041 14.747 14.747 0 0 1-.071-1.28.4.4 0 1 0-.793 0c0 .449.033.9.078 1.346a.394.394 0 1 0 .786-.037z" transform="translate(-374.934 132.641)" style="fill:#d0e5f6"/>
            <path data-name="Path 67695" d="M1370.327 374.455a.4.4 0 0 0-.4.393.4.4 0 0 0 .4.393c.453 0 .916-.03 1.361-.074a.393.393 0 0 0 .371-.389.175.175 0 0 0 0-.041.389.389 0 0 0-.43-.371 9.7 9.7 0 0 1-1.302.089z" transform="translate(-401.351 107.022)" style="fill:#d0e5f6"/>
            <path data-name="Path 67696" d="M1335.524 309.176a.4.4 0 0 0-.552.093c-.122.178-.245.371-.371.538a.4.4 0 1 0 .664.43c.111-.171.23-.345.345-.508a.394.394 0 0 0-.093-.553z" transform="translate(-379.073 148.079)" style="fill:#d0e5f6"/>
            <path data-name="Path 67697" d="M1365.48 289.87a.393.393 0 0 0 .338-.371.3.3 0 0 0 0-.063.4.4 0 0 0-.452-.334c-.212.034-.427.071-.638.111a.389.389 0 0 0-.311.464.4.4 0 0 0 .463.315 4.814 4.814 0 0 1 .6-.122z" transform="translate(-397.877 160.664)" style="fill:#d0e5f6"/>
            <path data-name="Path 67698" d="M1380.836 289.8a.393.393 0 0 0 .308.467c.412.085.824.189 1.224.308a.389.389 0 0 0 .489-.267.361.361 0 0 0 0-.108.393.393 0 0 0-.285-.371 14.863 14.863 0 0 0-1.287-.326.4.4 0 0 0-.449.3z" transform="translate(-408.206 160.415)" style="fill:#d0e5f6"/>
            <path data-name="Path 67699" d="M1389.561 292.544a.4.4 0 0 0 .2.523c.371.174.742.371 1.113.571a.4.4 0 1 0 .371-.69 13.509 13.509 0 0 0-1.183-.6.4.4 0 0 0-.501.196z" transform="translate(-413.679 158.635)" style="fill:#d0e5f6"/>
            <path data-name="Path 67700" d="M1404.1 303.854c.271.319.53.653.775.994a.395.395 0 1 0 .642-.46c-.256-.371-.53-.712-.816-1.05a.4.4 0 1 0-.6.516z" transform="translate(-422.773 151.806)" style="fill:#d0e5f6"/>
            <path data-name="Path 67701" d="M1412.5 319.843c.111.4.2.816.278 1.228a.393.393 0 0 0 .782-.063.456.456 0 0 0 0-.074 15.829 15.829 0 0 0-.293-1.3.393.393 0 0 0-.482-.278.4.4 0 0 0-.286.486z" transform="translate(-428.123 141.636)" style="fill:#d0e5f6"/>
            <path data-name="Path 67702" d="M1409.189 311.4c.2.371.371.742.542 1.139a.4.4 0 1 0 .727-.315c-.171-.4-.371-.808-.568-1.2a.39.39 0 0 0-.534-.167.4.4 0 0 0-.167.542z" transform="translate(-426.02 147.003)" style="fill:#d0e5f6"/>
            <path data-name="Path 67703" d="M1397.467 297.132a.4.4 0 0 0 .078.553c.334.252.66.523.975.8a.393.393 0 0 0 .556-.033.41.41 0 0 0 .1-.26.389.389 0 0 0-.134-.3c-.326-.3-.671-.579-1.023-.846a.4.4 0 0 0-.557.078z" transform="translate(-418.625 155.71)" style="fill:#d0e5f6"/>
            <path data-name="Path 67704" d="M1412.784 337.846a15.19 15.19 0 0 1-.275 1.231.4.4 0 0 0 .764.2c.115-.426.212-.864.289-1.3a.36.36 0 0 0 0-.067.4.4 0 0 0-.786-.07z" transform="translate(-428.135 130.197)" style="fill:#d0e5f6"/>
            <path data-name="Path 67705" d="M1413.865 328.732v1.261a.4.4 0 1 0 .79.033V328.7a.4.4 0 1 0-.79.03z" transform="translate(-428.989 136.011)" style="fill:#d0e5f6"/>
            <path data-name="Path 67706" d="M1372.107 288.584a.4.4 0 0 0 0 .794h.334a8.607 8.607 0 0 1 .927.033.4.4 0 0 0 .423-.371v-.026a.4.4 0 0 0-.371-.4 17.794 17.794 0 0 0-.976-.037z" transform="translate(-402.47 160.991)" style="fill:#d0e5f6"/>
            <path data-name="Path 67707" d="m1365.294 297.95-.961 2.032a9.781 9.781 0 0 0-2.937.842l-.326 2.908 1.625 2.808 4.584-.608-1.61 4.64 1.187 3.371 3.709.742-1.45 2.707.667 1.283 1.9 1.194a.178.178 0 0 0 .211 0l2.107-1.691a.178.178 0 0 0 .059-.2l-.742-2.121a9.762 9.762 0 0 0 1.528-2.782l2.2-.5a.182.182 0 0 0 .141-.159l.293-2.681a.183.183 0 0 0-.1-.189l-2.032-.961a9.931 9.931 0 0 0-.89-3.049l1.2-1.906a.177.177 0 0 0 0-.211l-1.691-2.107a.181.181 0 0 0-.208-.059l-2.118.76a9.784 9.784 0 0 0-2.785-1.528l-.5-2.2a.181.181 0 0 0-.159-.141l-2.685-.293a.178.178 0 0 0-.217.099z" transform="translate(-395.776 155.162)" style="fill:#d0e5f6"/>
            <path data-name="Path 67708" d="M1376.144 325.648a2.08 2.08 0 0 1-1.483 2.288l.211.6a2.715 2.715 0 0 0 1.94-2.574 2.412 2.412 0 0 0-.026-.4 2.715 2.715 0 0 0-1.435-2.032l-.211.608a2.077 2.077 0 0 1 1.004 1.51z" transform="translate(-404.326 139.002)" style="fill:#fff"/>
            <path data-name="Path 67709" d="M1366.19 311.909a6.628 6.628 0 0 0-4.08 1.354l.159.278a6.307 6.307 0 0 1 3.906-1.317 6.42 6.42 0 0 1 .653.041 6.26 6.26 0 0 1 3.279 1.357 6.376 6.376 0 0 1 2.062 6.973.152.152 0 0 0 .1.2.115.115 0 0 0 .048 0 .164.164 0 0 0 .152-.111v-.122a6.165 6.165 0 0 0 .248-1.038c0-.07.026-.141.033-.215a5.95 5.95 0 0 0 .074-.69 6.676 6.676 0 0 0-5.934-6.676 6.011 6.011 0 0 0-.7-.034z" transform="translate(-396.431 146.313)" style="fill:#fff"/>
            <path data-name="Path 67710" d="m1351.939 322.346-3.538-.712-1.191-3.375 1.569-4.517a.078.078 0 0 0-.082-.1l-4.451.59-1.624-2.8.326-2.911-.111.052-1.9-1.2a.185.185 0 0 0-.215 0l-2.107 1.688a.192.192 0 0 0-.059.208l.742 2.118a9.92 9.92 0 0 0-1.528 2.785l-2.192.5a.185.185 0 0 0-.145.163l-.293 2.681a.189.189 0 0 0 .1.189l2.036.961a9.745 9.745 0 0 0 .89 3.049l-1.2 1.9a.189.189 0 0 0 0 .215l1.692 2.107a.192.192 0 0 0 .208.059l2.118-.76a9.869 9.869 0 0 0 2.785 1.528l.5 2.192a.185.185 0 0 0 .16.145l2.685.293a.186.186 0 0 0 .185-.1l.961-2.036a9.678 9.678 0 0 0 3.049-.89l-.668-1.283 1.369-2.548a.134.134 0 0 0-.071-.191z" transform="translate(-379.461 149.195)" style="fill:#d0e5f6"/>
            <path data-name="Path 67711" d="M1363.309 332.061a2.286 2.286 0 0 1-.274.059 2.084 2.084 0 0 1-2.348-1.773 1.793 1.793 0 0 1 0-.311 2.073 2.073 0 0 1 .419-1.231 2.048 2.048 0 0 1 1.373-.8 2.077 2.077 0 0 1 1.328.26l.215-.6a2.714 2.714 0 1 0-.886 5.093 2.8 2.8 0 0 0 .4-.09z" transform="translate(-395.135 136.603)" style="fill:#fff"/>
            <path data-name="Path 67712" d="M1351.771 320.3a6.676 6.676 0 0 0 3.449 11.839c.226.022.453.037.679.037a6.652 6.652 0 0 0 2.83-.6.16.16 0 0 0 .078-.211.152.152 0 0 0-.141-.093.145.145 0 0 0-.067 0 6.338 6.338 0 0 1-2.7.579 3.749 3.749 0 0 1-.642-.037 6.357 6.357 0 0 1-3.29-11.279l.111-.082-.16-.278z" transform="translate(-388.358 141.117)" style="fill:#fff"/>
        </g>
        <g data-name="Group 23714">
            <path data-name="Path 67686" d="M.582 1.335C.7 1.026.821.718.959.42A.286.286 0 0 0 .987.295.3.3 0 0 0 .416.163a9.994 9.994 0 0 0-.4.963.3.3 0 0 0 .572.209z" transform="rotate(-11 3019.957 -3359.073)" style="fill:#d0e5f6"/>
            <path data-name="Path 67687" d="M.17.03a.3.3 0 0 0-.138.409c.154.309.323.614.5.909a.306.306 0 0 0 .42.1.318.318 0 0 0 .146-.26.3.3 0 0 0-.046-.16A15.396 15.396 0 0 1 .578.173.306.306 0 0 0 .17.03z" transform="rotate(-11 3073.086 -3366.93)" style="fill:#d0e5f6"/>
            <path data-name="Path 67688" d="M.028.172a.306.306 0 0 0 .149.406 9.723 9.723 0 0 0 .96.4A.3.3 0 0 0 1.529.8a.319.319 0 0 0 .017-.1.286.286 0 0 0-.2-.286A12.204 12.204 0 0 1 .434.029a.306.306 0 0 0-.406.143z" transform="rotate(-11 3098.7 -3398.756)" style="fill:#d0e5f6"/>
            <path data-name="Path 67689" d="M.112.072A.3.3 0 0 0 .07.5c.22.269.451.529.692.774a.3.3 0 0 0 .432 0 .286.286 0 0 0 .091-.214A.286.286 0 0 0 1.2.846C.97.609.75.363.541.109A.3.3 0 0 0 .112.072z" transform="rotate(-11 3083.913 -3375.535)" style="fill:#d0e5f6"/>
            <path data-name="Path 67690" d="M.617 1.342C.657 1.016.711.688.78.367a.212.212 0 0 0 0-.06.3.3 0 0 0-.24-.3.3.3 0 0 0-.363.235C.105.579.048.925.005 1.268a.306.306 0 1 0 .606.074z" transform="rotate(-11 3033.3 -3357.01)" style="fill:#d0e5f6"/>
            <path data-name="Path 67691" d="M.065.122a.3.3 0 0 0 .051.426c.286.214.557.417.857.6A.3.3 0 1 0 1.305.64 9.073 9.073 0 0 1 .5.068a.3.3 0 0 0-.435.054z" transform="rotate(-11 3092.59 -3386.344)" style="fill:#d0e5f6"/>
            <path data-name="Path 67692" d="M.007.24A.306.306 0 0 0 .241.6c.337.071.68.131 1.023.174A.3.3 0 0 0 1.6.512a.162.162 0 0 0 0-.034.3.3 0 0 0-.261-.307C1.013.131.684.074.364.006A.306.306 0 0 0 .007.24z" transform="rotate(-11 3101.792 -3412.302)" style="fill:#d0e5f6"/>
            <path data-name="Path 67693" d="M.887 1.275a.388.388 0 0 0 0-.1A18.588 18.588 0 0 1 .6.226a.306.306 0 0 0-.593.143c.083.337.18.672.286 1a.306.306 0 0 0 .595-.094z" transform="rotate(-11 3060.621 -3360.966)" style="fill:#d0e5f6"/>
            <path data-name="Path 67694" d="M.666 1.323a.116.116 0 0 0 0-.031A11.19 11.19 0 0 1 .611.306a.306.306 0 1 0-.611 0C0 .652.026 1 .06 1.343a.3.3 0 1 0 .606-.029z" transform="rotate(-11 3047.044 -3357.898)" style="fill:#d0e5f6"/>
            <path data-name="Path 67695" d="M.306.07A.311.311 0 0 0 0 .373a.311.311 0 0 0 .311.3C.66.676 1.017.653 1.36.619a.3.3 0 0 0 .286-.3.12.12 0 0 0 0-.031A.3.3 0 0 0 1.314 0 7.479 7.479 0 0 1 .306.07z" transform="rotate(-11 3101.482 -3426.03)" style="fill:#d0e5f6"/>
            <path data-name="Path 67696" d="M.775.056a.306.306 0 0 0-.426.072C.255.265.161.414.063.542a.306.306 0 1 0 .512.332C.661.742.752.608.841.482A.3.3 0 0 0 .769.057z" transform="rotate(-11 3009.693 -3364.154)" style="fill:#d0e5f6"/>
            <path data-name="Path 67697" d="M.827.6a.3.3 0 0 0 .26-.286.277.277 0 0 0 0-.049A.306.306 0 0 0 .738 0C.575.029.409.058.247.089a.3.3 0 0 0-.24.357.306.306 0 0 0 .357.243A3.7 3.7 0 0 1 .827.6z" transform="rotate(-11 2975.735 -3405.651)" style="fill:#d0e5f6"/>
            <path data-name="Path 67698" d="M.007.233a.3.3 0 0 0 .237.36c.317.066.634.146.943.237a.3.3 0 0 0 .377-.206.283.283 0 0 0 0-.083.3.3 0 0 0-.22-.286A13.336 13.336 0 0 0 .352 0a.306.306 0 0 0-.345.233z" transform="rotate(-11 2973.987 -3430.073)" style="fill:#d0e5f6"/>
            <path data-name="Path 67699" d="M.027.171a.306.306 0 0 0 .151.4c.286.134.572.286.857.44a.306.306 0 1 0 .286-.529A10.508 10.508 0 0 0 .41.019a.309.309 0 0 0-.383.152z" transform="rotate(-11 2976.934 -3443.39)" style="fill:#d0e5f6"/>
            <path data-name="Path 67700" d="M.088.521c.209.246.409.5.6.766A.3.3 0 1 0 1.18.932 10.437 10.437 0 0 0 .551.124a.306.306 0 1 0-.463.4z" transform="rotate(-11 2990.971 -3466.387)" style="fill:#d0e5f6"/>
            <path data-name="Path 67701" d="M.01.385c.09.315.157.629.215.946a.3.3 0 0 0 .6-.049.384.384 0 0 0 0-.057 10.456 10.456 0 0 0-.225-1A.3.3 0 0 0 .23.01a.306.306 0 0 0-.22.375z" transform="rotate(-11 3013.752 -3481.316)" style="fill:#d0e5f6"/>
            <path data-name="Path 67702" d="M.037.454c.151.286.286.572.417.877a.305.305 0 1 0 .56-.243A15.262 15.262 0 0 0 .577.165.3.3 0 0 0 .165.037a.306.306 0 0 0-.128.417z" transform="rotate(-11 3001.57 -3475.138)" style="fill:#d0e5f6"/>
            <path data-name="Path 67703" d="M.06.122a.306.306 0 0 0 .06.426c.257.194.509.4.752.62a.3.3 0 0 0 .428-.026.317.317 0 0 0 .08-.2.3.3 0 0 0-.1-.229A12.312 12.312 0 0 0 .489.062a.306.306 0 0 0-.429.06z" transform="rotate(-11 2982.712 -3455.718)" style="fill:#d0e5f6"/>
            <path data-name="Path 67704" d="M.216.247C.159.564.088.884 0 1.2a.306.306 0 0 0 .589.157c.089-.329.163-.666.223-1A.311.311 0 0 0 .816.3.306.306 0 0 0 .211.247z" transform="rotate(-11 3040.73 -3483.945)" style="fill:#d0e5f6"/>
            <path data-name="Path 67705" d="M0 .345v.972a.306.306 0 1 0 .609.026V.322A.306.306 0 1 0 0 .344z" transform="rotate(-11 3026.822 -3484.64)" style="fill:#d0e5f6"/>
            <path data-name="Path 67706" d="M.306 0a.306.306 0 0 0 0 .612h.257a6.634 6.634 0 0 1 .714.028A.306.306 0 0 0 1.6.354v-.02a.309.309 0 0 0-.282-.305A10.567 10.567 0 0 0 .566 0z" transform="rotate(-11 2973.929 -3416.415)" style="fill:#d0e5f6"/>
            <path data-name="Path 67707" d="m3.255.082-.74 1.566A7.533 7.533 0 0 0 .251 2.3L0 4.537 1.252 6.7l3.532-.469-1.24 3.576.914 2.6 2.858.572L6.2 15.063l.514.989 1.463.92a.137.137 0 0 0 .163 0l1.623-1.3a.137.137 0 0 0 .046-.157l-.572-1.635a7.521 7.521 0 0 0 1.177-2.143l1.692-.386a.14.14 0 0 0 .109-.123l.226-2.066a.14.14 0 0 0-.08-.146l-1.566-.74a7.658 7.658 0 0 0-.686-2.349l.923-1.469a.137.137 0 0 0 0-.163l-1.3-1.623a.14.14 0 0 0-.16-.046l-1.632.586a7.533 7.533 0 0 0-2.15-1.181L5.607.339A.14.14 0 0 0 5.484.23L3.415 0a.137.137 0 0 0-.16.077z" transform="rotate(-11 2989.194 -3401.948)" style="fill:#d0e5f6"/>
            <path data-name="Path 67708" d="M1.143 1.632A1.6 1.6 0 0 1 0 3.4l.163.46a2.092 2.092 0 0 0 1.494-1.988 1.859 1.859 0 0 0-.02-.306A2.092 2.092 0 0 0 .531 0L.369.469a1.6 1.6 0 0 1 .774 1.163z" transform="rotate(-11 3025.367 -3425.786)" style="fill:#fff"/>
            <path data-name="Path 67709" d="M3.144 0A5.107 5.107 0 0 0 0 1.043l.123.214A4.858 4.858 0 0 1 3.132.243a4.947 4.947 0 0 1 .5.031 4.825 4.825 0 0 1 2.53 1.047 4.913 4.913 0 0 1 1.589 5.372.117.117 0 0 0 .077.154.089.089 0 0 0 .037 0 .126.126 0 0 0 .117-.086v-.093a4.752 4.752 0 0 0 .192-.8c0-.054.02-.109.026-.166a4.665 4.665 0 0 0 .057-.532A5.144 5.144 0 0 0 3.684.026 4.623 4.623 0 0 0 3.144 0z" transform="rotate(-11 3009.915 -3405.5)" style="fill:#fff"/>
            <path data-name="Path 67710" d="m12.947 11.572-2.726-.549-.921-2.6 1.209-3.481a.06.06 0 0 0-.063-.08l-3.426.454-1.252-2.16L6.02.912l-.086.04L4.468.026a.143.143 0 0 0-.166 0l-1.623 1.3a.148.148 0 0 0-.046.16L3.2 3.119a7.643 7.643 0 0 0-1.173 2.146l-1.689.383a.143.143 0 0 0-.111.126L0 7.84a.146.146 0 0 0 .08.146l1.569.74a7.5 7.5 0 0 0 .686 2.349l-.925 1.466a.146.146 0 0 0 0 .166l1.3 1.623a.148.148 0 0 0 .16.046l1.63-.586a7.6 7.6 0 0 0 2.146 1.177l.383 1.689a.143.143 0 0 0 .123.111l2.069.226a.143.143 0 0 0 .143-.08l.74-1.569a7.458 7.458 0 0 0 2.349-.686l-.514-.989L13 11.707a.1.1 0 0 0-.053-.135z" transform="rotate(-11 3006.967 -3364.819)" style="fill:#d0e5f6"/>
            <path data-name="Path 67711" d="M2.512 3.634a1.748 1.748 0 0 1-.212.046A1.606 1.606 0 0 1 .492 2.314a1.376 1.376 0 0 1 0-.24 1.6 1.6 0 0 1 .323-.949A1.578 1.578 0 0 1 1.872.5 1.6 1.6 0 0 1 2.9.7l.161-.461a2.091 2.091 0 1 0-.683 3.924 2.166 2.166 0 0 0 .306-.069z" transform="rotate(-11 3033.12 -3404.647)" style="fill:#fff"/>
            <path data-name="Path 67712" d="M1.921.1a5.144 5.144 0 0 0 2.658 9.122c.174.017.349.029.523.029a5.123 5.123 0 0 0 2.18-.466.123.123 0 0 0 .06-.163.117.117 0 0 0-.109-.071.112.112 0 0 0-.051 0A4.884 4.884 0 0 1 5.1 9a2.886 2.886 0 0 1-.494-.029A4.9 4.9 0 0 1 2.073.277l.086-.063L2.036 0z" transform="rotate(-11 3024.014 -3387.633)" style="fill:#fff"/>
        </g>
        <path data-name="Path 67740" d="m712.669 814.159 16.187-8.684-5.806-19.855-16.339 8.165z" transform="translate(187.653 -159.705)" style="fill:#e9bb7e"/>
        <path data-name="Path 67741" d="m693.816 785.1-7.833-.229-5.736.095-15.607 7.6 12.837.7z" transform="translate(216.887 -159.184)" style="fill:#fecd8d"/>
        <path data-name="Path 67742" d="m683.436 831.169-12.779-1.419-6.017-19.65 12.837.7z" transform="translate(216.887 -176.715)" style="fill:#c89c61"/>
        <path data-name="Path 67743" d="M1101.4 864.283a.035.035 0 0 1-.025-.064l16.071-8.065a.04.04 0 0 1 .043.061l-16.068 8.064z" transform="translate(-214.594 -230.501)" style="fill:#b38459"/>
        <path data-name="Path 67744" d="m1097.066 882.417-12.672-.68a.033.033 0 0 1-.033-.037.034.034 0 0 1 .012-.023.034.034 0 0 1 .024-.008l12.669.68a.04.04 0 0 1 .034.037.037.037 0 0 1-.034.031z" transform="translate(-202.781 -248.234)" style="fill:#b38459"/>
        <path data-name="Path 67745" d="m696.913 785-15.882 8.071 1.306 4.458-1.974-.311-1.373-4.238 15.729-7.98z" transform="translate(206.916 -159.276)" style="fill:#fff"/>
        <path data-name="Path 67746" d="m743.34 876.158 11.982-.83 1.867-13.4-11.934.485z" transform="translate(162.201 -212.731)" style="fill:#e9bb7e"/>
        <path data-name="Path 67747" d="m744.55 853.459-4.607-2.237-3.443-1.482-11.348.345 7.466 3.86z" transform="translate(174.841 -204.26)" style="fill:#fecd8d"/>
        <path data-name="Path 67748" d="m726.865 868.473-7.235-4.273 1.684-13.328 7.466 3.86z" transform="translate(178.676 -205.046)" style="fill:#deb275"/>
        <path data-name="Path 67749" d="M1154.629 926.46a.027.027 0 0 1-.018-.021.024.024 0 0 1 .021-.024l11.744-.494a.024.024 0 0 1 .024.021.021.021 0 0 1-.021.021l-11.744.5z" transform="translate(-251.596 -278.982)" style="fill:#b38459"/>
        <path data-name="Path 67750" d="m1152.178 926.292-7.375-3.808a.023.023 0 1 1 .021-.04l7.353 3.8a.021.021 0 0 1 .007.015.021.021 0 0 1-.007.015.019.019 0 0 1 .001.018z" transform="translate(-244.773 -276.565)" style="fill:#b38459"/>
        <path data-name="Path 67751" d="m745.525 854.179-11.631.549-.418 3.005-1.1-.711.32-2.9 11.518-.537z" transform="translate(169.817 -206.936)" style="fill:#fff"/>
    </g>
</svg>
