<svg xmlns="http://www.w3.org/2000/svg" width="122" height="122" viewBox="0 0 122 122">
    <g data-name="Group 21044" transform="translate(-1695 -584)">
        <rect data-name="Rectangle 35685" width="122" height="122" rx="10" transform="translate(1695 584)" style="fill:#fff"/>
        <path d="M42.733-2.529c0 23.98-20.481 43.74-46.315 43.74S-60.6 21.451-60.6-2.529C-60.6-26.406-29.415-54.4-3.582-54.4S42.733-26.406 42.733-2.529z" transform="translate(1764.934 651.594)" style="fill:#6a78d1"/>
        <path data-name="Path 25308" d="M0 0h51v51H0z" style="fill:none" transform="translate(1731 620)"/>
        <path data-name="Path 25309" d="M24.25 27.379v12.75a2.131 2.131 0 0 0 2.125 2.125h12.75a2.131 2.131 0 0 0 2.125-2.125v-12.75a2.131 2.131 0 0 0-2.125-2.125h-12.75a2.131 2.131 0 0 0-2.125 2.125zM5.125 42.254h12.75A2.131 2.131 0 0 0 20 40.129v-12.75a2.131 2.131 0 0 0-2.125-2.125H5.125A2.131 2.131 0 0 0 3 27.379v12.75a2.131 2.131 0 0 0 2.125 2.125zM3 6.129v12.75A2.131 2.131 0 0 0 5.125 21h12.75A2.131 2.131 0 0 0 20 18.879V6.129A2.131 2.131 0 0 0 17.875 4H5.125A2.131 2.131 0 0 0 3 6.129zm27.519-3.4-9.031 9.01a2.116 2.116 0 0 0 0 3l9.031 9.031a2.116 2.116 0 0 0 3 0l9.031-9.031a2.116 2.116 0 0 0 0-3l-9.01-9.01a2.142 2.142 0 0 0-3.021 0z" transform="translate(1734.375 622.371)" style="fill:#fff"/>
    </g>
</svg>
