<svg xmlns="http://www.w3.org/2000/svg" width="1015.832" height="352.27" viewBox="0 0 1015.832 352.27">
    <g data-name="Group 23726">
        <path data-name="Path 67798" d="M1000.992 296.218a.9.9 0 0 1-.75-.433.867.867 0 0 1 .3-1.2 40.787 40.787 0 0 0 5.584-4.017.883.883 0 1 1 1.134 1.334 40.435 40.435 0 0 1-5.818 4.184.884.884 0 0 1-.45.133zm10.635-9.1a.834.834 0 0 1-.567-.217.867.867 0 0 1-.1-1.234 47.378 47.378 0 0 0 4.034-5.6.884.884 0 1 1 1.5.934 50.877 50.877 0 0 1-4.184 5.8.934.934 0 0 1-.684.25zm7.418-11.919a.985.985 0 0 1-.367 0 .884.884 0 0 1-.433-1.167 59.691 59.691 0 0 0 2.467-6.468.884.884 0 1 1 1.667.533 64.961 64.961 0 0 1-2.551 6.668.9.9 0 0 1-.75.367zm-325.31-12.621h-.25a.9.9 0 0 1-.883-.9.884.884 0 0 1 .883-.867h.25a31.24 31.24 0 0 0 6.551-.75.85.85 0 0 1 1.034.667.867.867 0 0 1-.667 1.05 32.442 32.442 0 0 1-6.918.733zm329.6-.767h-.183a.884.884 0 0 1-.683-1.034 67.223 67.223 0 0 0 1.05-6.885.88.88 0 1 1 1.75.183 71.255 71.255 0 0 1-1.084 7.051.867.867 0 0 1-.85.617zm-336.73-.533a.865.865 0 0 1-.35 0 11.9 11.9 0 0 1-5.568-5.068.9.9 0 0 1 .317-1.217.884.884 0 0 1 1.2.317 10 10 0 0 0 4.834 4.151.884.884 0 0 1-.35 1.667zm20.57-1.55a.88.88 0 0 1-.317-1.7 43.549 43.549 0 0 0 6.2-3.017.883.883 0 0 1 1.2.317.867.867 0 0 1-.317 1.2 43.58 43.58 0 0 1-6.451 3.134.684.684 0 0 1-.3 0zm12.169-7a.884.884 0 0 1-.517-1.667q2.85-2.034 5.651-4.151a.85.85 0 0 1 1.217.167.884.884 0 0 1-.15 1.234 228.472 228.472 0 0 1-5.7 4.184.817.817 0 0 1-.483.167zm-684.879-1.95a.883.883 0 0 1-.85-.65 57.841 57.841 0 0 1-1.417-7 .867.867 0 0 1 .75-.984.9.9 0 0 1 1 .75 55.011 55.011 0 0 0 1.367 6.785.867.867 0 0 1-.617 1.067.567.567 0 0 1-.237.03zm645.122-.8a.9.9 0 0 1-.884-.917 16.4 16.4 0 0 1 2.05-7.068.884.884 0 0 1 1.55.817 14.537 14.537 0 0 0-1.834 6.318.884.884 0 0 1-.8.85zm345.065-2.217a.883.883 0 0 1-.883-.883v-.667a51.42 51.42 0 0 0-.25-6.2.867.867 0 0 1 .8-.95.9.9 0 0 1 .95.8 81.1 81.1 0 0 1 .267 6.351v.767a.867.867 0 0 1-.733.783zM730.53 244.11a.834.834 0 0 1-.667-.317.867.867 0 0 1 .117-1.234c1.817-1.5 3.6-3.034 5.318-4.551a.874.874 0 1 1 1.167 1.3c-1.667 1.55-3.534 3.1-5.368 4.6a.9.9 0 0 1-.567.2zm-44.842-6.518a.834.834 0 0 1-.6-.233.883.883 0 0 1 0-1.234 44.191 44.191 0 0 1 4.634-4.284l.683-.533a.883.883 0 1 1 1.083 1.384l-.667.533a39.015 39.015 0 0 0-4.434 4.1.9.9 0 0 1-.7.267zm-653.14-.717a.9.9 0 0 1-.884-.867v-.8a63.027 63.027 0 0 1 .333-6.335.883.883 0 1 1 1.667.183 59.31 59.31 0 0 0-.333 6.168v.75a.9.9 0 0 1-.788.899zm708.467-2.134a.867.867 0 0 1-.633-.267.883.883 0 0 1 0-1.25c1.667-1.667 3.334-3.334 4.884-5a.884.884 0 0 1 1.3 1.184l-5 5a.884.884 0 0 1-.533.333zm282.586-.984a.867.867 0 0 1-.85-.733c-.417-2.3-.95-4.568-1.567-6.768a.867.867 0 0 1 .6-1.084.883.883 0 0 1 1.083.6 97.841 97.841 0 0 1 1.667 6.951.867.867 0 0 1-.7 1.017zm-627.868-2.55h-5.468a.867.867 0 0 1-.85-.9.883.883 0 0 1 .9-.85h7a.9.9 0 0 1 .9.884.883.883 0 0 1-.883.883zm8.635-.15a.884.884 0 0 1 0-1.767c2.334 0 4.668-.2 7-.367a.867.867 0 0 1 .934.817.9.9 0 0 1-.817.95c-2.35.15-4.7.267-7.051.367zm-21.1-.183c-2.4-.133-4.751-.3-7.1-.5a.884.884 0 0 1-.8-.95.867.867 0 0 1 .95-.8c2.334.2 4.668.367 7 .483a.883.883 0 0 1 .817.934.867.867 0 0 1-.867.884zm35.14-.767a.85.85 0 0 1-.867-.784.884.884 0 0 1 .784-.967 239.29 239.29 0 0 0 6.968-.767.883.883 0 0 1 .983.75.867.867 0 0 1-.767.984c-2.334.3-4.668.567-7.018.783zm-49.159-.433h-.117c-2.084-.25-4.184-.533-6.285-.833l-.717-.1a.9.9 0 0 1-.733-1 .884.884 0 0 1 1-.75l.7.117c2.084.3 4.167.567 6.251.817a.884.884 0 0 1-.1 1.75zm327.428-.934a.9.9 0 0 1-.733-.4.883.883 0 0 1 .25-1.217 91.66 91.66 0 0 1 6.084-3.684.884.884 0 0 1 .85 1.534 88.896 88.896 0 0 0-5.968 3.617.867.867 0 0 1-.483.2zM432.3 228.4a.883.883 0 0 1-.133-1.667c2.3-.35 4.6-.75 6.9-1.167a.867.867 0 1 1 .317 1.667c-2.3.433-4.634.833-6.951 1.184zm-77.048-.767h-.167a243.619 243.619 0 0 1-6.918-1.367.9.9 0 0 1-.684-1.05.884.884 0 0 1 1.05-.683c2.284.5 4.568.95 6.868 1.367a.883.883 0 0 1-.15 1.75zm90.884-1.784a.883.883 0 0 1-.183-1.667c2.284-.483 4.568-1 6.835-1.567a.883.883 0 1 1 .417 1.717 316.68 316.68 0 0 1-6.885 1.584zM341.5 224.671h-.217a316.448 316.448 0 0 1-6.835-1.817.884.884 0 0 1-.6-1.1.867.867 0 0 1 1.084-.6c2.25.633 4.5 1.234 6.768 1.8a.884.884 0 0 1-.2 1.667zm409.027-.233a.834.834 0 0 1-.567-.217.883.883 0 0 1-.117-1.234c1.5-1.8 2.951-3.651 4.317-5.484a.884.884 0 0 1 1.234-.2.9.9 0 0 1 .183 1.234 113.012 113.012 0 0 1-4.384 5.584.884.884 0 0 1-.6.317zm-716.55-1.567h-.183a.883.883 0 0 1-.683-1.05 74.996 74.996 0 0 1 1.85-6.868.867.867 0 0 1 1.1-.567.9.9 0 0 1 .583 1.1 74.91 74.91 0 0 0-1.817 6.668.867.867 0 0 1-.85.717zm425.9-.383a.9.9 0 0 1-.85-.65.883.883 0 0 1 .617-1.084c2.25-.617 4.5-1.267 6.668-1.95a.883.883 0 1 1 .517 1.667c-2.25.683-4.517 1.334-6.785 1.967zm249.147-.533a.9.9 0 0 1-.8-.517.884.884 0 0 1 .433-1.167c2.1-.984 4.284-1.917 6.518-2.784a.892.892 0 0 1 .634 1.667 117.788 117.788 0 0 0-6.418 2.751.9.9 0 0 1-.37.049zm-380.938-1.117h-.267a284.746 284.746 0 0 1-6.668-2.234.9.9 0 0 1-.533-1.134.884.884 0 0 1 1.117-.533c2.217.767 4.434 1.517 6.668 2.217a.9.9 0 0 1 .583 1.1.867.867 0 0 1-.967.583zm691.8-.617a.917.917 0 0 1-.833-.584c-.767-2.117-1.667-4.3-2.6-6.468a.884.884 0 0 1 .45-1.167.917.917 0 0 1 1.167.45c.967 2.217 1.85 4.434 2.651 6.585a.867.867 0 0 1-.534 1.117.65.65 0 0 1-.333.067zm-546.5-1.8a.884.884 0 0 1-.834-.6.867.867 0 0 1 .55-1.117c2.217-.75 4.417-1.517 6.668-2.334a.886.886 0 0 1 .6 1.667c-2.2.8-4.434 1.584-6.668 2.334a.751.751 0 0 1-.35.05zm248.713-1.667a.884.884 0 0 1-.283-1.667 124.855 124.855 0 0 1 6.8-2 .867.867 0 0 1 1.067.617.883.883 0 0 1-.617 1.084c-2.284.6-4.551 1.267-6.668 1.967zm-407.343-.55a1.084 1.084 0 0 1-.317 0q-3.334-1.267-6.551-2.65a.9.9 0 1 1 .683-1.667c2.15.917 4.318 1.784 6.5 2.634a.867.867 0 0 1 .5 1.134.883.883 0 0 1-.817.55zm171.8-2.617a.883.883 0 0 1-.317-1.667 310.202 310.202 0 0 0 6.468-2.684.9.9 0 0 1 .7 1.667 239.327 239.327 0 0 1-6.518 2.7.8.8 0 0 1-.333-.033zm249.147-.417a.884.884 0 0 1-.183-1.75c2.25-.483 4.584-.95 6.935-1.367a.883.883 0 0 1 .317 1.667 187 187 0 0 0-6.868 1.35zm23.338 0a1 1 0 0 1-.483-.133.883.883 0 0 1-.25-1.217 105.213 105.213 0 0 0 3.551-6 .9.9 0 0 1 1.2-.35.884.884 0 0 1 .35 1.2 91.961 91.961 0 0 1-3.634 6.1.85.85 0 0 1-.834.333zm-457.264-2.47a.949.949 0 0 1-.367 0c-2.134-.984-4.268-2-6.368-3.051a.85.85 0 0 1-.4-1.167.867.867 0 0 1 1.167-.4c2.1 1.034 4.217 2.034 6.335 3.017a.867.867 0 0 1-.367 1.667zm447.7 0a.883.883 0 0 1-.117-1.75c2.317-.317 4.668-.617 7-.867a.884.884 0 0 1 .967.767.85.85 0 0 1-.767.967c-2.334.267-4.651.55-6.968.883zm-711.216-1.165a.868.868 0 0 1-.35 0 .9.9 0 0 1-.45-1.167 80.18 80.18 0 0 1 3.067-6.4.884.884 0 0 1 1.55.817 82.883 82.883 0 0 0-3 6.285.884.884 0 0 1-.817.465zm725.137-.4a.884.884 0 0 1 0-1.667c2.35-.2 4.7-.367 7.035-.517a.884.884 0 0 1 .117 1.667c-2.334.15-7.051.517-7.085.517zm14.053-.884a.883.883 0 1 1 0-1.767l7.035-.267a.917.917 0 0 1 .917.85.867.867 0 0 1-.85.9zM499.415 208a.9.9 0 0 1-.8-.517.867.867 0 0 1 .417-1.167c2.117-.984 4.234-2 6.318-3.034a.867.867 0 0 1 1.184.383.884.884 0 0 1-.4 1.184 277.23 277.23 0 0 1-6.351 3.067 1.05 1.05 0 0 1-.3.083zm292.1-.233a.883.883 0 0 1-.884-.85.9.9 0 0 1 .867-.9c2.334 0 4.684-.133 7.035-.15a.883.883 0 1 1 0 1.667zm14.069-.267a.884.884 0 0 1-.883-.867.9.9 0 0 1 .867-.9l7.051-.1a.867.867 0 0 1 .883.867.883.883 0 0 1-.867.9zm208.556-.167a.867.867 0 0 1-.783-.483 152.14 152.14 0 0 0-3.334-6.168.85.85 0 0 1 .333-1.184.884.884 0 0 1 1.2.317c1.184 2.1 2.3 4.184 3.334 6.235a.884.884 0 0 1-.783 1.284zm-194.487 0a.884.884 0 1 1 0-1.767l7.035-.117a.883.883 0 0 1 0 1.767zm14.086-.25a.884.884 0 0 1-.033-1.767l7.035-.183a.884.884 0 0 1 .917.85.9.9 0 0 1-.867.917zm14.069-.417a.883.883 0 0 1 0-1.767c2.334 0 4.684-.2 7.018-.317a.884.884 0 1 1 0 1.767zm14.053-.717a.884.884 0 0 1-.883-.817.867.867 0 0 1 .833-.933q3.5-.233 7-.5a.883.883 0 0 1 .95.8.9.9 0 0 1-.817.95c-2.267.15-7 .467-7.018.467zm14.019-1.117a.9.9 0 0 1-.867-.8.884.884 0 0 1 .783-.967c2.334-.217 4.668-.467 6.985-.75a.883.883 0 0 1 .967.783.85.85 0 0 1-.767.967c-2.334.283-4.667.533-7 .767zm-586.772-.332a.9.9 0 0 1-.417-.1 223.649 223.649 0 0 1-6.185-3.434.874.874 0 1 1 .867-1.517 147.134 147.134 0 0 0 6.134 3.334.883.883 0 0 1 .367 1.2.867.867 0 0 1-.7.55zm600.763-1.317a.884.884 0 0 1-.133-1.667 327.03 327.03 0 0 0 6.951-1.067.878.878 0 0 1 .283 1.734 343.6 343.6 0 0 1-6.985 1.067zM512 201.75a.875.875 0 0 1-.417-1.65c2.067-1.1 4.117-2.234 6.135-3.334a.883.883 0 0 1 1.2.333.867.867 0 0 1-.317 1.2 317.21 317.21 0 0 1-6.185 3.417.951.951 0 0 1-.35 0zm391.74-.867a.884.884 0 0 1-.85-.717.867.867 0 0 1 .7-1.034 198.15 198.15 0 0 0 6.851-1.434.85.85 0 0 1 1.05.667.867.867 0 0 1-.667 1.05q-3.451.783-6.9 1.45zm-138.126 0a.9.9 0 0 1-.367-.083.867.867 0 0 1-.434-1.167c.217-.467.417-.934.634-1.417.7-1.667 1.367-3.334 1.967-5a.886.886 0 1 1 1.667.6c-.617 1.667-1.3 3.451-2.034 5.134-.2.483-.417.967-.633 1.45a.867.867 0 0 1-.717.367zm151.862-3.034a.85.85 0 0 1-.85-.65.9.9 0 0 1 .633-1.083c2.25-.583 4.5-1.2 6.668-1.867a.85.85 0 0 1 1.083.583.867.867 0 0 1-.583 1.1c-2.267.667-4.534 1.3-6.818 1.9zm-640.587-.267a.833.833 0 0 1-.467-.133c-2-1.217-3.984-2.484-5.951-3.784a.867.867 0 0 1-.267-1.217.883.883 0 0 1 1.217-.25 221.21 221.21 0 0 0 5.934 3.751.9.9 0 0 1 .283 1.217.883.883 0 0 1-.683.3zm-232.11-.35a.883.883 0 0 1-.75-1.35 104.26 104.26 0 0 1 4.034-5.851.883.883 0 0 1 1.234-.167.867.867 0 0 1 .183 1.217 97.777 97.777 0 0 0-3.967 5.734.867.867 0 0 1-.667.3zm962.431-2.032a.9.9 0 0 1-.75-.417 219.362 219.362 0 0 0-3.767-5.9.883.883 0 0 1 .25-1.217.85.85 0 0 1 1.217.25q1.95 2.951 3.8 5.951a.85.85 0 0 1-.283 1.2.95.95 0 0 1-.4.017zm-482.991-.333a.879.879 0 0 1-.45-1.634c2-1.217 3.984-2.45 5.934-3.734a.885.885 0 1 1 .967 1.484 254.751 254.751 0 0 1-5.984 3.751.951.951 0 0 1-.4.017zm406.743-1.017a.883.883 0 0 1-.284-1.667c2.217-.733 4.451-1.534 6.668-2.334a.889.889 0 1 1 .617 1.667c-2.184.833-4.434 1.667-6.668 2.367a.85.85 0 0 1-.267-.15zm-665.842-3.984a.917.917 0 0 1-.5-.15 275.585 275.585 0 0 1-5.734-4.134.887.887 0 0 1 1.067-1.417c1.867 1.4 3.767 2.767 5.668 4.1a.884.884 0 0 1-.5 1.667zm679.011-.967a.867.867 0 0 1-.8-.533.9.9 0 0 1 .467-1.167c2.15-.9 4.317-1.85 6.4-2.834a.914.914 0 0 1 .75 1.667c-2.117.984-4.284 1.95-6.468 2.867a.867.867 0 0 1-.283-.117zM770.3 187.631a.534.534 0 0 1-.217 0 .883.883 0 0 1-.633-1.067 79.702 79.702 0 0 0 1.45-6.8.883.883 0 0 1 1.017-.717.85.85 0 0 1 .717 1 76.838 76.838 0 0 1-1.484 6.968.883.883 0 0 1-.783.5zm-234.261-.417a.85.85 0 0 1-.717-.383.867.867 0 0 1 .217-1.217 293.189 293.189 0 0 0 5.718-4.051.867.867 0 0 1 1.234.183.9.9 0 0 1-.183 1.234 323.638 323.638 0 0 1-5.768 4.084.917.917 0 0 1-.433.033zm-482.858-1.25a.834.834 0 0 1-.567-.217.884.884 0 0 1-.083-1.25 108.343 108.343 0 0 1 4.818-5.2.9.9 0 0 1 1.25 0 .884.884 0 0 1 0 1.25 85.8 85.8 0 0 0-4.751 5.118.867.867 0 0 1-.6.183zm946.295-2.517a.867.867 0 0 1-.717-.383 504.213 504.213 0 0 0-4.034-5.751.884.884 0 1 1 1.434-1.017 450.308 450.308 0 0 1 4.051 5.768.883.883 0 0 1-.234 1.217.9.9 0 0 1-.433.05zm-42.525-.583a.871.871 0 0 1-.4-1.65c2.084-1.1 4.151-2.217 6.135-3.334a.883.883 0 1 1 .883 1.517c-2.017 1.167-4.1 2.3-6.2 3.334a.951.951 0 0 1-.417.133zm-703.016-1.517a.817.817 0 0 1-.533-.2 238.396 238.396 0 0 1-5.468-4.468.9.9 0 0 1-.1-1.25.867.867 0 0 1 1.234-.1c1.784 1.5 3.584 2.984 5.418 4.434a.9.9 0 0 1 .15 1.25.917.917 0 0 1-.7.333zm293.539-2.584a.917.917 0 0 1-.7-.333.883.883 0 0 1 .15-1.234 209.623 209.623 0 0 0 5.418-4.451.9.9 0 0 1 1.25.1.884.884 0 0 1-.117 1.25c-1.784 1.5-3.6 3-5.451 4.468a.9.9 0 0 1-.583.2zm-484.258-2.885a.85.85 0 0 1-.65-.3.883.883 0 0 1 0-1.25c1.35-1.167 2.751-2.317 4.151-3.334l1.367-1.05a.884.884 0 0 1 1.05 1.4l-1.334 1.034a160.259 160.259 0 0 0-4.084 3.334.85.85 0 0 1-.533.167zm905.854-.1a.886.886 0 0 1-.483-1.617 141.352 141.352 0 0 0 5.8-3.934.884.884 0 0 1 1.217.217.867.867 0 0 1-.2 1.217c-1.9 1.367-3.867 2.7-5.851 3.967a.867.867 0 0 1-.483.15zm-196.37-2.117a.884.884 0 0 1-.867-.95c.15-2 .233-4.017.233-5.984v-.967a.884.884 0 0 1 1.767 0v1a84.11 84.11 0 0 1-.233 6.118.9.9 0 0 1-.9.783zm-529.533-1.4a.933.933 0 0 1-.6-.233 202.973 202.973 0 0 1-5.168-4.8.883.883 0 1 1 1.217-1.267c1.667 1.667 3.334 3.2 5.134 4.768a.867.867 0 0 1 0 1.234.85.85 0 0 1-.583.3zm748.241-.417a.9.9 0 0 1-.717-.367l-4.117-5.718a.9.9 0 0 1 .217-1.234.884.884 0 0 1 1.217.2l4.117 5.718a.9.9 0 0 1-.2 1.234 1 1 0 0 1-.517.167zm-433.182-2.134a.873.873 0 0 1-.583-1.534l5.3-4.634a.867.867 0 0 1 1.234 0 .85.85 0 0 1-.083 1.234l-5.284 4.751a.884.884 0 0 1-.583.183zm422.363-2.117a.884.884 0 0 1-.55-1.567 129.53 129.53 0 0 0 5.351-4.5.867.867 0 0 1 1.233 0 .85.85 0 0 1 0 1.234c-1.667 1.55-3.567 3.084-5.418 4.567a.984.984 0 0 1-.617.267zm-906.2-.25a.883.883 0 0 1-.5-1.667c1.9-1.3 3.917-2.584 5.951-3.834a.886.886 0 1 1 .917 1.517c-2.017 1.234-4 2.5-5.884 3.767a.867.867 0 0 1-.483.217zM233 162.526a.85.85 0 0 1-.633-.267q-2.484-2.534-4.868-5.118a.883.883 0 0 1 1.3-1.184c1.667 1.667 3.184 3.334 4.818 5a.883.883 0 0 1 0 1.25.917.917 0 0 1-.617.317zm335.847-2.05a.867.867 0 0 1-.667-.3.9.9 0 0 1 .083-1.25c1.8-1.517 3.6-3.017 5.434-4.5a.867.867 0 0 1 1.234.133.883.883 0 0 1-.133 1.234 232.404 232.404 0 0 0-5.384 4.484.9.9 0 0 1-.567.2zm414.378 0a.85.85 0 0 1-.717-.383c-1.35-1.917-2.7-3.851-4.017-5.8a.883.883 0 0 1 1.467-.983c1.3 1.934 2.634 3.867 3.984 5.784a.867.867 0 0 1-.217 1.217.816.816 0 0 1-.5.083zm-896.836-.367a.85.85 0 0 1-.817-.583.867.867 0 0 1 .333-1.184c2-1.1 4.117-2.217 6.268-3.334a.867.867 0 0 1 1.167.4.85.85 0 0 1-.383 1.167c-2.134 1.084-4.217 2.184-6.2 3.334a.75.75 0 0 1-.367.117zm686.113-.417a.884.884 0 0 1-.867-.8 70.562 70.562 0 0 0-1.1-6.851.884.884 0 0 1 1.667-.367 73.899 73.899 0 0 1 1.134 7.035.884.884 0 0 1-.784.967zm218.591-1.367a.917.917 0 0 1-.633-.25.9.9 0 0 1 0-1.25c1.667-1.667 3.334-3.334 4.8-5a.884.884 0 0 1 1.317 1.167c-1.567 1.767-3.2 3.5-4.868 5.168a.884.884 0 0 1-.617.083zm-892.187-4.651a.833.833 0 0 1-.783-.5.867.867 0 0 1 .417-1.167c2.134-1 4.284-1.95 6.451-2.884a.867.867 0 0 1 1.15.45.9.9 0 0 1-.45 1.167c-2.15.917-4.284 1.884-6.4 2.867a1.033 1.033 0 0 1-.385.067zm124.507-1.5a.85.85 0 0 1-.65-.3q-2.325-2.675-4.551-5.418a.883.883 0 0 1 .133-1.234.867.867 0 0 1 1.234.133c1.484 1.817 2.984 3.6 4.5 5.368a.9.9 0 0 1-.083 1.25.917.917 0 0 1-.55.2zm356.35-.517a.85.85 0 0 1-.7-.35.867.867 0 0 1 .183-1.234c1.967-1.467 3.867-2.8 5.768-4.084a.883.883 0 0 1 .983 1.467 129.29 129.29 0 0 0-5.7 4.034.917.917 0 0 1-.5.167zm395.574-2.951a.883.883 0 0 1-.75-.417 144.12 144.12 0 0 1-3.617-6.084.884.884 0 0 1 .35-1.2.867.867 0 0 1 1.184.35 124.82 124.82 0 0 0 3.584 6 .884.884 0 0 1-.283 1.217.95.95 0 0 1-.434.133zm-863.5-.633a.867.867 0 0 1-.817-.533.884.884 0 0 1 .483-1.15c2.167-.9 4.351-1.767 6.551-2.617a.892.892 0 1 1 .633 1.667c-2.184.85-4.351 1.667-6.518 2.6a.85.85 0 0 1-.317.033zm888.5-.35a.85.85 0 0 1-.55-.183.883.883 0 0 1-.15-1.234 110.696 110.696 0 0 0 4.134-5.634.867.867 0 0 1 1.217-.217.884.884 0 0 1 .233 1.217 114.91 114.91 0 0 1-4.2 5.718.883.883 0 0 1-.6.333zm-230.877-1.85a.883.883 0 0 1-.833-.6 57.483 57.483 0 0 0-2.567-6.435.9.9 0 0 1 .417-1.184.867.867 0 0 1 1.167.433 62.21 62.21 0 0 1 2.65 6.668.883.883 0 0 1-.567 1.117.75.75 0 0 1-.183 0zm-177.96-2.017a.876.876 0 0 1-.45-1.634l6.051-3.6a.889.889 0 0 1 .9 1.534l-6.051 3.567a.933.933 0 0 1-.45.133zm-466.538-.9a.884.884 0 0 1-.817-.567.867.867 0 0 1 .5-1.134l6.668-2.484a.889.889 0 1 1 .617 1.667l-6.668 2.467a.767.767 0 0 1-.3.05zm89.634-1.667a.9.9 0 0 1-.7-.35 228.472 228.472 0 0 1-4.184-5.7.886.886 0 1 1 1.45-1.017c1.334 1.9 2.717 3.784 4.134 5.651a.884.884 0 0 1-.167 1.234.934.934 0 0 1-.533.083zm-76.448-3.267a.883.883 0 0 1-.317-1.667l6.668-2.484a.883.883 0 0 1 1.134.517.867.867 0 0 1-.5 1.134l-6.668 2.467a.65.65 0 0 1-.318.032zm465.488-1.284a.85.85 0 0 1-.75-.45.884.884 0 0 1 .317-1.2 672.629 672.629 0 0 1 6.134-3.467.883.883 0 0 1 1.2.35.867.867 0 0 1-.35 1.184c-2.05 1.15-4.1 2.3-6.118 3.467a.984.984 0 0 1-.433.117zm364.919-.333a.883.883 0 0 1-.8-.5 81.42 81.42 0 0 1-2.767-6.551.889.889 0 1 1 1.667-.617 78.296 78.296 0 0 0 2.7 6.418.867.867 0 0 1-.417 1.167.733.733 0 0 1-.383.083zm39.791-.217a.9.9 0 0 1-.45-.117.883.883 0 0 1-.317-1.2 72.857 72.857 0 0 0 3.217-6.168.88.88 0 0 1 1.6.733 68.092 68.092 0 0 1-3.334 6.318.883.883 0 0 1-.717.433zm-244.781-3.018a.867.867 0 0 1-.734-.417 53.916 53.916 0 0 0-4.067-5.6.867.867 0 0 1 .117-1.234.85.85 0 0 1 1.234.117 53.349 53.349 0 0 1 4.2 5.784.884.884 0 0 1-.75 1.35zm-612.265-.15a.884.884 0 0 1-.317-1.667c2.167-.85 4.334-1.667 6.5-2.617a.9.9 0 1 1 .683 1.667c-2.184.9-4.367 1.784-6.551 2.634a.717.717 0 0 1-.317-.017zm464.638-3.134a.917.917 0 0 1-.784-.45.9.9 0 0 1 .367-1.2c2.067-1.117 4.134-2.2 6.234-3.334a.883.883 0 0 1 .8 1.567 157.865 157.865 0 0 0-6.2 3.334.95.95 0 0 1-.417.083zm-409.478-.116a.9.9 0 0 1-.733-.4 153.95 153.95 0 0 1-3.334-5.151l-.5-.817a.884.884 0 0 1 1.5-.917l.5.817q1.667 2.584 3.334 5.1a.884.884 0 0 1-.733 1.367zm-42.16-2.134a.867.867 0 0 1-.8-.533.85.85 0 0 1 .45-1.15c2.134-.95 4.267-1.917 6.385-2.917a.883.883 0 0 1 1.167.417.9.9 0 0 1-.417 1.184c-2.134 1-4.284 1.967-6.435 2.917a.9.9 0 0 1-.35.083zm464.154-4.184a.884.884 0 0 1-.8-.5.867.867 0 0 1 .4-1.167c2.117-1.05 4.251-2.05 6.384-3.034a.883.883 0 0 1 1.167.417.867.867 0 0 1-.433 1.167c-2.117.984-4.234 2-6.334 3.017a.883.883 0 0 1-.382.1zm385.739-.117a.851.851 0 0 1-.283 0 .867.867 0 0 1-.55-1.117 54.894 54.894 0 0 0 1.667-6.668.867.867 0 0 1 1.017-.7.884.884 0 0 1 .717 1.017 55.947 55.947 0 0 1-1.8 6.935.884.884 0 0 1-.767.533zm-50.443-.133a.883.883 0 0 1-.867-.667 53.8 53.8 0 0 1-1.25-7.035.883.883 0 0 1 .767-.984.867.867 0 0 1 .967.783 50.809 50.809 0 0 0 1.217 6.8.9.9 0 0 1-.65 1.067zm-209.139-.85a.833.833 0 0 1-.6-.233 52.3 52.3 0 0 0-5.334-4.4.9.9 0 0 1-.183-1.234.867.867 0 0 1 1.217-.2 58.193 58.193 0 0 1 5.5 4.551.867.867 0 0 1-.6 1.517zm-577.592-.733a.9.9 0 0 1-.783-.483.883.883 0 0 1 .383-1.184c2.117-1.084 4.2-2.184 6.184-3.334a.884.884 0 0 1 1.2.35.867.867 0 0 1-.35 1.184c-2 1.117-4.1 2.234-6.235 3.334a.833.833 0 0 1-.4.133zm21.9-3.767a.884.884 0 0 1-.75-.417c-1.2-1.934-2.4-3.9-3.6-5.918-1.667 1.05-3.217 2.1-4.868 3.117a.9.9 0 0 1-1.217-.283.883.883 0 0 1 .3-1.217 143.642 143.642 0 0 0 5.868-3.8.883.883 0 0 1 1.3 1.084 581.023 581.023 0 0 0 3.634 6.018.85.85 0 0 1-.283 1.2.75.75 0 0 1-.383.217zm442.25-.283a.917.917 0 0 1-.817-.517.9.9 0 0 1 .467-1.167 235.328 235.328 0 0 1 6.535-2.684.9.9 0 0 1 1.15.5.884.884 0 0 1-.5 1.134c-2.167.85-4.334 1.667-6.485 2.667a.866.866 0 0 1-.283.05zm102.058-3.469a.984.984 0 0 1-.433-.117 69.68 69.68 0 0 0-6.218-3.084.867.867 0 0 1-.467-1.15.884.884 0 0 1 1.15-.467 65.278 65.278 0 0 1 6.4 3.167.884.884 0 0 1 .333 1.2.9.9 0 0 1-.7.433zm-88.95-1.667a.9.9 0 0 1-.834-.583.883.883 0 0 1 .55-1.117c2.284-.8 4.534-1.55 6.668-2.217a.9.9 0 0 1 1.1.6.867.867 0 0 1-.583 1.084c-2.167.667-4.4 1.4-6.668 2.184a.956.956 0 0 1-.167.05zm362.4-2.917a.9.9 0 0 1-.883-.9v-.767a34.6 34.6 0 0 0-.167-3.484 15.54 15.54 0 0 0-.35-2.567.884.884 0 0 1 1.667-.3c.167.9.283 1.8.367 2.7.117 1.2.167 2.434.167 3.667v.8a.884.884 0 0 1-.799.851zm-54.377-.283a.883.883 0 0 1-.883-.917v-.75a34.043 34.043 0 0 1 1.05-6.368.9.9 0 0 1 1.084-.633.884.884 0 0 1 .617 1.084 32.1 32.1 0 0 0-1 6.034v.717a.867.867 0 0 1-.867.85zm-231.91-.767a.733.733 0 0 1-.267 0 80.365 80.365 0 0 0-6.668-1.834.9.9 0 0 1-.667-1.05.883.883 0 0 1 1.067-.667 85.626 85.626 0 0 1 6.851 1.867.883.883 0 0 1-.267 1.667zm-62.578-.117a.884.884 0 0 1-.85-.667.867.867 0 0 1 .633-1.067 99.38 99.38 0 0 1 2.867-.683l4.051-.85a.884.884 0 0 1 1.034.683.867.867 0 0 1-.7 1.034c-1.334.267-2.667.55-3.984.85l-2.834.667zm-466.87-1.549a.85.85 0 0 1-.7-.35.867.867 0 0 1 .167-1.234c1.867-1.434 3.7-2.917 5.418-4.4a.917.917 0 0 1 1.25.1.867.867 0 0 1-.1 1.234c-1.75 1.517-3.6 3.017-5.5 4.467a.934.934 0 0 1-.533.2zm-9.118-1.1a.9.9 0 0 1-.767-.45c-1.217-2.2-2.3-4.234-3.334-6.251a.887.887 0 1 1 1.584-.8c1 2 2.067 4.017 3.334 6.2a.867.867 0 0 1-.333 1.184.8.8 0 0 1-.483.133zm489.792 0a.883.883 0 0 1-.117-1.75c2.334-.35 4.7-.633 7.018-.85a.884.884 0 0 1 .967.783.9.9 0 0 1-.8.967c-2.284.217-4.634.5-6.935.833zm35.007-.317h-.133c-2.25-.333-4.584-.6-6.935-.783a.883.883 0 0 1-.8-.95.867.867 0 0 1 .95-.817c2.384.2 4.751.467 7.051.8a.867.867 0 0 1 .733 1 .883.883 0 0 1-.8.7zm-20.937-1.067a.883.883 0 0 1 0-1.767c2.367-.1 4.734-.133 7.085 0a.85.85 0 0 1 .867.884.817.817 0 0 1-.883.867c-2.334 0-4.667 0-6.985.1zm-484.042-6.669a.9.9 0 0 1-.617-.267.884.884 0 0 1 0-1.25c1.667-1.667 3.334-3.334 4.8-5a.857.857 0 1 1 1.25 1.167c-1.484 1.684-3.151 3.4-4.818 5.068a.817.817 0 0 1-.683.267zm802.618-1.85a.867.867 0 0 1-.817-.533 31.745 31.745 0 0 0-3.334-6.018.884.884 0 0 1 .233-1.217.867.867 0 0 1 1.217.217 34.227 34.227 0 0 1 3.451 6.335.883.883 0 0 1-.483 1.15.85.85 0 0 1-.333.05zm-48.342 0a.984.984 0 0 1-.383 0 .883.883 0 0 1-.4-1.184 37.049 37.049 0 0 1 3.751-6.134.887.887 0 1 1 1.417 1.067 36.037 36.037 0 0 0-3.584 5.834.9.9 0 0 1-.884.35zm-780.33-2.684a.867.867 0 0 1-.817-.517 95.828 95.828 0 0 1-2.6-6.668.883.883 0 1 1 1.667-.583c.733 2.084 1.667 4.267 2.55 6.485a.867.867 0 0 1-.8 1.217zm35.34-6.034a.8.8 0 0 1-.533-.183.9.9 0 0 1-.183-1.234c.483-.617.934-1.234 1.384-1.867.883-1.234 1.667-2.534 2.5-3.867a.889.889 0 0 1 1.534.9c-.817 1.367-1.667 2.717-2.6 3.984-.45.65-.933 1.284-1.4 1.917a.883.883 0 0 1-.75.35zm753.47-2.484a.867.867 0 0 1-.567-1.534 29.657 29.657 0 0 1 5.984-4.067.883.883 0 0 1 .8 1.567 27.977 27.977 0 0 0-5.634 3.817.851.851 0 0 1-.7.217zm31.923-.267a.9.9 0 0 1-.583-.233 25.537 25.537 0 0 0-5.585-3.817.867.867 0 0 1-.4-1.167.85.85 0 0 1 1.167-.4 25.844 25.844 0 0 1 6 4.084.883.883 0 0 1-.6 1.534zM180.9 79.844a.867.867 0 0 1-.85-.667 62.222 62.222 0 0 1-1.35-7 .867.867 0 0 1 1.667-.233 63.551 63.551 0 0 0 1.317 6.818.884.884 0 0 1-.633 1.067zm805.818-1.45a.867.867 0 0 1-.85-.717.9.9 0 0 1 .7-1.034 23.087 23.087 0 0 1 7.185-.133v.884l-.133.867.133-.867-.217.867a21.087 21.087 0 0 0-6.668.117zM227.98 75.059a.9.9 0 0 1-.35-.083.884.884 0 0 1-.467-1.15 51.359 51.359 0 0 0 2.284-6.518.883.883 0 1 1 1.667.467 56.1 56.1 0 0 1-2.334 6.735.867.867 0 0 1-.8.467zm-48.826-9.052a.867.867 0 0 1-.883-.884 46.161 46.161 0 0 1 .45-5.734 7.024 7.024 0 0 1 .25-1.417.884.884 0 0 1 1.034-.7.9.9 0 0 1 .7 1.034c-.1.45-.167.9-.233 1.35a42.206 42.206 0 0 0-.45 5.484.867.867 0 0 1-.867.783zm52.51-4.484h-.1a.85.85 0 0 1-.767-.967 38.073 38.073 0 0 0 .267-4.5 22.31 22.31 0 0 0-.083-2.367.883.883 0 0 1 .817-.934.85.85 0 0 1 .934.817c0 .817.1 1.667.1 2.484a38.089 38.089 0 0 1-.3 4.7.883.883 0 0 1-.867.683zm-49.626-9.168a.984.984 0 0 1-.367 0 .884.884 0 0 1-.433-1.167 36.792 36.792 0 0 1 3.7-6.184.9.9 0 0 1 1.234-.183.883.883 0 0 1 .183 1.234 33.773 33.773 0 0 0-3.517 5.868.867.867 0 0 1-.8.35zM230.6 47.5a.883.883 0 0 1-.834-.6 22 22 0 0 0-3.017-6.034.884.884 0 0 1 1.434-1.017 23.521 23.521 0 0 1 3.251 6.5.883.883 0 0 1-.55 1.117.834.834 0 0 1-.283.033zm-40.174-6.468a.867.867 0 0 1-.65-.283.884.884 0 0 1 0-1.25 37.69 37.69 0 0 1 5.818-4.317.875.875 0 0 1 .9 1.5 36.822 36.822 0 0 0-5.484 4.117.867.867 0 0 1-.633.233zm32.106-4.768a.867.867 0 0 1-.517-.167 18.87 18.87 0 0 0-6.018-2.934.867.867 0 0 1-.6-1.084.883.883 0 0 1 1.084-.617 20.6 20.6 0 0 1 6.568 3.217.873.873 0 0 1-.517 1.667zm-20.187-2.434a.883.883 0 0 1-.283-1.667 27.372 27.372 0 0 1 7.118-1.417.867.867 0 0 1 .933.833.9.9 0 0 1-.833.934 25.155 25.155 0 0 0-6.668 1.317.783.783 0 0 1-.267 0z" transform="translate(-9.698 -30.749)" style="fill:#dadeea"/>
        <path data-name="Path 67799" d="M524.9 102.751a41.675 41.675 0 0 0-11.319 71.68 18.837 18.837 0 0 1-5.451 19.07s12.686-1.934 16.553-12.786a41.675 41.675 0 1 0 .233-77.965z" transform="translate(301.215 15.508)" style="fill:#dadeea"/>
        <path data-name="Path 67800" d="M522.952 144.377a36.468 36.468 0 0 1 .2-4.034 17.217 17.217 0 0 1 .683-3.334 13.549 13.549 0 0 1 1.3-2.817 16.521 16.521 0 0 1 2.034-2.567 50.37 50.37 0 0 0 1.667-1.967 14.775 14.775 0 0 0 1.333-1.917 10.233 10.233 0 0 0 .867-2.017 7.39 7.39 0 0 0 .317-2.234c0-3.734-1.2-5.6-3.617-5.6a3.234 3.234 0 0 0-1.3.317 3.535 3.535 0 0 0-1.234 1.034 5.67 5.67 0 0 0-.9 1.767 8.8 8.8 0 0 0-.383 2.584h-9.469a16.77 16.77 0 0 1 1.067-6.1 11.67 11.67 0 0 1 2.834-4.251 11.436 11.436 0 0 1 4.184-2.5 16.27 16.27 0 0 1 5.2-.817 16.57 16.57 0 0 1 5.5.867 10.819 10.819 0 0 1 6.668 6.668 16.237 16.237 0 0 1 .9 5.634 12.1 12.1 0 0 1-.6 3.934 15.656 15.656 0 0 1-1.567 3.334 22.515 22.515 0 0 1-2.25 3.017c-.85.967-1.667 1.95-2.6 2.967a10.381 10.381 0 0 0-1.234 1.667 8.882 8.882 0 0 0-.767 1.834 12.546 12.546 0 0 0-.417 2.034c0 .733-.15 1.517-.167 2.4zm-.867 10.235a5.386 5.386 0 0 1 .367-2.034 4.635 4.635 0 0 1 1.034-1.667 5 5 0 0 1 1.667-1.084 5.934 5.934 0 0 1 4.284 0 4.651 4.651 0 0 1 2.667 2.717 5.388 5.388 0 0 1 .367 2.034 5.536 5.536 0 0 1-.433 2.15A5 5 0 0 1 531 158.4a4.451 4.451 0 0 1-1.667 1.083 6.168 6.168 0 0 1-4.284 0 4.535 4.535 0 0 1-1.667-1.084 4.787 4.787 0 0 1-1.034-1.667 5.535 5.535 0 0 1-.317-2.117z" transform="translate(312.312 22.057)" style="fill:#fff"/>
        <path data-name="Path 67801" d="m79.438 155.329-42.608-3.484a16.9 16.9 0 0 0-18.337 17.37l2.517 80.332a18.587 18.587 0 0 0 19.27 18l19.287-.717c7.9 13.619 25.338 14.553 25.338 14.553-6.218-3.667-8.585-10.352-9.452-15.853a18.62 18.62 0 0 0 12.8-16.67l4.367-74.747a18.587 18.587 0 0 0-13.182-18.784z" transform="translate(-18.485 49.98)" style="fill:#dadeea"/>
        <path data-name="Path 67802" d="M41.6 210.095a48.441 48.441 0 0 1 .25-5.184 22.338 22.338 0 0 1 .883-4.234 15.936 15.936 0 0 1 1.667-3.617 21.671 21.671 0 0 1 2.6-3.334 47.566 47.566 0 0 0 2.15-2.517 17.2 17.2 0 0 0 1.667-2.467 13.019 13.019 0 0 0 1.117-2.584 10 10 0 0 0 .417-2.884q0-7.185-4.651-7.185a4 4 0 0 0-1.667.4 4.6 4.6 0 0 0-1.467 1.3 7.518 7.518 0 0 0-1.167 2.284 11.151 11.151 0 0 0-.483 3.334H30.661a21.3 21.3 0 0 1 1.384-7.835 14.436 14.436 0 0 1 9.018-8.668 22.371 22.371 0 0 1 13.753 0 14.3 14.3 0 0 1 5.3 3.334 14.453 14.453 0 0 1 3.334 5.284 21.037 21.037 0 0 1 1.117 7.268 15.786 15.786 0 0 1-.783 5 20.437 20.437 0 0 1-2.017 4.267 31.19 31.19 0 0 1-2.884 3.884c-1.084 1.25-2.234 2.5-3.334 3.8a13.156 13.156 0 0 0-1.667 2.234 12.085 12.085 0 0 0-.984 2.35 15.47 15.47 0 0 0-.533 2.617 33.245 33.245 0 0 0-.217 3.084zm-1.117 13.169a7.118 7.118 0 0 1 .467-2.634 6.284 6.284 0 0 1 1.334-2.084 6.551 6.551 0 0 1 2.084-1.4 7.2 7.2 0 0 1 2.734-.517 7.336 7.336 0 0 1 2.784.517 6.551 6.551 0 0 1 2.084 1.4 6.285 6.285 0 0 1 1.33 2.084 7.618 7.618 0 0 1 0 5.251A6.8 6.8 0 0 1 51.965 228a5.785 5.785 0 0 1-2.084 1.384 7.334 7.334 0 0 1-2.784.5 7.2 7.2 0 0 1-2.734-.5A5.784 5.784 0 0 1 42.28 228a6.8 6.8 0 0 1-1.334-2.117 7.085 7.085 0 0 1-.467-2.617z" transform="translate(-10.366 59.342)" style="fill:#fff"/>
        <path data-name="Path 67803" d="m599.578 160.493 31.289-2.567A12.435 12.435 0 0 1 644.3 170.7l-1.784 59.061a13.669 13.669 0 0 1-14.153 13.236l-14.169-.533c-5.8 10-18.6 10.685-18.6 10.685 4.568-2.7 6.3-7.6 6.935-11.669a13.619 13.619 0 0 1-9.385-12.169l-3.134-54.944a13.669 13.669 0 0 1 9.568-13.869z" transform="translate(362.693 54.05)" style="fill:#dadeea"/>
        <path data-name="Path 67804" d="M606.719 200.694a32.326 32.326 0 0 1 .2-3.8 15.619 15.619 0 0 1 .634-3.117 12.033 12.033 0 0 1 1.234-2.65 14.772 14.772 0 0 1 1.917-2.434c.567-.633 1.1-1.25 1.667-1.85a13.614 13.614 0 0 0 1.25-1.817 10.537 10.537 0 0 0 .817-1.9 7.139 7.139 0 0 0 .3-2.117c0-3.517-1.133-5.268-3.334-5.268a2.917 2.917 0 0 0-1.233.3 3.332 3.332 0 0 0-1.15.967 5.216 5.216 0 0 0-.85 1.667 8.341 8.341 0 0 0-.367 2.434h-9.1a15.7 15.7 0 0 1 1-5.751 11.334 11.334 0 0 1 2.684-4.017 10.819 10.819 0 0 1 3.934-2.35 15.137 15.137 0 0 1 5-.767 15.336 15.336 0 0 1 5.2.817 10.169 10.169 0 0 1 6.335 6.284 15.272 15.272 0 0 1 .85 5.318 11.362 11.362 0 0 1-.567 3.717 15.134 15.134 0 0 1-1.484 3.151 23.613 23.613 0 0 1-2.117 2.834l-2.467 2.8a9.23 9.23 0 0 0-1.15 1.667 8.733 8.733 0 0 0-.733 1.667 13 13 0 0 0-.383 1.917 22.567 22.567 0 0 0-.167 2.267zm-.817 9.669a5.251 5.251 0 0 1 .35-1.934 4.7 4.7 0 0 1 .967-1.534 4.651 4.651 0 0 1 1.534-1.017 5.535 5.535 0 0 1 4.051 0 4.486 4.486 0 0 1 1.534 1.017 4.752 4.752 0 0 1 .983 1.534 5.25 5.25 0 0 1 .35 1.934 5.1 5.1 0 0 1-.35 1.917 4.65 4.65 0 0 1-.984 1.55 4.3 4.3 0 0 1-1.534 1.034 5.784 5.784 0 0 1-4.051 0 4.453 4.453 0 0 1-1.534-1.034 4.6 4.6 0 0 1-.967-1.55 5.1 5.1 0 0 1-.384-1.917z" transform="translate(368.506 60.942)" style="fill:#fff"/>
        <path data-name="Path 67805" d="M187.518 174.53c8.985-5.5 14.469-12.836 14.469-20.887 0-17.053-24.588-30.872-54.894-30.872S92.2 136.589 92.2 153.642s24.571 30.872 54.894 30.872a89.735 89.735 0 0 0 27.072-4.017c6.918 11.669 21.954 12.5 21.954 12.5-7.402-4.348-8.552-13.616-8.602-18.467z" transform="translate(30.681 30.628)" style="fill:#dadeea"/>
        <path data-name="Path 67806" d="M109.07 143.4a4.3 4.3 0 0 1 .3-1.667 3.834 3.834 0 0 1 .817-1.284 3.917 3.917 0 0 1 1.284-.85 4.133 4.133 0 0 1 1.667-.317 4.233 4.233 0 0 1 1.667.317 4.1 4.1 0 0 1 1.284.85 3.834 3.834 0 0 1 .817 1.284 4.5 4.5 0 0 1 0 3.234 3.834 3.834 0 0 1-.817 1.284 3.634 3.634 0 0 1-1.284.867 4.55 4.55 0 0 1-1.667.3 4.435 4.435 0 0 1-1.667-.3 3.5 3.5 0 0 1-1.284-.867 3.834 3.834 0 0 1-.817-1.284 4.3 4.3 0 0 1-.3-1.567z" transform="translate(41.933 41.64)" style="fill:#fff"/>
        <path data-name="Path 67807" d="M122.68 143.393a4.634 4.634 0 0 1 .283-1.667 3.884 3.884 0 0 1 .834-1.284 4.033 4.033 0 0 1 1.267-.85 4.684 4.684 0 0 1 3.334 0 4.1 4.1 0 0 1 1.284.85 3.834 3.834 0 0 1 .817 1.284 4.5 4.5 0 0 1 0 3.234 3.834 3.834 0 0 1-.817 1.284 3.634 3.634 0 0 1-1.284.867 5 5 0 0 1-3.334 0 3.568 3.568 0 0 1-1.267-.867 3.884 3.884 0 0 1-.834-1.284 4.634 4.634 0 0 1-.283-1.567z" transform="translate(51.01 41.644)" style="fill:#fff"/>
        <path data-name="Path 67808" d="M136.29 143.393a4.634 4.634 0 0 1 .283-1.667 3.684 3.684 0 0 1 2.1-2.134 4.684 4.684 0 0 1 3.334 0 3.684 3.684 0 0 1 2.1 2.134 4.751 4.751 0 0 1 0 3.234 4.117 4.117 0 0 1-.817 1.284 3.634 3.634 0 0 1-1.284.867 5 5 0 0 1-3.334 0 3.634 3.634 0 0 1-1.284-.867 4.117 4.117 0 0 1-.817-1.284 4.633 4.633 0 0 1-.283-1.567z" transform="translate(60.088 41.644)" style="fill:#fff"/>
        <g data-name="Group 23721">
            <path data-name="Path 67809" d="M435.533 252.04a19.9 19.9 0 0 1-.317-3.217 17.353 17.353 0 0 0-10-31.523H385.89a17.37 17.37 0 1 0 0 34.74h38.71c5 9.7 17.17 10.335 17.17 10.335a14.1 14.1 0 0 1-6.237-10.335z" transform="translate(330.429 89.895)" style="fill:#dadeea"/>
            <path data-name="Path 67810" d="M376.64 229.524a3.785 3.785 0 0 1 .25-1.384 3.434 3.434 0 0 1 .7-1.1 3.633 3.633 0 0 1 1.1-.733 3.684 3.684 0 0 1 1.45-.267 3.633 3.633 0 0 1 1.45.267 3.434 3.434 0 0 1 1.1.733 3.218 3.218 0 0 1 .717 1.1 3.783 3.783 0 0 1 .25 1.384 3.72 3.72 0 0 1-.25 1.384 3.133 3.133 0 0 1-.717 1.117 2.966 2.966 0 0 1-1.1.733 3.633 3.633 0 0 1-1.45.267 3.684 3.684 0 0 1-1.45-.267 3.116 3.116 0 0 1-1.1-.733 3.334 3.334 0 0 1-.7-1.117 3.717 3.717 0 0 1-.25-1.384z" transform="translate(335.845 95.724)" style="fill:#fff"/>
            <path data-name="Path 67811" d="M388.32 229.524a3.786 3.786 0 0 1 .25-1.384 3.216 3.216 0 0 1 .717-1.1 3.433 3.433 0 0 1 1.1-.733 3.551 3.551 0 0 1 1.434-.267 3.716 3.716 0 0 1 1.467.267 3.632 3.632 0 0 1 1.1.733 3.435 3.435 0 0 1 .7 1.1 3.786 3.786 0 0 1 .25 1.384 3.719 3.719 0 0 1-.25 1.384 3.334 3.334 0 0 1-.7 1.117 3.117 3.117 0 0 1-1.1.734 3.718 3.718 0 0 1-1.467.267 3.549 3.549 0 0 1-1.434-.267 2.966 2.966 0 0 1-1.1-.734 3.135 3.135 0 0 1-.717-1.117 3.715 3.715 0 0 1-.25-1.384z" transform="translate(343.635 95.724)" style="fill:#fff"/>
            <path data-name="Path 67812" d="M400 229.524a3.785 3.785 0 0 1 .25-1.384 3.184 3.184 0 0 1 1.8-1.834 3.6 3.6 0 0 1 1.434-.267 3.716 3.716 0 0 1 1.467.267 3.184 3.184 0 0 1 1.8 1.834 3.785 3.785 0 0 1 .25 1.384 3.718 3.718 0 0 1-.25 1.384 3.334 3.334 0 0 1-.7 1.117 2.968 2.968 0 0 1-1.1.733 3.717 3.717 0 0 1-1.467.267 3.6 3.6 0 0 1-1.434-.267 2.968 2.968 0 0 1-1.1-.734 3.334 3.334 0 0 1-.7-1.117 3.716 3.716 0 0 1-.25-1.384z" transform="translate(351.427 95.724)" style="fill:#fff"/>
        </g>
    </g>
</svg>
