<svg xmlns="http://www.w3.org/2000/svg" width="101.051" height="90.621" viewBox="0 0 101.051 90.621">
    <g data-name="rotate 2">
        <g data-name="Group 24675">
            <g data-name="Group 24658">
                <path data-name="Path 68139" d="M246.424 1485.7a4.733 4.733 0 0 1-2.006 3.192 2.55 2.55 0 0 1-.2.109 2.488 2.488 0 0 0-.614.39c-.083.059-.145.034-.816.034h-.605c-16.01 0-30.255-.06-43.141-.121v-50.588c20.007.078 39.067.011 42.693.153a4.011 4.011 0 0 1 .6.045 10.831 10.831 0 0 1 1.436.616 15.047 15.047 0 0 1 4.056 2.792c1.765 2.245 2.05 4.921 2.2 7.5a113.323 113.323 0 0 1-3.603 35.878z" transform="translate(-155.769 -1399.273)" style="fill:#fff"/>
                <path data-name="Path 68140" d="M290.574 1448.215c-.123-2.633-.358-5.4-1.761-7.716a10.616 10.616 0 0 0-2.432-2.364 17.012 17.012 0 0 0-.91-.632 7.673 7.673 0 0 0-1.1-.6.7.7 0 0 0-.16-.036c-.8-.116-4.376-.135-16.162-.153a4419.03 4419.03 0 0 1-17.149-.048v.929c6.105.034 12.064.043 17.149.05 6.012.009 11.432.018 14.17.064.326 0 .614.011.858.018.233 0 .429.011.584.021a3.523 3.523 0 0 1 .376.027l.1.043c.144.069.306.155.481.26a12.485 12.485 0 0 1 3.392 2.9c1.291 2.135 1.508 4.661 1.629 7.278a145.725 145.725 0 0 1-2.767 35.764 4.417 4.417 0 0 1-1.494 3 2.951 2.951 0 0 0-.356.265 1.32 1.32 0 0 0-.1.089h-2.856c-11.5 0-21.822-.062-31.171-.121v.931c10.013.064 21.142.123 33.637.123h.325a1.14 1.14 0 0 0 .431-.043.642.642 0 0 0 .253-.187 1.566 1.566 0 0 1 .344-.276c.021-.014.034-.027.052-.039a.009.009 0 0 0 .007 0 3.107 3.107 0 0 0 .573-.5 6.329 6.329 0 0 0 1.266-3.057 146.676 146.676 0 0 0 2.791-35.99z" transform="translate(-195.795 -1397.691)" style="fill:#59626b"/>
            </g>
            <g data-name="Group 24660">
                <g data-name="Group 24659">
                    <path data-name="Path 68141" d="M396.57 1439.975a468.563 468.563 0 0 1 .4 50.12c.559-.03 1.117-.06 1.683-.093 6.4-.375 10.293-1.9 9.951-10.626-.243-6.208.557-16.281.021-29.983 0-7.248-6.866-9.22-12-9.81-.013.13-.031.261-.055.392z" transform="translate(-308.232 -1399.943)" style="fill:#e9f3f9"/>
                    <path data-name="Path 68142" d="M407.518 1447.818c0-4.036-2.151-9.094-12.411-10.273a.17.17 0 0 0-.034 0 .463.463 0 0 0-.481.411.015.015 0 0 1 0 .009c-.014.118-.03.233-.05.351a.374.374 0 0 0-.009.087v.029c.009.126.016.249.023.374q.441 6.838.655 13.889v.027q.137 4.35.18 8.8v.032c.087 8.48-.059 17.268-.436 26.5l-.007.171c0 .091-.007.185-.011.276v.018a.449.449 0 0 0 .137.333.472.472 0 0 0 .329.132H395.51l.648-.034.954-.055c6.84-.4 10.73-2.345 10.39-11.108-.1-2.484-.025-5.656.059-9.326.121-5.554.279-12.461-.043-20.643zm-10.134 40.124-.331.02-.4.023c-.256.014-.511.027-.767.043v-.059a467.052 467.052 0 0 0-.4-49.215l-.014-.226c.233.03.461.062.687.1.372.057.735.121 1.086.189 6.2 1.207 9.345 4.232 9.347 9.023.139 3.573.187 6.9.187 9.979 0 3.961-.08 7.5-.151 10.618-.084 3.689-.157 6.872-.059 9.386.313 7.942-2.847 9.696-9.185 10.118z" transform="translate(-306.657 -1398.368)" style="fill:#59626b"/>
                </g>
            </g>
            <g data-name="Group 24661">
                <path data-name="Path 68143" d="M387.442 1487.054c-.172-5.158.144-10.315.082-15.473.021-4.942-.4-9.874-.408-14.815.175-4.854-.145-9.7-.355-14.547a1.34 1.34 0 0 0-2.667 0c.113 4.647.48 9.289.377 13.939-.044 3.689.31 7.37.322 11.058-.006 6.793-.3 13.585-.249 20.377a15.194 15.194 0 0 1 .051 1.543.134.134 0 0 1-.01.043.884.884 0 0 0-.041.12l-.036.086a1.4 1.4 0 0 0 1.063 1.726c2.576.271 1.983-2.244 1.871-4.057z" transform="translate(-298.601 -1401.043)" style="fill:#d4d8d9"/>
            </g>
            <g data-name="Group 24662">
                <path data-name="Path 68144" d="M355.147 1596.8a.155.155 0 0 1 .31 0c.1 3.522.105 7.092.006 10.611a.155.155 0 1 1-.31-.009c.1-3.512.1-7.077-.006-10.593z" transform="translate(-276.259 -1521.172)" style="fill:#59626b"/>
            </g>
            <g data-name="Group 24663">
                <path data-name="Path 68145" d="M337.8 1621.363c0-1.769.029-3.559.085-5.332a.155.155 0 0 1 .16-.15.148.148 0 0 1 .15.16c-.063 1.962-.09 3.948-.084 5.9a.155.155 0 0 1-.31 0l-.001-.578z" transform="translate(-262.871 -1536.02)" style="fill:#59626b"/>
            </g>
            <g data-name="Group 24673">
                <g data-name="Group 24664">
                    <path data-name="Path 68146" d="M11.4 1366.175c.991-18.205.485-64.6.828-65.419a12.8 12.8 0 0 1 3.409-4.222c2.244-1.356 4.92-1.575 7.5-1.7a146.158 146.158 0 0 1 35.878 2.776 4.826 4.826 0 0 1 3.3 1.7c.508.779.426.151.426 1.1 0 26.96-.277 47.411-.277 64.694 0 4.354-7.318 6.8-11.368 7.407a71.28 71.28 0 0 1-7.654.867 71.2 71.2 0 0 1-11.691-.812c-6.629-.828-13.519-3.956-20.351-6.391z" transform="translate(-10.939 -1288.1)" style="fill:#fff"/>
                    <path data-name="Path 68147" d="M40.334 1372.3a82.588 82.588 0 0 1-10.211-.847c-5.142-.642-10.5-2.674-15.676-4.64-1.566-.594-3.186-1.209-4.773-1.775a.466.466 0 0 1-.308-.464c.62-11.395.654-34.177.676-49.254.019-12.911.039-15.965.188-16.321a13.085 13.085 0 0 1 3.6-4.44c2.321-1.4 5.085-1.64 7.718-1.762a146.627 146.627 0 0 1 35.992 2.785 5.231 5.231 0 0 1 3.6 1.9 1.5 1.5 0 0 0 .276.345.727.727 0 0 1 .23.685v.324c0 14.974-.086 27.987-.162 39.469-.062 9.413-.116 17.541-.116 25.225 0 4.478-7.036 7.158-11.765 7.867a71.961 71.961 0 0 1-7.7.872q-.791.031-1.569.031zm-30.021-8.021c1.491.536 3 1.109 4.464 1.664 5.128 1.946 10.43 3.958 15.461 4.586a71.066 71.066 0 0 0 11.614.809 71.252 71.252 0 0 0 7.6-.862c4.242-.636 10.972-3.084 10.972-6.947 0-7.687.054-15.817.115-25.232.076-11.48.162-24.492.162-39.463v-.39a2.717 2.717 0 0 1-.355-.455 4.418 4.418 0 0 0-3-1.495 145.779 145.779 0 0 0-35.764-2.767c-2.617.122-5.143.338-7.279 1.629a12.592 12.592 0 0 0-3.206 3.971c-.107.707-.118 7.8-.13 16-.017 14.93-.051 37.423-.654 48.952z" transform="translate(-9.364 -1286.525)" style="fill:#59626b"/>
                </g>
                <g data-name="Group 24667">
                    <g data-name="Group 24665">
                        <path data-name="Path 68148" d="M15.428 1280.123a468.572 468.572 0 0 1 50.12-.4c-.03-.559-.06-1.117-.093-1.683-.375-6.4-1.9-10.293-10.626-9.951-6.209.243-16.281-.557-29.983-.021-7.248 0-9.22 6.865-9.81 12 .13.013.264.032.392.055z" transform="translate(-13.741 -1267.41)" style="fill:#e9f3f9"/>
                        <path data-name="Path 68149" d="M13.853 1279.013a.465.465 0 0 1-.086-.008 4.932 4.932 0 0 0-.362-.053.465.465 0 0 1-.407-.515c1.179-10.259 6.237-12.413 10.272-12.413 8.185-.321 15.09-.164 20.638-.037 3.672.084 6.844.157 9.327.058 8.764-.339 10.709 3.55 11.109 10.389.031.539.06 1.071.089 1.6v.082a.465.465 0 0 1-.134.352.451.451 0 0 1-.35.138 466.4 466.4 0 0 0-50.07.4zm19.415-12.247c-3.077 0-6.4.048-9.979.188-5.227 0-8.352 3.74-9.308 11.118a466.84 466.84 0 0 1 49.5-.414q-.031-.582-.065-1.169c-.384-6.558-2.06-9.832-10.143-9.513-2.513.1-5.7.026-9.385-.058-3.116-.071-6.66-.152-10.62-.152z" transform="translate(-12.166 -1265.835)" style="fill:#59626b"/>
                    </g>
                    <g data-name="Group 24666">
                        <path data-name="Path 68150" d="M11.4 1606.2c0 .1 0 .2.005.3a19.809 19.809 0 0 0 1.026 7.2c.921 2.24 5.9 4.533 8.324 4.536 11.378.11 19.774-.043 31.152-.043a9.822 9.822 0 0 0 10.037-8.046 27.762 27.762 0 0 0 .548-4.5z" transform="translate(-10.938 -1528.125)" style="fill:#e9f3f9"/>
                        <path data-name="Path 68151" d="M27.7 1617.172c-2.7 0-5.5-.01-8.522-.04-2.544 0-7.729-2.34-8.75-4.824a20.283 20.283 0 0 1-1.061-7.371l-.005-.3a.466.466 0 0 1 .461-.474l51.092-.548h.005a.465.465 0 0 1 .465.488 27.818 27.818 0 0 1-.558 4.575 10.276 10.276 0 0 1-10.492 8.413c-4.295 0-8.176.022-11.93.043-3.585.019-7.057.038-10.705.038zm-17.4-12.086a19.125 19.125 0 0 0 .989 6.868c.808 1.966 5.465 4.245 7.894 4.247 7.082.069 12.976.036 19.216 0 3.755-.021 7.638-.043 11.936-.043a9.342 9.342 0 0 0 9.582-7.679 25.909 25.909 0 0 0 .511-3.931z" transform="translate(-9.363 -1526.551)" style="fill:#59626b"/>
                    </g>
                </g>
                <g data-name="Group 24668">
                    <path data-name="Path 68152" d="M98.973 1632.714a.466.466 0 0 1-.016-.931c3.362-.115 6.772-.158 10.136-.13a.466.466 0 0 1 0 .931 241.31 241.31 0 0 0-10.1.13z" transform="translate(-78.17 -1548.187)" style="fill:#59626b"/>
                </g>
                <g data-name="Group 24669">
                    <path data-name="Path 68153" d="M62.508 1318.889c-5.158.173-10.315-.144-15.472-.082-4.942-.021-9.874.4-14.815.408-4.855-.175-9.7.145-14.547.355a1.34 1.34 0 0 0 0 2.667c4.647-.114 9.289-.48 13.94-.377 3.689.044 7.37-.31 11.057-.322 6.793.006 13.585.3 20.377.249a15.217 15.217 0 0 1 1.543-.051c.014 0 .029.005.043.01a.965.965 0 0 0 .12.041l.086.036a1.4 1.4 0 0 0 1.726-1.063c.269-2.576-2.246-1.983-4.058-1.871z" transform="translate(-14.842 -1306.679)" style="fill:#d4d8d9"/>
                </g>
                <g data-name="Group 24670">
                    <path data-name="Path 68154" d="M172.251 1361.664a.155.155 0 0 1 0-.311c3.522-.1 7.092-.105 10.61-.006a.155.155 0 0 1-.009.31c-3.512-.1-7.076-.1-10.593.006z" transform="translate(-134.97 -1339.5)" style="fill:#59626b"/>
                </g>
                <g data-name="Group 24671">
                    <path data-name="Path 68155" d="M196.816 1378.988c-1.769 0-3.559-.028-5.332-.085a.155.155 0 0 1-.15-.16.148.148 0 0 1 .16-.151c1.962.063 3.948.09 5.9.084a.155.155 0 0 1 0 .31z" transform="translate(-149.819 -1352.868)" style="fill:#59626b"/>
                </g>
                <g data-name="Group 24672">
                    <path data-name="Path 68156" d="M35.389 1582.354a.155.155 0 0 1-.01-.31c3.266-.221 6.783-.427 10.37-.437a.155.155 0 0 1 0 .311c-3.577.01-7.088.215-10.35.436z" transform="translate(-29.332 -1509.566)" style="fill:#59626b"/>
                </g>
            </g>
            <g data-name="Group 24674">
                <path data-name="Path 68157" d="M312.213 1325.961a18.131 18.131 0 0 1-1.547 7.285.993.993 0 0 0-.023.966.87.87 0 0 0 .774.468.778.778 0 0 0 .686-.49 16.963 16.963 0 0 0 1.368-3.4 17.73 17.73 0 0 0 .665-5.794 14.619 14.619 0 0 0-2.646-8.087 9.94 9.94 0 0 0-6.379-4.1 9.24 9.24 0 0 0-5.218.592.551.551 0 0 0-.367.45c-.056.352.114.564.466.545.52-.027 1.039-.075 1.56-.107a9.216 9.216 0 0 1 5.312.934 9.677 9.677 0 0 1 4.341 5.13 15.452 15.452 0 0 1 1.008 5.608z" transform="translate(-233.318 -1301.981)" style="fill:#59626b"/>
                <path data-name="Path 68158" d="M276.888 1308.2a24.833 24.833 0 0 1 5.568-3.34c.235-.094.414-.219.325-.494s-.3-.265-.55-.215a12.293 12.293 0 0 0-4.34 1.964c-.726.474-1.437.971-2.151 1.464-.494.341-.523.714-.1 1.138a18.861 18.861 0 0 0 3.9 3 .563.563 0 1 0 .7-.885 17.492 17.492 0 0 0-2.484-1.991c-.285-.207-.562-.416-.868-.641z" transform="translate(-214.662 -1295.387)" style="fill:#59626b"/>
            </g>
        </g>
    </g>
</svg>
