<svg xmlns="http://www.w3.org/2000/svg" width="31.035" height="33.82" viewBox="0 0 31.035 33.82">
    <g data-name="Group 534">
        <g data-name="Group 533">
            <path data-name="Path 782" d="m115.912 78.417-13.289-7.363a2.216 2.216 0 0 0-2.16 0l-13.29 7.363a2.229 2.229 0 0 0-1.148 1.949V95a2.229 2.229 0 0 0 1.148 1.949l13.289 7.363a2.216 2.216 0 0 0 2.16 0l13.289-7.363A2.229 2.229 0 0 0 117.06 95V80.366a2.229 2.229 0 0 0-1.148-1.949zm-14.564-5.766a.4.4 0 0 1 .39 0l5.307 2.94-12.8 7.091-5.431-3.088zm-.717 29.666-12.573-6.965a.4.4 0 0 1-.207-.352V81.146l5.931 3.372 6.844 3.891zm-4.526-18.578 12.823-7.1 5.514 3.055-12.894 7.144zM115.235 95a.4.4 0 0 1-.208.353l-12.572 6.965v-13.9l12.779-7.08z" transform="translate(-86.025 -70.774)" style="fill:#494f55"/>
        </g>
    </g>
    <g data-name="Group 536">
        <g data-name="Group 535">
            <path data-name="Path 783" d="m124.21 226.837-4.837-2.664a.913.913 0 0 0-1.353.8v3.859a.913.913 0 0 0 .472.8l4.837 2.664a.913.913 0 0 0 1.353-.8v-3.859a.912.912 0 0 0-.472-.8zm-1.353 3.114-3.011-1.658v-1.775l3.011 1.658z" transform="translate(-115.1 -210.066)" style="fill:#494f55"/>
        </g>
    </g>
    <g data-name="Group 538">
        <g data-name="Group 537">
            <path data-name="Path 784" d="m189.991 345.8-2.418-1.332a.913.913 0 1 0-.881 1.6l2.418 1.332a.913.913 0 1 0 .881-1.6z" transform="translate(-177.073 -319.382)" style="fill:#494f55"/>
        </g>
    </g>
</svg>
