<svg xmlns="http://www.w3.org/2000/svg" width="26.565" height="12.786" viewBox="0 0 26.565 12.786">
    <g data-name="Group 20974">
        <path data-name="Path 53025" d="M190.7 106.946h-.575v-.59h.575a.188.188 0 0 0 .188-.188v-3.016a.19.19 0 0 0-.048-.125l-3.007-3.382a.188.188 0 0 0-.141-.063h-2.762v6.774h2.48v.59h-3.07v-7.955h3.352a.778.778 0 0 1 .581.261l3.008 3.383a.779.779 0 0 1 .2.517v3.016a.779.779 0 0 1-.781.778z" transform="translate(-164.916 -95.448)" style="fill:#253858"/>
        <path data-name="Path 53026" d="M88.133 76.869h-6.059v-.59h5.468V67a.945.945 0 0 0-.791-1.044h-9.23A.945.945 0 0 0 76.73 67v8.923c0 .207.12.351.228.351h2.4v.59h-2.4a.887.887 0 0 1-.819-.941V67a1.526 1.526 0 0 1 1.382-1.634h9.23A1.526 1.526 0 0 1 88.133 67v9.864z" transform="translate(-68.116 -65.371)" style="fill:#253858"/>
        <path data-name="Path 53027" d="M212.326 158.646a1.652 1.652 0 1 1 1.653-1.652 1.654 1.654 0 0 1-1.653 1.652zm0-2.714a1.062 1.062 0 1 0 1.062 1.062 1.063 1.063 0 0 0-1.062-1.063z" transform="translate(-188.472 -145.859)" style="fill:#253858"/>
        <path data-name="Path 53028" d="M105.548 158.646a1.652 1.652 0 1 1 1.652-1.652 1.654 1.654 0 0 1-1.652 1.652zm0-2.714a1.062 1.062 0 1 0 1.062 1.062 1.063 1.063 0 0 0-1.062-1.063z" transform="translate(-92.947 -145.859)" style="fill:#253858"/>
        <path data-name="Path 53029" d="M207.066 113.562h-4.245a.728.728 0 0 1-.727-.727v-1.605a.728.728 0 0 1 .727-.727h2.05v.59h-2.05a.137.137 0 0 0-.137.137v1.606a.137.137 0 0 0 .137.136h4.245z" transform="translate(-180.797 -105.747)" style="fill:#253858"/>
        <path data-name="Path 53030" d="M25.34 143.269h-3.717a.3.3 0 1 1 0-.59h3.717a.3.3 0 1 1 0 .59z" transform="translate(-19.08 -134.531)" style="fill:#2bb258"/>
        <path data-name="Path 53031" d="M15.322 123.912h-4.9a.3.3 0 0 1 0-.59h4.9a.3.3 0 0 1 0 .59z" transform="translate(-9.063 -117.215)" style="fill:#2bb258"/>
        <path data-name="Path 53032" d="M6.26 104.559H.3a.3.3 0 1 1 0-.59h5.96a.3.3 0 1 1 0 .59z" transform="translate(0 -99.901)" style="fill:#2bb258"/>
        <path data-name="Path 53033" d="M107.165 92.921a3.048 3.048 0 1 1 3.048-3.048 3.052 3.052 0 0 1-3.048 3.048zm0-5.506a2.458 2.458 0 1 0 2.458 2.458 2.461 2.461 0 0 0-2.458-2.458z" transform="translate(-93.145 -84.564)" style="fill:#253858"/>
        <path data-name="Path 53034" d="M120.333 107.643a.3.3 0 0 1-.213-.091l-.805-.84a.3.3 0 1 1 .426-.409l.579.6 1.3-1.537a.3.3 0 1 1 .45.382l-1.515 1.787a.3.3 0 0 1-.216.1z" transform="translate(-106.667 -101.061)" style="fill:#2bb258"/>
    </g>
</svg>
