<svg id="delivery" xmlns="http://www.w3.org/2000/svg" width="27.972" height="41.999" viewBox="0 0 27.972 41.999">
  <defs>
    <style>
      .cls-1 {
        fill: #494f55;
      }
    </style>
  </defs>
  <g id="Group_548" data-name="Group 548">
    <g id="Group_547" data-name="Group 547">
      <path id="Path_789" data-name="Path 789" class="cls-1" d="M113.472,13.986a13.986,13.986,0,1,0-27.972,0,.82.82,0,0,0,.315.645h0L95.2,21.984H91.939a2.464,2.464,0,0,0-2.461,2.461V39.538A2.464,2.464,0,0,0,91.939,42h15.093a2.464,2.464,0,0,0,2.461-2.461V24.445a2.464,2.464,0,0,0-2.461-2.461h-3.256l9.381-7.352h0A.82.82,0,0,0,113.472,13.986Zm-25.851-.023a5.393,5.393,0,0,1,6.774.487l2.548,6.819Zm8.439.256a5.4,5.4,0,0,1,6.852,0l-2.9,7.765H98.962Zm10.972,9.405a.821.821,0,0,1,.82.82V39.538a.821.821,0,0,1-.82.82H91.939a.821.821,0,0,1-.82-.82V24.445a.821.821,0,0,1,.82-.82Zm-5-2.355,2.548-6.819a5.393,5.393,0,0,1,6.774-.487Zm1.846-8.383a7.04,7.04,0,0,0-8.777,0,7.046,7.046,0,0,0-7.835-.636,12.347,12.347,0,0,1,24.448,0A7.046,7.046,0,0,0,103.875,12.886Z" transform="translate(-85.5)"/>
    </g>
  </g>
  <g id="Group_550" data-name="Group 550" transform="translate(7.26 25.265)">
    <g id="Group_549" data-name="Group 549">
      <path id="Path_790" data-name="Path 790" class="cls-1" d="M186.633,308H174.82a.82.82,0,0,0-.82.82v11.812a.82.82,0,0,0,.82.82h11.812a.82.82,0,0,0,.82-.82V308.82A.82.82,0,0,0,186.633,308Zm-1.98,1.641-3.926,3.926-3.926-3.926Zm-9.012,1.16,3.926,3.926-3.926,3.926Zm1.16,9.012,3.926-3.926,3.926,3.926Zm9.012-1.16-3.926-3.926,3.926-3.926Z" transform="translate(-174 -308)"/>
    </g>
  </g>
  <g id="Group_552" data-name="Group 552" transform="translate(13.176 3.661)">
    <g id="Group_551" data-name="Group 551" transform="translate(0)">
      <path id="Path_791" data-name="Path 791" class="cls-1" d="M247,44.627h-.055a.82.82,0,0,0,0,1.641H247a.82.82,0,0,0,0-1.641Z" transform="translate(-246.127 -44.627)"/>
    </g>
  </g>
  <g id="Group_554" data-name="Group 554" transform="translate(16.272 4.176)">
    <g id="Group_553" data-name="Group 553">
      <path id="Path_792" data-name="Path 792" class="cls-1" d="M289.769,54.418a10.309,10.309,0,0,0-4.816-3.463.82.82,0,1,0-.534,1.551,8.673,8.673,0,0,1,4.052,2.914.82.82,0,0,0,1.3-1Z" transform="translate(-283.865 -50.911)"/>
    </g>
  </g>
</svg>
