<svg id="Icon_awesome-instagram" data-name="Icon awesome-instagram" xmlns="http://www.w3.org/2000/svg" width="35" height="34.992" viewBox="0 0 35 34.992">
  <defs>
    <style>
      .cls-1 {
        fill: #878c92;
      }
    </style>
  </defs>
  <path id="Icon_awesome-instagram-2" data-name="Icon awesome-instagram" class="cls-1" d="M17.5,10.762a8.972,8.972,0,1,0,8.972,8.972A8.957,8.957,0,0,0,17.5,10.762Zm0,14.8a5.833,5.833,0,1,1,5.833-5.833A5.843,5.843,0,0,1,17.5,25.566ZM28.93,10.4A2.093,2.093,0,1,1,26.837,8.3,2.088,2.088,0,0,1,28.93,10.4Zm5.942,2.124c-.133-2.8-.773-5.286-2.827-7.332S27.516,2.5,24.713,2.361c-2.889-.164-11.548-.164-14.437,0-2.8.133-5.278.773-7.332,2.819S.258,9.708.118,12.511C-.046,15.4-.046,24.06.118,26.949c.133,2.8.773,5.286,2.827,7.332s4.529,2.686,7.332,2.827c2.889.164,11.548.164,14.437,0,2.8-.133,5.286-.773,7.332-2.827s2.686-4.529,2.827-7.332c.164-2.889.164-11.54,0-14.429ZM31.139,30.048a5.905,5.905,0,0,1-3.326,3.326c-2.3.914-7.769.7-10.315.7s-8.019.2-10.315-.7a5.905,5.905,0,0,1-3.326-3.326c-.914-2.3-.7-7.769-.7-10.315s-.2-8.019.7-10.315A5.905,5.905,0,0,1,7.184,6.093c2.3-.914,7.769-.7,10.315-.7s8.019-.2,10.315.7a5.905,5.905,0,0,1,3.326,3.326c.914,2.3.7,7.769.7,10.315S32.053,27.753,31.139,30.048Z" transform="translate(0.005 -2.238)"/>
</svg>
