<svg xmlns="http://www.w3.org/2000/svg" width="41.948" height="41.992" viewBox="0 0 41.948 41.992">
    <g data-name="Layer 2">
        <g data-name="Layer 1">
            <path data-name="Path 817" d="M28 16.32a.83.83 0 0 0 .24-.58.89.89 0 0 0-.24-.58.82.82 0 1 0 0 1.16z" style="fill:#494f55" transform="translate(-.052 -.008)"/>
            <path data-name="Path 818" d="M36.55 15.76 31.7 9.69l2.43-4.77a2.59 2.59 0 0 0-3.6-3.42 1 1 0 0 1-1.08-.08 6.37 6.37 0 0 0-8 0 .93.93 0 0 1-1.07.08 2.54 2.54 0 0 0-3.08.37 2.53 2.53 0 0 0-.53 3.05l2.43 4.79-2.82 3.53a.82.82 0 0 0 .12 1.16.84.84 0 0 0 1.16-.13l2.91-3.65h6v2.3a.82.82 0 0 0 1.64 0v-2.3h1.25v8.2a.82.82 0 1 0 1.64 0V11.6l4.14 5.18a23.36 23.36 0 0 1 5.1 14.56 9 9 0 0 1-9 9H19.55a8.94 8.94 0 0 1-7.37-3.82c3-1.59 5-3.2 6.14-5a10.86 10.86 0 0 0 1.46-6.07v-6.83a.81.81 0 0 0-.48-.74l-9.06-4.17a.83.83 0 0 0-.69 0l-9 4.17a.8.8 0 0 0-.48.74v6.84a10.85 10.85 0 0 0 1.45 6.07c1.38 2.16 4 4 8.08 6a.83.83 0 0 0 .69 0l.46-.22a10.66 10.66 0 0 0 8.8 4.69h11.81A10.67 10.67 0 0 0 42 31.34a25.07 25.07 0 0 0-5.45-15.58zM30.22 9h-9.55l-2.45-4.83a1 1 0 0 1 1.33-1.25 2.6 2.6 0 0 0 2.93-.23 4.73 4.73 0 0 1 5.94 0 2.58 2.58 0 0 0 2.93.23 1 1 0 0 1 1.3.35.93.93 0 0 1 0 .9zM9.9 35.84C1.82 32 1.74 29 1.66 25.43v-6.28l8.24-3.79 8.24 3.79v6.28C18.05 29 18 32 9.9 35.84z" style="fill:#494f55" transform="translate(-.052 -.008)"/>
            <path data-name="Path 819" d="M15.14 22.87a.82.82 0 0 0-1.16 0l-4.6 4.6-2-1.95a.82.82 0 1 0-1.16 1.16l2.58 2.53a.82.82 0 0 0 1.16 0L15.13 24a.82.82 0 0 0 0-1.16z" style="fill:#494f55" transform="translate(-.052 -.008)"/>
            <path data-name="Path 820" d="m22.44 28-.87-.41a4.11 4.11 0 0 0-.42 1.52v.15a2 2 0 0 0 .28 1 1.79 1.79 0 0 0 .72.61 2.24 2.24 0 0 0 .91.19h.45a2.46 2.46 0 0 0 .86-.14 1.59 1.59 0 0 0 .63-.42 1.84 1.84 0 0 0 .38-1.22v-1.82h-1v1.83a.89.89 0 0 1-.17.61 1.06 1.06 0 0 1-.74.2h-.64l-.19-.1a.72.72 0 0 1-.4-.29.94.94 0 0 1-.14-.52v-.1a3.39 3.39 0 0 1 .34-1.09z" style="fill:#494f55" transform="translate(-.052 -.008)"/>
            <path data-name="Path 821" d="m24.02 27.24-.62-.63-.61.62.61.62z" style="fill:#494f55" transform="translate(-.052 -.008)"/>
            <path data-name="Path 822" d="M25.81 28.22a1.54 1.54 0 0 0 .11.58 1.22 1.22 0 0 0 .58.58 1.55 1.55 0 0 0 .59.11h.26a1.12 1.12 0 0 0 .81-.24l.09.06h.13l.3.15a2 2 0 0 0 .78.19h.08a.82.82 0 0 0 .3-.07.75.75 0 0 0 .32-.21 1.42 1.42 0 0 0 .35-1.07 1.82 1.82 0 0 0-.05-.45 2 2 0 0 0-.21-.5 1.16 1.16 0 0 0-1-.57 1.25 1.25 0 0 0-1 .48 2.73 2.73 0 0 0-.23.38 1.647 1.647 0 0 0-.07.16c-.02.06 0 0 0 .06v.05a2.82 2.82 0 0 1-.16.44.47.47 0 0 1-.39.13h-.23c-.13 0-.21 0-.25-.07a.3.3 0 0 1-.07-.24v-3h-1zm2.9.2v-.15a1.46 1.46 0 0 1 .09-.21.39.39 0 0 1 .36-.26.35.35 0 0 1 .28.16.82.82 0 0 1 .13.39v.07a.59.59 0 0 1 0 .23.112.112 0 0 1-.1.12 1.07 1.07 0 0 1-.34-.07 1.54 1.54 0 0 1-.44-.25z" style="fill:#494f55" transform="translate(-.052 -.008)"/>
            <path data-name="Path 823" d="M33.26 27.15a1.28 1.28 0 0 0-1-.47 1.17 1.17 0 0 0-1 .52 1.71 1.71 0 0 0-.29 1 1.16 1.16 0 0 0 .44 1 1.39 1.39 0 0 0 .89.28h.41a.46.46 0 0 1-.3.41 2.33 2.33 0 0 1-1.11.21v1a4.12 4.12 0 0 0 .7-.1 2.89 2.89 0 0 0 .75-.22 1.49 1.49 0 0 0 .9-1.31h1.3A1.38 1.38 0 0 0 36.1 29a1.17 1.17 0 0 0 .23-.72 2.45 2.45 0 0 0 0-.27c-.08-.4-.14-.74-.2-1l-.92.28a.768.768 0 0 0 .07.34v.24l.06.31a.28.28 0 0 1 0 .09.23.23 0 0 1-.11.22.8.8 0 0 1-.37.07h-1.24v-.3a1.64 1.64 0 0 0-.36-1.11zm-.61 1.38h-.42a.52.52 0 0 1-.29-.07.3.3 0 0 1-.14-.23v-.06a.62.62 0 0 1 .11-.37.39.39 0 0 1 .32-.16.38.38 0 0 1 .31.16.76.76 0 0 1 .11.43z" style="fill:#494f55" transform="translate(-.052 -.008)"/>
            <path data-name="Path 824" d="m36.28 25.95-.58-.59-.57.59.57.58z" style="fill:#494f55" transform="translate(-.052 -.008)"/>
            <path data-name="Path 825" d="m34.47 25.37-.57.59.57.58.58-.58z" style="fill:#494f55" transform="translate(-.052 -.008)"/>
        </g>
    </g>
</svg>
