<svg xmlns="http://www.w3.org/2000/svg" width="42.014" height="42" viewBox="0 0 42.014 42">
    <g data-name="Layer 2">
        <g data-name="Layer 1">
            <path data-name="Path 826" d="M28.52 30.58 24 26a3.19 3.19 0 0 0-4.52 0L18 27.51a1 1 0 0 1-1.37 0l-5.42-5.42a1 1 0 0 1 0-1.33.17.17 0 0 0 .06-.06l1.43-1.43a3.21 3.21 0 0 0 0-4.52l-4.57-4.56a3.2 3.2 0 0 0-4.53 0c-.09.09-.17.19-.25.28l-1 1.24a11.18 11.18 0 0 0 .92 14.79l8.93 8.94a11.2 11.2 0 0 0 13.56 1.73 2 2 0 0 1-1.54 3.19h-5.48a.82.82 0 0 0 0 1.64h5.48a3.62 3.62 0 0 0 2.9-5.77l1.11-.88a3.2 3.2 0 0 0 .54-4.49 3.33 3.33 0 0 0-.25-.28zM4.64 11.49a1.56 1.56 0 0 1 2.19-.27l.14.13 4.54 4.53a1.57 1.57 0 0 1 0 2.2l-.9.9L4 12.35zm8.72 22.79-8.93-8.94A9.53 9.53 0 0 1 3 13.7l6.54 6.54a2.6 2.6 0 0 0 .49 3l5.43 5.43a2.6 2.6 0 0 0 3 .49L25 35.71a9.54 9.54 0 0 1-11.64-1.43zm13.86-.22-.87.68-6.64-6.64.9-.9a1.57 1.57 0 0 1 2.2 0l4.55 4.54a1.55 1.55 0 0 1 .45 1.19 1.51 1.51 0 0 1-.59 1.13z" style="fill:#494f55" transform="translate(.014)"/>
            <path data-name="Path 827" d="M7.1 24a.835.835 0 0 0-1.16 1.2l5 4.95A.82.82 0 1 0 12.05 29z" style="fill:#494f55" transform="translate(.014)"/>
            <path data-name="Path 828" d="M13.46 31.57a.82.82 0 0 0 1.16 1.16.86.86 0 0 0 .24-.58.82.82 0 0 0-1.4-.58z" style="fill:#494f55" transform="translate(.014)"/>
            <path data-name="Path 829" d="M35.93 0H20.18a6.07 6.07 0 0 0-6.07 6.07v6.48a6.07 6.07 0 0 0 6.07 6.07h6.6v2.3a.82.82 0 0 0 1.4.58l2.89-2.89h4.86A6.08 6.08 0 0 0 42 12.54V6.07A6.08 6.08 0 0 0 35.93 0zm4.43 12.55A4.45 4.45 0 0 1 35.93 17h-5.2a.78.78 0 0 0-.58.24l-1.72 1.72V17.8a.82.82 0 0 0-.82-.82h-7.43a4.44 4.44 0 0 1-4.43-4.43V6.07a4.43 4.43 0 0 1 4.43-4.43h15.75a4.44 4.44 0 0 1 4.43 4.43z" style="fill:#494f55" transform="translate(.014)"/>
            <path data-name="Path 830" d="M14.32 38.56a.82.82 0 1 0-1.16 1.16l2 2a.82.82 0 1 0 1.16-1.16z" style="fill:#494f55" transform="translate(.014)"/>
            <path data-name="Path 831" d="M10.17 38.56A.824.824 0 1 0 9 39.72l2 2a.821.821 0 0 0 1.2-1.12z" style="fill:#494f55" transform="translate(.014)"/>
            <path data-name="Path 832" d="M6 38.56a.82.82 0 1 0-1.16 1.16l2 2a.824.824 0 0 0 1.21-1.12z" style="fill:#494f55" transform="translate(.014)"/>
            <path data-name="Path 833" d="M23.47 6.52V6.4l-1.15.36a4.931 4.931 0 0 1 .13.49 2.18 2.18 0 0 1 .07.49.64.64 0 0 1-.11.42.34.34 0 0 1-.26.09c-.26 0-.51-.2-.76-.58-.08-.15-.16-.31-.23-.48A1.34 1.34 0 0 1 21 7a4.8 4.8 0 0 0-.15-.51l-1.15.37c.05.14.1.29.14.45a12.71 12.71 0 0 1 .38 2.34v2.24h1.2v-1.47a7.2 7.2 0 0 0-.06-1.16 1.81 1.81 0 0 0 .69.14 1.47 1.47 0 0 0 1.14-.48 1.72 1.72 0 0 0 .43-1.23 4.4 4.4 0 0 0-.11-.84z" style="fill:#494f55" transform="translate(.014)"/>
            <path data-name="Path 834" d="M26.45 10.73a1 1 0 0 1-.37-.06.47.47 0 0 1-.31-.27.35.35 0 0 1 0-.14v-.1a1.07 1.07 0 0 1 .09-.19 1.56 1.56 0 0 1 1.1-.58h.14l-.21-1.09h-.15a4.26 4.26 0 0 1-.57 0 1.38 1.38 0 0 1-.75-.15l-.07-.06v.01c0-.12.16-.27.47-.46a3.48 3.48 0 0 1 .58-.27l.24-.09h.15l-.38-1-.21.07-.31.11a5.36 5.36 0 0 0-.72.35 2.15 2.15 0 0 0-.87.81 1.11 1.11 0 0 0-.15.55v.15a1 1 0 0 0 .18.47 1.22 1.22 0 0 0 .38.37l.24.13-.07.1-.07.1a1.7 1.7 0 0 0-.27.84 1.45 1.45 0 0 0 .1.51 1.66 1.66 0 0 0 .41.57 2 2 0 0 0 .6.34 2.63 2.63 0 0 0 .8.13 2.19 2.19 0 0 0 .36 0 3.71 3.71 0 0 0 1.19-.45l-.57-.95a2.22 2.22 0 0 1-.98.25z" style="fill:#494f55" transform="translate(.014)"/>
            <path data-name="Path 835" d="M28.06 12.2H29l1.96-6.22h-.95z" style="fill:#494f55" transform="translate(.014)"/>
            <path data-name="Path 836" d="M34.35 7.73a5.05 5.05 0 0 0-.62 1.81 5.11 5.11 0 0 0-.62-1.81 8.41 8.41 0 0 0-1-1.46l-.89.73a8.75 8.75 0 0 1 1.36 2.49 6.89 6.89 0 0 1 .54 2.25h1.2a6.76 6.76 0 0 1 .55-2.25A9 9 0 0 1 36.23 7l-.92-.76a8 8 0 0 0-.96 1.49z" style="fill:#494f55" transform="translate(.014)"/>
        </g>
    </g>
</svg>
